<svg width="315" height="25" viewBox="0 0 315 25" fill="none" xmlns="http://www.w3.org/2000/svg">
<path d="M294.264 12.7508C293.836 12.7709 293.403 12.7847 292.984 12.8147C292.711 12.8335 292.595 12.7784 292.413 12.7496C292.352 12.7396 292.287 12.7195 292.231 12.722C291.807 12.7421 291.383 12.7646 290.959 12.7872C290.83 12.836 290.747 12.9012 290.548 12.925C290.354 12.9475 290.125 12.9475 289.908 12.9588C289.623 12.9726 289.337 12.9864 289.052 12.9989C288.909 13.0052 288.792 13.029 288.745 13.0741C288.736 13.0816 288.831 13.1004 288.883 13.1117C289.056 13.1493 289.225 13.1919 289.415 13.2207C289.597 13.2482 289.822 13.2031 290.016 13.2382C290.453 13.3172 290.458 13.3159 290.791 13.3009C291.076 13.2871 291.362 13.2721 291.647 13.262C291.703 13.2595 291.768 13.2783 291.829 13.2883C292.01 13.3159 292.127 13.3786 292.396 13.3548C292.599 13.336 292.824 13.3322 293.036 13.3222C293.213 13.3585 293.377 13.3999 293.568 13.4287C293.745 13.4562 293.797 13.4775 293.702 13.5139C293.615 13.5477 293.494 13.5615 293.334 13.564C293.191 13.5653 293.049 13.5765 292.906 13.5828C292.832 13.5865 292.763 13.5891 292.694 13.5928C292.421 13.6066 292.421 13.6066 291.924 13.5264C291.729 13.4951 291.509 13.5389 291.323 13.5089C291.197 13.4888 291.089 13.4588 290.968 13.4375C290.916 13.4287 290.834 13.4274 290.769 13.4299C290.553 13.4387 290.336 13.445 290.129 13.4613C289.982 13.4725 289.895 13.5076 289.913 13.5427C289.917 13.5565 290.021 13.5765 290.081 13.5778C290.22 13.5803 290.367 13.5627 290.501 13.5715C290.631 13.5803 290.765 13.6053 290.86 13.6329C291.055 13.6905 291.275 13.6392 291.461 13.6542C291.656 13.6705 291.816 13.7206 292.002 13.7507C292.049 13.7582 292.14 13.7457 292.214 13.7419C292.426 13.7331 292.638 13.7256 292.85 13.7169C293.027 13.7532 293.217 13.7858 293.377 13.8271C293.667 13.9023 293.979 13.9311 294.355 13.8948C294.567 13.8747 294.775 13.8822 294.943 13.9311C295.116 13.9812 295.315 13.9762 295.536 13.9662C295.739 13.9562 295.947 13.9286 296.154 13.9637C296.604 14.0414 296.609 14.0451 297.141 14.0151C297.301 14.0063 297.422 14.0038 297.543 14.0326C297.655 14.0589 297.777 14.0815 297.893 14.1065C298.105 14.0978 298.322 14.089 298.534 14.079C298.806 14.0652 298.957 14.0827 299.022 14.1529C299.061 14.1955 299.079 14.2343 299.174 14.2631C299.286 14.2982 299.407 14.297 299.572 14.2869C299.727 14.2782 299.84 14.2644 299.905 14.2193C299.931 14.2005 299.983 14.183 300.03 14.1679C300.069 14.1566 300.13 14.1391 300.164 14.1416C300.229 14.1466 300.316 14.1604 300.337 14.1767C300.549 14.3283 300.549 14.3296 300.766 14.3734C301.004 14.4223 301.25 14.4661 301.466 14.5212C301.661 14.5701 301.856 14.5488 302.068 14.5488C302.228 14.5488 302.332 14.5814 302.319 14.614C302.31 14.6328 302.249 14.6603 302.197 14.6628C301.773 14.6879 301.345 14.7092 300.917 14.7267C300.865 14.7292 300.8 14.7067 300.74 14.6954C300.619 14.6729 300.51 14.6378 300.381 14.6303C300.251 14.6227 300.099 14.6415 299.957 14.6478C299.814 14.6541 299.663 14.6704 299.533 14.6603C299.403 14.6503 299.299 14.614 299.178 14.5902C299.122 14.5789 299.044 14.5626 298.996 14.5664C298.681 14.5964 298.447 14.5551 298.222 14.5C298.175 14.4887 298.092 14.4812 298.032 14.4837C297.53 14.505 297.033 14.53 296.531 14.5538C296.328 14.5638 296.163 14.52 296.12 14.4461C296.098 14.4047 296.055 14.3634 296.055 14.322C296.055 14.2469 295.817 14.2055 295.644 14.2143C295.359 14.2268 295.069 14.2368 294.788 14.2556C294.558 14.2707 294.364 14.2556 294.208 14.2105C294.026 14.1591 293.819 14.1692 293.611 14.183C293.455 14.193 293.412 14.2343 293.421 14.3383C293.429 14.4223 293.356 14.4486 293.075 14.4624C292.72 14.4799 292.361 14.4974 292.002 14.5112C291.946 14.5137 291.881 14.4924 291.824 14.4812C291.703 14.4586 291.595 14.4223 291.465 14.4147C291.336 14.406 291.184 14.4248 291.042 14.4323C290.899 14.4386 290.747 14.4561 290.618 14.4473C290.488 14.4386 290.38 14.401 290.263 14.3772C290.207 14.3659 290.137 14.3496 290.081 14.3521C289.796 14.3621 289.51 14.3772 289.225 14.391C288.905 14.406 288.905 14.406 288.45 14.3283C288.243 14.2932 288.035 14.3208 287.832 14.3308C287.616 14.3408 287.412 14.3458 287.244 14.2957C287.131 14.2631 287.006 14.2431 286.872 14.2494C286.513 14.2644 286.158 14.2832 285.799 14.2982C285.738 14.3007 285.656 14.2945 285.609 14.2832C285.379 14.2306 285.154 14.1892 284.834 14.2155C284.557 14.2381 284.259 14.2393 283.982 14.2606C283.831 14.2719 283.761 14.312 283.792 14.3433C283.809 14.3596 283.9 14.3784 283.96 14.3784C284.099 14.3797 284.25 14.3609 284.38 14.3684C284.648 14.3834 284.782 14.4887 285.133 14.4599C285.34 14.4423 285.557 14.4361 285.773 14.431C285.829 14.4298 285.89 14.4536 285.95 14.4661C286.123 14.5 286.275 14.5438 286.526 14.5212C286.733 14.5037 286.954 14.4987 287.166 14.4887C287.503 14.4724 287.503 14.4736 287.94 14.5501C288.148 14.5864 288.355 14.5576 288.559 14.5488C288.71 14.5426 288.853 14.53 288.974 14.5476C289.16 14.5739 289.294 14.634 289.523 14.6303C289.74 14.6265 289.951 14.609 290.168 14.6027C290.302 14.5989 290.427 14.619 290.535 14.6528C290.648 14.6866 290.769 14.7017 290.916 14.6942C291.128 14.6841 291.344 14.6716 291.561 14.6653C291.621 14.6641 291.69 14.6754 291.747 14.6854C291.868 14.7079 291.984 14.7343 292.101 14.7581C292.313 14.7505 292.53 14.748 292.737 14.733C292.897 14.7217 293.01 14.7267 293.139 14.7518C293.304 14.7856 293.438 14.8458 293.706 14.817C293.84 14.8032 293.996 14.8069 294.13 14.7944C294.294 14.7781 294.407 14.7844 294.524 14.822C294.744 14.8934 295.021 14.8946 295.307 14.8671C295.618 14.837 295.852 14.8721 296.085 14.9272C296.332 14.9849 296.332 14.9836 296.522 15.1227C296.578 15.1628 296.738 15.1816 296.872 15.174C297.097 15.1615 297.292 15.1678 297.457 15.2154C297.63 15.2668 297.837 15.2605 298.049 15.2467C298.33 15.2279 298.611 15.2116 298.841 15.2843C298.953 15.3194 299.074 15.3281 299.226 15.3194C299.654 15.2968 300.087 15.2831 300.506 15.2555C300.761 15.238 300.908 15.278 301.081 15.3119C301.315 15.3582 301.57 15.3996 301.57 15.4986C301.57 15.5148 301.631 15.5336 301.683 15.5462C301.795 15.5725 301.916 15.595 302.033 15.6201C302.206 15.6577 302.375 15.689 302.613 15.669C302.82 15.6527 303.041 15.6477 303.253 15.6364C303.465 15.6251 303.66 15.6188 303.85 15.6664C304.07 15.7203 304.304 15.7717 304.555 15.8118C304.732 15.8406 304.966 15.7918 305.156 15.8306C305.273 15.8544 305.385 15.882 305.511 15.902C305.563 15.9108 305.645 15.9045 305.714 15.902C305.857 15.897 306.004 15.8932 306.142 15.8807C306.303 15.8669 306.424 15.8694 306.545 15.8983C306.657 15.9246 306.77 15.9609 306.899 15.9684C307.094 15.9797 307.31 15.9296 307.505 15.9872C307.604 16.016 307.73 16.0436 307.86 16.0524C307.99 16.0611 308.141 16.0423 308.279 16.0436C308.34 16.0436 308.413 16.0636 308.448 16.0799C308.47 16.0887 308.439 16.1125 308.409 16.125C308.37 16.1401 308.314 16.1601 308.258 16.1626C307.829 16.1852 307.401 16.204 306.973 16.2253C306.718 16.2378 306.718 16.2378 306.203 16.1589C306.082 16.1401 305.948 16.1438 305.796 16.1526C305.593 16.1639 305.385 16.1852 305.174 16.1626C304.897 16.0774 304.555 16.0699 304.192 16.1025C304.04 16.1163 303.902 16.1163 303.789 16.0925C303.551 16.0448 303.3 16.001 303.089 15.9446C302.924 15.9008 302.846 15.897 302.777 15.9571C302.755 15.9759 302.734 15.996 302.738 16.0135C302.764 16.0762 302.812 16.1376 302.838 16.2002C302.846 16.2177 302.812 16.2378 302.79 16.2566C302.721 16.3092 302.63 16.3055 302.479 16.2616C302.327 16.2177 302.146 16.1889 301.903 16.209C301.696 16.2265 301.471 16.224 301.263 16.2428C300.943 16.2704 300.718 16.2303 300.489 16.1764C300.441 16.1651 300.359 16.1589 300.298 16.1614C299.654 16.1902 299.014 16.2228 298.369 16.2516C298.231 16.2578 298.105 16.2391 297.997 16.2052C297.885 16.1714 297.759 16.1539 297.621 16.1601C297.05 16.1864 296.479 16.2102 295.908 16.2428C295.674 16.2566 295.488 16.2403 295.328 16.1964C295.207 16.1639 295.095 16.1539 294.943 16.1576C294.779 16.1614 294.662 16.1739 294.58 16.2102C294.502 16.2453 294.558 16.2666 294.731 16.2942C294.917 16.3242 295.09 16.3631 295.268 16.3982C295.41 16.3932 295.553 16.3831 295.692 16.3844C295.752 16.3844 295.808 16.4069 295.869 16.4195C296.042 16.4558 296.202 16.4922 296.449 16.4721C296.656 16.4546 296.877 16.4508 297.089 16.4395C297.383 16.4257 297.383 16.4257 297.859 16.5047C297.98 16.5247 298.11 16.5235 298.265 16.5122C298.399 16.5034 298.538 16.521 298.633 16.5585C298.672 16.5736 298.659 16.5987 298.577 16.6814C298.577 16.7427 298.668 16.7152 298.698 16.6751C298.746 16.6174 298.655 16.5987 298.482 16.63C298.361 16.6525 298.3 16.6851 298.33 16.7114C298.348 16.7252 298.43 16.7427 298.577 16.6814C298.958 16.6062 299.247 16.5974 299.524 16.5773C299.689 16.5661 299.792 16.5711 299.922 16.6037C300.078 16.6425 300.234 16.6839 300.489 16.6638C300.766 16.6413 301.06 16.6387 301.341 16.6199C301.6 16.6024 301.735 16.6575 301.899 16.6901C302.098 16.729 302.319 16.6851 302.5 16.7077C302.691 16.7302 302.825 16.7853 303.045 16.7954C303.365 16.7615 303.569 16.8242 303.811 16.8655C304.001 16.8969 304.226 16.8693 304.429 16.8555C304.659 16.8405 304.849 16.8543 305.009 16.8994C305.191 16.9507 305.394 16.9395 305.602 16.9282C306.086 16.9031 306.103 16.8994 306.385 16.9683C306.588 17.0184 306.783 16.9958 306.986 16.9896C307.163 17.0234 307.336 17.0597 307.522 17.0898C307.57 17.0973 307.661 17.0848 307.734 17.081C307.946 17.071 308.163 17.061 308.374 17.051C308.517 17.0447 308.669 17.0259 308.798 17.0334C308.928 17.0422 309.036 17.0785 309.153 17.1023C309.27 17.1261 309.391 17.15 309.504 17.175C309.677 17.2126 309.841 17.2439 310.083 17.2251C310.291 17.2088 310.507 17.2038 310.723 17.1926C310.996 17.1788 310.987 17.1825 311.493 17.2577C311.766 17.2991 312.047 17.2489 312.324 17.2439C312.462 17.2414 312.596 17.2552 312.691 17.2915C312.73 17.3066 312.717 17.3316 312.73 17.3529C312.017 17.3868 311.299 17.4156 310.593 17.4569C310.321 17.4732 310.178 17.4281 310.031 17.3905C309.789 17.3304 309.469 17.4181 309.24 17.3404C309.101 17.294 308.902 17.2677 308.664 17.2903C308.526 17.3028 308.379 17.3016 308.236 17.3128C307.873 17.3404 307.54 17.3417 307.25 17.2552C307.15 17.2251 307.008 17.2088 306.904 17.18C306.783 17.1487 306.666 17.1311 306.523 17.1374C305.879 17.1675 305.238 17.1976 304.598 17.2301C304.542 17.2326 304.486 17.2514 304.438 17.2652C304.317 17.3003 304.356 17.3279 304.551 17.3504C304.615 17.3579 304.667 17.3742 304.728 17.3867C304.845 17.4106 304.953 17.4482 305.083 17.4569C305.212 17.4657 305.364 17.4482 305.507 17.4419C305.649 17.4356 305.801 17.4168 305.931 17.4243C306.06 17.4331 306.168 17.4695 306.289 17.492C306.346 17.5033 306.415 17.5221 306.471 17.5208C306.757 17.5133 307.038 17.4995 307.323 17.4882C307.501 17.5221 307.652 17.5709 307.864 17.5822C307.998 17.5897 308.141 17.5759 308.279 17.5785C308.34 17.5797 308.418 17.5985 308.448 17.6148C308.465 17.6248 308.409 17.6499 308.366 17.6624C308.201 17.71 307.977 17.7012 307.773 17.7163C307.553 17.7326 307.354 17.7276 307.185 17.6787C307.072 17.6461 306.947 17.6286 306.809 17.6348C306.449 17.6511 306.095 17.6699 305.736 17.6837C305.675 17.6862 305.602 17.6749 305.545 17.6662C305.091 17.5897 305.091 17.5872 304.771 17.6035C304.3 17.6273 304.3 17.6273 303.984 17.5609C303.923 17.5484 303.858 17.5246 303.807 17.5258C303.305 17.5459 302.807 17.5659 302.31 17.5947C302.146 17.6035 302.033 17.6035 301.912 17.5709C301.808 17.5434 301.687 17.5121 301.557 17.5045C301.423 17.497 301.276 17.5158 301.133 17.5221C300.991 17.5283 300.839 17.5446 300.714 17.5346C300.584 17.5246 300.471 17.4895 300.359 17.4644C300.242 17.4381 300.117 17.4394 299.957 17.4494C299.464 17.4782 299.459 17.4745 298.97 17.3968C298.914 17.388 298.841 17.378 298.78 17.3805C298.421 17.3955 298.066 17.4143 297.707 17.4294C297.569 17.4356 297.435 17.4193 297.34 17.383C297.301 17.368 297.314 17.3429 297.288 17.294C297.258 17.2828 297.292 17.3028 297.301 17.3216C297.366 17.3191 297.444 17.3216 297.491 17.3116C297.612 17.2878 297.673 17.2564 297.642 17.2301C297.625 17.2163 297.543 17.1988 297.491 17.1988C297.396 17.1988 297.314 17.2264 297.288 17.294C297.015 17.3354 296.725 17.3442 296.444 17.3642C296.28 17.3767 296.176 17.3705 296.046 17.3379C295.891 17.2978 295.731 17.259 295.475 17.279C295.198 17.3016 294.904 17.3053 294.619 17.3229C294.29 17.3429 294.147 17.2301 293.871 17.2326C293.585 17.2351 293.3 17.2565 293.014 17.2715C292.763 17.284 292.763 17.284 292.244 17.2026C292.054 17.1725 291.829 17.2164 291.643 17.185C291.517 17.165 291.409 17.1349 291.288 17.1136C291.236 17.1048 291.154 17.1048 291.089 17.1073C290.73 17.1224 290.367 17.1324 290.021 17.16C289.627 17.1926 289.329 17.1575 289.047 17.0835C288.693 17.0973 288.334 17.1048 287.983 17.1286C287.728 17.1462 287.581 17.1048 287.408 17.071C287.347 17.0597 287.296 17.0409 287.231 17.0359C287.166 17.0309 287.088 17.0409 287.019 17.0447C286.733 17.0585 286.439 17.0648 286.162 17.0873C285.82 17.1161 285.691 17.0134 285.427 17.0008C285.249 17.0622 285.154 17.1462 284.804 17.1524C284.518 17.1575 284.233 17.1775 283.947 17.1913C283.805 17.1976 283.662 17.2051 283.519 17.2113C283.29 17.2226 283.182 17.2715 283.229 17.3467C283.255 17.388 283.277 17.4294 283.299 17.4707C283.342 17.5446 283.234 17.6073 283.052 17.6161C282.55 17.6399 282.053 17.6649 281.551 17.6862C281.417 17.6925 281.287 17.6712 281.179 17.6373C281.067 17.6035 280.941 17.5885 280.803 17.5947C280.301 17.6186 279.803 17.6436 279.302 17.6649C279.245 17.6674 279.172 17.6549 279.116 17.6449C278.995 17.6223 278.878 17.596 278.761 17.5722C278.476 17.5835 278.194 17.591 277.913 17.606C277.459 17.6286 277.459 17.6298 277.126 17.5609C277.065 17.5484 277.005 17.5246 276.949 17.5258C276.732 17.5309 276.52 17.5434 276.304 17.5547C275.668 17.5872 275.668 17.5872 275.482 17.5496C275.313 17.5146 275.162 17.472 274.907 17.492C274.63 17.5146 274.336 17.5221 274.05 17.5346C273.838 17.5434 273.626 17.5534 273.414 17.5559C273.358 17.5572 273.298 17.5334 273.237 17.5208C273.064 17.482 272.895 17.4507 272.657 17.472C272.519 17.4845 272.372 17.487 272.229 17.4933C271.857 17.5108 271.857 17.5108 271.247 17.4356C271.187 17.4281 271.113 17.4193 271.053 17.4231C270.551 17.4456 270.053 17.4707 269.552 17.492C269.491 17.4945 269.418 17.487 269.357 17.4807C268.674 17.4081 268.674 17.4081 267.947 17.4431C267.67 17.4557 267.661 17.4607 267.372 17.3943C267.242 17.3655 267.134 17.3517 266.982 17.3604C266.411 17.3905 265.836 17.4106 265.269 17.4457C265.014 17.4607 264.867 17.4231 264.694 17.3893C264.633 17.378 264.569 17.3529 264.517 17.3542C263.946 17.378 263.375 17.4068 262.804 17.4306C262.752 17.4331 262.687 17.4081 262.626 17.3968C262.509 17.3742 262.397 17.3404 262.267 17.3329C262.133 17.3254 261.986 17.3442 261.839 17.3504C261.48 17.3667 261.48 17.3655 261.065 17.2915C261.008 17.2815 260.935 17.2677 260.879 17.2702C260.308 17.2953 259.732 17.3166 259.166 17.3529C258.841 17.373 258.621 17.3366 258.391 17.284C258.344 17.2727 258.262 17.2677 258.201 17.2702C257.557 17.2991 256.916 17.3316 256.272 17.3604C256.138 17.3667 256.008 17.3454 255.9 17.3128C255.727 17.2615 255.524 17.2677 255.307 17.279C254.81 17.3053 254.805 17.3041 254.511 17.2439C254.451 17.2314 254.399 17.2151 254.334 17.2088C254.273 17.2026 254.196 17.2063 254.131 17.2088C253.845 17.2214 253.56 17.2351 253.274 17.2489C252.989 17.2627 252.699 17.2702 252.418 17.2915C252.072 17.3179 251.907 17.2364 251.665 17.1988C251.31 17.2151 250.947 17.2251 250.597 17.2514C250.328 17.2715 250.203 17.2164 250.026 17.1875C249.965 17.1775 249.9 17.1562 249.844 17.1587C249.199 17.1863 248.555 17.2164 247.915 17.2502C247.759 17.2577 247.655 17.2477 247.525 17.2176C247.236 17.1499 247.223 17.1525 246.738 17.1775C246.526 17.1888 246.323 17.1988 246.141 17.1474C245.981 17.1011 245.787 17.0898 245.557 17.1048C245.276 17.1236 244.986 17.1337 244.701 17.1462C244.415 17.16 244.13 17.1788 243.844 17.185C243.615 17.1913 243.477 17.1324 243.295 17.1023C243.239 17.0936 243.161 17.0923 243.096 17.0948C242.81 17.1061 242.516 17.1149 242.24 17.1362C241.902 17.1625 241.716 17.0936 241.478 17.0535C241.426 17.0447 241.34 17.0497 241.275 17.0535C240.773 17.076 240.276 17.1011 239.774 17.1249C239.596 17.0911 239.415 17.0585 239.237 17.0247C238.952 17.0372 238.666 17.051 238.381 17.0635C238.165 17.0735 237.944 17.0773 237.741 17.0961C237.477 17.1211 237.347 17.0622 237.17 17.0334C237.109 17.0234 237.044 17.0021 236.988 17.0046C236.629 17.0184 236.27 17.0334 235.915 17.0547C235.578 17.076 235.444 16.9633 235.167 16.9645C234.882 16.9658 234.587 16.9821 234.311 17.0046C233.99 17.0309 233.765 16.9908 233.536 16.9369C233.489 16.9257 233.406 16.9194 233.346 16.9219C232.987 16.9369 232.632 16.9557 232.273 16.9708C232.213 16.9733 232.139 16.967 232.079 16.9595C231.395 16.8856 231.395 16.8843 231.097 16.8994C230.885 16.9094 230.668 16.9219 230.452 16.9282C230.392 16.9307 230.318 16.9194 230.262 16.9094C229.812 16.833 229.812 16.8317 229.487 16.8467C229.202 16.8605 228.916 16.8743 228.631 16.8881C228.454 16.8542 228.272 16.8217 228.095 16.7878C227.74 16.8041 227.376 16.8167 227.026 16.8392C226.862 16.8492 226.754 16.8455 226.628 16.8142C226.472 16.7766 226.317 16.7327 226.057 16.754C225.78 16.7766 225.486 16.7791 225.205 16.7979C224.868 16.8204 224.729 16.7064 224.457 16.7077C224.171 16.7089 223.877 16.7252 223.6 16.7477C223.28 16.7741 223.055 16.734 222.826 16.6801C222.778 16.6688 222.696 16.6626 222.636 16.6651C221.848 16.7014 221.065 16.7377 220.278 16.7766C219.794 16.8004 219.794 16.8016 218.872 16.7327C218.807 16.7277 218.738 16.7227 218.673 16.7252C218.388 16.7365 218.094 16.7452 217.817 16.7665C217.479 16.7929 217.293 16.7252 217.055 16.6838C217.004 16.6751 216.921 16.6801 216.852 16.6826C216.636 16.6914 216.424 16.7027 216.208 16.7127C215.922 16.7265 215.637 16.7402 215.351 16.754C215.174 16.7214 214.992 16.6876 214.815 16.655C214.46 16.6713 214.097 16.6801 213.746 16.7064C213.478 16.7265 213.353 16.6738 213.175 16.6438C213.115 16.6337 213.05 16.6124 212.994 16.6137C212.349 16.6413 211.705 16.6701 211.064 16.7052C210.801 16.7202 210.679 16.6638 210.502 16.635C210.442 16.6262 210.372 16.6099 210.316 16.6124C209.888 16.63 209.46 16.6513 209.031 16.6726C208.789 16.6851 208.789 16.6851 208.261 16.6074C208.201 16.5986 208.132 16.5899 208.071 16.5924C206.713 16.655 205.359 16.7214 204.001 16.7841C203.862 16.7904 203.737 16.7716 203.629 16.7377C203.516 16.7039 203.391 16.6864 203.252 16.6926C202.681 16.7189 202.106 16.7427 201.539 16.7753C201.306 16.7891 201.12 16.7728 200.96 16.729C200.839 16.6964 200.726 16.6839 200.575 16.6914C200.289 16.7064 200.004 16.7189 199.718 16.7327C199.433 16.7465 199.147 16.7603 198.862 16.7741C198.576 16.7879 198.286 16.7954 198.005 16.8167C197.659 16.843 197.491 16.7653 197.253 16.7265C196.824 16.7453 196.396 16.764 195.972 16.7841C195.401 16.8104 194.83 16.8392 194.259 16.8643C194.207 16.8668 194.142 16.8442 194.082 16.833C193.905 16.8016 193.775 16.7578 193.511 16.7716C192.23 16.838 190.941 16.8944 189.657 16.9595C189.389 16.9733 189.272 16.9194 189.09 16.8906C189.03 16.8818 188.96 16.8643 188.904 16.8668C188.19 16.8981 187.477 16.9332 186.763 16.967C186.473 16.9808 186.473 16.9808 185.989 16.9031C185.932 16.8943 185.859 16.8831 185.798 16.8856C184.868 16.9282 183.943 16.9733 183.013 17.0171C182.874 17.0234 182.749 17.0059 182.636 16.972C182.528 16.9382 182.398 16.9194 182.264 16.9257C181.408 16.9658 180.547 17.0046 179.695 17.0485C179.465 17.061 179.275 17.0497 179.111 17.0046C178.994 16.972 178.877 16.9582 178.73 16.9658C177.445 17.0272 176.161 17.0861 174.876 17.1512C174.629 17.1637 174.456 17.1399 174.301 17.0986C174.175 17.066 174.067 17.0597 173.911 17.0647C173.747 17.071 173.648 17.0848 173.557 17.1224C173.44 17.1712 173.366 17.2326 173.089 17.2364C172.804 17.2402 172.514 17.2552 172.233 17.2765C171.965 17.2978 171.839 17.2414 171.671 17.2076C171.545 17.1838 171.428 17.18 171.268 17.1913C171.121 17.2013 171.03 17.2226 170.944 17.2627C170.754 17.3479 170.736 17.3479 170.503 17.294C170.377 17.2652 170.265 17.2427 170.126 17.2477C169.555 17.2727 168.984 17.3003 168.413 17.3291C168.085 17.3454 168.08 17.3479 167.834 17.2853C167.713 17.2539 167.596 17.2389 167.453 17.2464C165.883 17.3216 164.313 17.3943 162.743 17.4732C162.5 17.4857 162.336 17.4594 162.163 17.4218C162.107 17.4093 162.05 17.3918 161.986 17.3867C161.921 17.3817 161.847 17.3868 161.778 17.3893C160.636 17.4431 159.49 17.4945 158.352 17.5547C158.092 17.5684 157.954 17.5283 157.777 17.4958C157.716 17.4845 157.664 17.467 157.599 17.4619C157.534 17.4582 157.457 17.4669 157.387 17.4707C156.245 17.5246 155.099 17.576 153.961 17.6361C153.689 17.6499 153.572 17.5973 153.395 17.5697C153.334 17.5597 153.269 17.5409 153.213 17.5434C152.854 17.5572 152.499 17.5759 152.14 17.5922C151.284 17.6336 150.427 17.6724 149.571 17.715C149.242 17.7313 149.099 17.6198 148.822 17.6248C148.463 17.6311 148.109 17.6561 147.75 17.6737C147.464 17.6875 147.179 17.7 146.893 17.715C146.612 17.7288 146.612 17.7288 145.911 17.6561C145.851 17.6499 145.777 17.6411 145.717 17.6436C144.717 17.69 143.714 17.7363 142.719 17.7864C142.49 17.7977 142.299 17.7915 142.135 17.7451C142.018 17.7125 141.897 17.6962 141.754 17.7038C140.253 17.7752 138.757 17.8466 137.256 17.9168C137.199 17.9193 137.126 17.9067 137.07 17.8967C136.949 17.8742 136.832 17.8479 136.715 17.824C136.628 17.8529 136.516 17.8792 136.46 17.9117C136.382 17.9556 136.278 17.9681 136.114 17.9756C135.949 17.9832 135.846 17.9807 135.716 17.9481C135.56 17.908 135.4 17.8767 135.145 17.8892C133.575 17.9681 132.004 18.0395 130.434 18.1172C130.175 18.1298 130.054 18.0746 129.872 18.0458C129.811 18.037 129.742 18.0233 129.686 18.0258C129.041 18.0546 128.401 18.0859 127.757 18.116C125.97 18.2012 124.184 18.2826 122.401 18.3728C122.077 18.3891 121.856 18.3578 121.627 18.3039C121.58 18.2926 121.497 18.2864 121.437 18.2889C118.937 18.4067 116.436 18.5257 113.94 18.6447C113.806 18.651 113.677 18.6309 113.568 18.5984C113.456 18.5645 113.331 18.5482 113.192 18.5545C112.05 18.6084 110.908 18.6623 109.766 18.7174C109.481 18.7312 109.476 18.7324 109.182 18.6723C109.122 18.6598 109.057 18.636 109.009 18.6385C108.91 18.6447 108.815 18.676 108.745 18.7186C108.676 18.7637 108.568 18.7763 108.408 18.785C108.244 18.7938 108.135 18.7901 108.01 18.76C107.85 18.7224 107.703 18.6861 107.443 18.6986C104.16 18.859 100.877 19.0131 97.5937 19.1722C97.3299 19.1847 97.2087 19.1321 97.027 19.1033C96.9665 19.0945 96.906 19.082 96.8411 19.0795C96.7719 19.077 96.6983 19.0845 96.6291 19.0883C91.2739 19.3426 85.9188 19.5982 80.5637 19.8526C80.2436 19.8676 80.2479 19.8676 79.8975 19.9829C79.8542 19.9967 79.798 20.0154 79.7374 20.018C78.098 20.0981 76.4543 20.1758 74.8105 20.2535C74.0968 20.2873 73.3831 20.3224 72.6693 20.355C72.4141 20.3663 72.4141 20.3663 71.8042 20.5016C71.7523 20.5129 71.6917 20.5279 71.6311 20.5304C68.7762 20.667 65.9212 20.8036 63.062 20.9376C62.837 20.9477 62.6554 20.9702 62.5516 21.0303C62.478 21.0729 62.3829 21.098 62.2401 21.1055C60.2417 21.2007 58.2433 21.2972 56.2405 21.3899C56.0026 21.4012 55.8598 21.4363 55.743 21.4889C55.704 21.5065 55.6694 21.5265 55.6132 21.539C55.5613 21.5503 55.4834 21.5541 55.4186 21.5578C53.7056 21.6393 51.9927 21.7232 50.2754 21.8009C50.0202 21.8122 49.9163 21.8585 49.7909 21.9074C49.7476 21.9237 49.7173 21.9463 49.6611 21.9575C49.6048 21.9676 49.5227 21.9676 49.4535 21.9701C48.026 22.0377 46.5986 22.1066 45.1711 22.1743C44.8942 22.168 44.8337 22.2407 44.6996 22.2846C44.652 22.2996 44.6174 22.3196 44.5612 22.3297C44.5007 22.3397 44.4227 22.3384 44.3492 22.3409C43.2072 22.3948 42.0652 22.4524 40.9189 22.5026C40.6551 22.5138 40.6031 22.5777 40.4604 22.6216C40.4128 22.6354 40.3653 22.6567 40.3091 22.6604C39.5953 22.6968 38.8816 22.7306 38.1679 22.7632C37.93 22.7745 37.93 22.7732 37.5104 22.8972C37.4628 22.911 37.4065 22.9261 37.3459 22.9298C36.2775 22.9825 35.2048 23.0326 34.132 23.0839C33.9936 23.0902 33.8984 23.1203 33.8292 23.1629C33.76 23.2055 33.6605 23.233 33.5221 23.2393C32.6656 23.2807 31.8091 23.3232 30.9526 23.3608C30.7147 23.3709 30.559 23.4022 30.4552 23.4586C30.3773 23.5012 30.2822 23.5225 30.1308 23.53C29.2743 23.5701 28.4178 23.6139 27.557 23.649C27.3061 23.659 27.1763 23.7016 27.0725 23.7543C26.9903 23.7969 26.8951 23.8119 26.7351 23.8194C25.1649 23.8921 23.5904 23.9648 22.0245 24.0449C21.7606 24.0587 21.6265 24.0149 21.4535 23.9835C21.2069 23.9397 20.9777 23.8921 20.9777 23.7944C20.9777 23.7793 20.9042 23.7618 20.8522 23.7492C20.4673 23.6553 20.4673 23.6553 20.4067 23.555C20.3721 23.4937 20.3332 23.431 20.3029 23.3684C20.2466 23.2656 20.1082 23.2393 19.7102 23.2581C19.5675 23.2644 19.4247 23.2731 19.282 23.2781C19.07 23.2869 18.91 23.2456 18.8711 23.1704C18.8494 23.129 18.8235 23.0877 18.8019 23.0463C19.0182 23.0363 19.0138 23.0351 19.3944 22.8835C19.5545 22.8196 19.5546 22.8196 19.2474 22.7557C19.1307 22.7319 19.0182 22.7055 18.8927 22.683C18.8365 22.673 18.763 22.6667 18.7024 22.6692C18.3434 22.6842 17.9887 22.7018 17.634 22.7193C17.063 22.7469 17.0629 22.7469 16.4833 22.6191C16.4357 22.6091 16.3622 22.5903 16.3708 22.5802C16.4184 22.5339 16.5352 22.5138 16.6823 22.5088C16.8985 22.5013 17.1105 22.4888 17.3224 22.4788C17.4652 22.4725 17.6079 22.465 17.7507 22.4587C17.8848 22.4111 18.0233 22.3647 18.1487 22.3159C18.3477 22.2407 18.3476 22.2382 18.0751 22.1856C17.9021 22.1505 17.7161 22.1192 17.5387 22.0866C17.3268 22.0966 17.1105 22.1079 16.8985 22.1166C16.6303 22.1279 16.5222 22.1041 16.453 22.0227C16.3924 21.9513 16.466 21.8899 16.6736 21.8748C16.8856 21.8598 17.0846 21.8498 17.1928 21.7859C17.2966 21.7245 17.4782 21.7007 17.7032 21.6957C17.8459 21.6919 17.9886 21.6831 18.1314 21.6756C18.3174 21.6656 18.4169 21.6017 18.378 21.5303C18.3564 21.4839 18.3131 21.4451 18.1444 21.435C17.396 21.3912 17.3873 21.3924 17.0153 21.3072C16.9807 21.2997 16.9548 21.2772 16.9678 21.2659C16.9894 21.2471 17.037 21.2195 17.0889 21.2158C17.5864 21.1882 18.0838 21.1632 18.5813 21.1444C18.7457 21.1381 18.8668 21.1293 18.923 21.083C19.0009 21.0191 18.9663 20.9602 18.8149 20.9163C18.7673 20.9025 18.6894 20.885 18.6375 20.8863C18.0665 20.9088 17.4998 20.9376 16.9288 20.9602C16.8769 20.9627 16.7818 20.9414 16.7602 20.9251C16.7169 20.895 16.7818 20.8549 16.9332 20.8412C17.1322 20.8224 17.3355 20.8211 17.4696 20.7584C17.6556 20.6695 17.8848 20.5881 18.0924 20.5029C18.127 20.4878 18.1833 20.459 18.1704 20.4565C18.0622 20.4289 17.9368 20.4076 17.8243 20.3813C17.634 20.3375 17.6339 20.2761 17.6772 20.2172C17.7118 20.1696 17.8416 20.1508 18.0016 20.1508C18.0708 20.1508 18.1573 20.1508 18.2136 20.1395C18.3606 20.1119 18.4082 20.0768 18.3347 20.0505C18.2914 20.0355 18.2136 20.0142 18.1617 20.0167C17.236 20.0581 16.3059 20.0981 15.3846 20.1495C15.112 20.1646 14.9867 20.1169 14.8223 20.0831C14.6969 20.0568 14.58 20.0468 14.4243 20.0656C14.2772 20.0831 14.1345 20.0731 14.0437 20.0317C13.9701 19.9979 14.0999 19.9691 14.4503 19.9365C14.5151 19.9303 14.5886 19.9265 14.6362 19.914C15.138 19.7786 15.138 19.7774 15.484 19.7599C15.8214 19.7436 15.8215 19.7423 15.9989 19.6696C16.0811 19.6358 16.1718 19.602 16.2497 19.5669C16.28 19.5531 16.3319 19.528 16.3146 19.5205C16.2195 19.4817 16.0897 19.4729 15.9383 19.4817C15.6009 19.503 15.2029 19.4855 15.0256 19.6045C14.9564 19.6496 14.8482 19.6621 14.6925 19.6696C13.1266 19.7423 11.5607 19.82 9.99047 19.8902C9.73526 19.9014 9.61853 19.9478 9.51904 19.9992C9.43253 20.0418 9.33734 20.0543 9.17297 20.0618C9.00859 20.0693 8.87876 20.0731 8.7836 20.0317C8.72736 20.0067 8.77496 19.9716 8.90473 19.9365C9.09073 19.8864 9.05611 19.8238 8.99555 19.7649C8.95229 19.726 8.8182 19.6985 8.67545 19.701C8.4635 19.706 8.26025 19.7198 8.08289 19.6696C7.97908 19.6408 7.84928 19.6208 7.73249 19.5957C7.50756 19.5443 7.28261 19.4917 6.96684 19.5255C6.75056 19.513 6.59916 19.4679 6.42613 19.4328C6.13631 19.3752 6.11036 19.3664 6.31799 19.305C6.55158 19.2361 6.36986 19.1459 6.49963 19.0782C6.63806 19.0056 6.82845 18.9417 6.99715 18.874C7.04041 18.8565 7.07935 18.8402 7.12261 18.8226C7.02312 18.7976 6.9323 18.7663 6.8155 18.7487C6.66411 18.7262 6.58624 18.6986 6.59489 18.6209C6.56461 18.6096 6.5775 18.6385 6.61211 18.646C6.65104 18.6535 6.74627 18.6472 6.79386 18.6385C6.91497 18.6147 6.97547 18.5833 6.94519 18.557C6.92789 18.5432 6.84576 18.5257 6.79386 18.5257C6.69869 18.5257 6.61652 18.5533 6.59056 18.6209C6.10609 18.6723 5.60423 18.6974 5.10246 18.7174C5.05055 18.7199 4.9857 18.6948 4.92514 18.6823C4.72616 18.6397 4.72614 18.641 4.14217 18.6284C4.08161 18.6272 3.99947 18.6096 3.96919 18.5921C3.84374 18.5157 3.8481 18.4317 3.78754 18.3503C3.90001 18.2977 4.01239 18.2463 4.12918 18.1949C4.36277 18.0909 4.66563 17.9995 4.84731 17.8854C4.80838 17.824 4.75646 17.7626 4.94679 17.7125C5.4875 17.6499 5.48321 17.6499 5.63028 17.5897C6.04987 17.4193 6.46511 17.2477 6.902 17.0798C7.01879 17.0359 7.01881 17.0121 6.81117 16.9933C6.74629 16.9883 6.67699 16.9871 6.60778 16.9896C6.39149 16.9983 6.17521 17.0209 5.96326 17.0159C5.7513 17.0121 5.59558 16.957 5.42255 16.9232C5.2452 16.8881 5.06785 16.8517 4.8905 16.8154C4.6872 16.8192 4.48393 16.8543 4.28062 16.7979C4.1249 16.754 3.93026 16.7227 3.7529 16.6864C3.887 16.5911 4.13793 16.5185 4.33258 16.4345C4.50993 16.3581 4.51416 16.3593 4.98998 16.3004C5.21492 16.2729 5.29278 16.1313 5.10246 16.0899C4.8732 16.0398 4.63101 15.9935 4.39742 15.9459C4.19412 15.9496 3.98653 15.9835 3.79187 15.9271C3.64048 15.8845 3.46741 15.8556 3.21653 15.8719C2.79261 15.8995 2.36006 15.9133 1.93182 15.9358C1.78475 15.9434 1.62465 15.9383 1.55977 15.8957C1.51651 15.8657 1.64196 15.8243 1.78471 15.8156C2.00099 15.803 2.19562 15.788 2.30377 15.7253C2.40758 15.6627 2.59789 15.6439 2.82282 15.6351C2.88338 15.6326 2.95264 15.6176 2.98292 15.6025C3.13865 15.5299 3.31169 15.4672 3.64476 15.4697C3.78318 15.4447 3.85667 15.4134 3.81342 15.3833C3.78746 15.367 3.69667 15.3457 3.64476 15.3482C3.28573 15.3607 2.92672 15.3733 2.57634 15.3958C2.41196 15.4058 2.28645 15.4083 2.18263 15.3708C2.1091 15.3457 2.14803 15.3119 2.28645 15.2755C2.40756 15.2442 2.44221 15.2079 2.43356 15.1653C2.41193 15.0663 2.28213 15.0375 1.86687 15.0437C1.5684 15.0487 1.49486 15.0325 1.42997 14.9473C1.41267 14.9272 1.36949 14.8996 1.39977 14.8859C1.58577 14.8007 1.7069 14.6954 2.05728 14.6553C2.1957 14.6403 2.34271 14.6403 2.42923 14.6077C2.51574 14.5751 2.59364 14.5375 2.68448 14.5062C2.79695 14.4686 2.87473 14.4336 2.82282 14.4097C2.73631 14.3671 2.59794 14.3634 2.43789 14.3784C2.29947 14.391 2.1524 14.3922 2.00965 14.3997C1.75444 14.4135 1.54685 14.3809 1.51657 14.3258C1.43438 14.1805 1.34785 14.0364 1.27431 13.891C1.26566 13.8735 1.28723 13.8509 1.32183 13.8359C1.44295 13.7833 1.57277 13.7331 1.69822 13.6818C1.84529 13.6229 2.07891 13.6342 2.27789 13.6229C2.55906 13.6066 2.55896 13.6078 2.9353 13.4876C3.08237 13.4399 3.33759 13.4588 3.48899 13.4162C3.53657 13.4024 3.61011 13.3798 3.59713 13.3673C3.57983 13.351 3.49336 13.3385 3.42848 13.3309C3.36792 13.3234 3.2944 13.3197 3.22952 13.3234C2.44225 13.3598 1.65932 13.3986 0.872053 13.4337C0.737958 13.44 0.590881 13.4124 0.543299 13.3736C0.495717 13.3372 0.508651 13.2934 0.5 13.252C0.625444 13.2006 0.768136 13.153 0.876277 13.0979C0.958465 13.0553 1.05365 13.0365 1.21802 13.034C1.4343 13.0302 1.64628 13.0152 1.88852 13.0039C2.33839 12.821 2.77958 12.6293 3.26405 12.4464C3.4587 12.3724 3.4112 12.2973 3.45013 12.2183C3.48906 12.1456 3.77886 12.1569 3.97352 12.1356C4.12924 12.1181 4.18108 12.078 4.12052 12.0504C4.08592 12.0341 4.0081 12.0153 3.94754 12.0153C3.80479 12.0153 3.66205 12.0266 3.5193 12.0329C3.37655 12.0392 3.21219 12.0354 3.0954 12.0567C2.98293 12.0767 2.90935 12.1193 2.83581 12.1557C2.75363 12.1958 2.64556 12.2096 2.48119 12.2121C2.26923 12.2146 2.05728 12.2258 1.84533 12.2346C1.61174 12.1857 1.36945 12.1381 1.14452 12.0868C1.10126 12.0767 1.09256 12.0479 1.09689 12.0291C1.10554 11.9803 1.04067 11.9502 0.897927 11.9264C0.776808 11.9063 0.67731 11.8775 0.564843 11.8525C0.651356 11.8186 0.746554 11.7861 0.815765 11.7497C0.967163 11.6733 1.15751 11.6182 1.48626 11.6207C1.61603 11.5718 1.71982 11.5117 1.88852 11.4778C2.04857 11.4453 2.3211 11.4778 2.44222 11.4039C2.50278 11.3676 2.59367 11.3262 2.71046 11.3112C2.89646 11.2874 3.13869 11.2999 3.24684 11.2298C3.31172 11.1897 3.40685 11.1533 3.53229 11.1433C3.67504 11.132 3.82207 11.1295 3.92589 11.1057C3.98212 11.0932 4.04269 11.0731 4.04269 11.0556C4.04269 11.0443 3.95624 11.0268 3.89568 11.0193C3.83945 11.0105 3.76583 11.0042 3.70095 11.0067C3.48466 11.0142 3.27271 11.028 3.05643 11.0355C2.99587 11.038 2.92668 11.0293 2.86179 11.0218C2.67146 11.0017 2.68442 10.9767 2.83581 10.9316C2.98721 10.8877 3.09541 10.8313 3.22086 10.7799C3.35928 10.7712 3.53228 10.7749 3.62744 10.7511C3.78749 10.7123 3.89993 10.6559 4.0297 10.607C4.17245 10.5995 4.31951 10.597 4.45361 10.5832C4.50984 10.5782 4.53581 10.5506 4.5834 10.5344C4.66991 10.503 4.74351 10.4579 4.8603 10.4429C5.05063 10.4203 5.28421 10.4291 5.39668 10.3602C5.46156 10.3201 5.56101 10.2775 5.68213 10.275C6.01953 10.27 6.16228 10.2011 6.33531 10.1359C6.46508 10.087 6.74193 10.1121 6.88468 10.0632C6.97984 10.0319 7.04909 9.99308 7.14426 9.963C7.18319 9.95047 7.26535 9.94422 7.33023 9.94046C7.68494 9.92167 8.04395 9.90788 8.39866 9.88783C8.45489 9.88407 8.50684 9.86529 8.5501 9.85025C8.64094 9.81767 8.69711 9.77256 8.80957 9.75126C8.92204 9.72996 9.08207 9.72997 9.22049 9.7237C9.66603 9.70491 9.70067 9.70991 9.90398 9.60341C10.0684 9.51695 10.4707 9.57835 10.6048 9.48313C10.6826 9.428 10.8253 9.3829 11.0805 9.37663C11.4396 9.36786 11.7943 9.34405 12.1533 9.32776C12.4734 9.31273 12.4691 9.31272 12.8151 9.1962C12.9709 9.14357 13.2002 9.1511 13.4035 9.14108C13.6198 9.13105 13.8187 9.11602 13.9225 9.05338C14.0263 8.99198 14.2167 8.97192 14.4373 8.96315C14.6406 8.95438 14.8699 8.96065 15.0299 8.91054C15.4192 8.79025 15.4149 8.78899 15.6874 8.77646C16.1157 8.75641 16.5439 8.73637 16.9721 8.71507C17.2576 8.70129 17.5561 8.69878 17.8243 8.67122C18.0189 8.65117 18.1054 8.58101 18.2309 8.53214C18.5856 8.51335 18.9403 8.49455 19.295 8.477C19.7924 8.45195 20.2942 8.4294 20.796 8.40559C21.0122 8.35798 21.0426 8.25273 21.4059 8.24772C21.6222 8.24521 21.8342 8.22893 22.0505 8.2189C22.4095 8.20136 22.7642 8.17881 23.1232 8.17004C23.3957 8.16377 23.4432 8.09611 23.586 8.05351C23.6336 8.03847 23.6769 8.01718 23.7331 8.01342C24.2954 7.97834 24.875 7.97082 25.4244 7.91945C25.4806 7.91443 25.5325 7.88812 25.5455 7.86933C25.5542 7.8593 25.4806 7.84052 25.4331 7.83175C25.3768 7.82172 25.3033 7.8117 25.2428 7.8142C23.4563 7.89815 21.6698 7.98335 19.8833 8.0673C19.6324 8.07983 19.6324 8.07857 19.0225 8.2164C18.9706 8.22767 18.91 8.2402 18.8451 8.24396C18.5596 8.25899 18.2698 8.26777 17.9886 8.28657C17.7594 8.3016 17.5691 8.28656 17.4047 8.24145C17.2879 8.20887 17.1667 8.19886 17.0197 8.20136C16.8553 8.20512 16.7472 8.21891 16.6521 8.25274C16.5266 8.2991 16.4617 8.35923 16.1978 8.37176C14.9823 8.42564 13.7667 8.48578 12.5556 8.54341C12.3869 8.52587 12.3047 8.49956 12.3479 8.46824C12.3739 8.44945 12.4258 8.42439 12.4777 8.42188C12.9752 8.39557 13.4769 8.37302 13.9744 8.34796C14.0436 8.3442 14.1387 8.3467 14.1777 8.33417C14.368 8.27778 14.4373 8.18632 14.7963 8.18006C15.004 8.1763 15.2159 8.15751 15.4149 8.13997C15.4711 8.13496 15.523 8.10864 15.536 8.08985C15.5403 8.07982 15.4711 8.06102 15.4192 8.05225C15.2289 8.01592 15.0083 8.05978 14.818 8.03472C14.7531 8.02595 14.6622 8.01342 14.6492 7.99838C14.6406 7.9846 14.7141 7.96204 14.766 7.94826C14.8136 7.93573 14.8784 7.92446 14.9433 7.9207C15.5143 7.89188 16.0854 7.86181 16.6564 7.83926C16.89 7.83049 17.0543 7.79916 17.1581 7.74152C17.236 7.69892 17.3311 7.67638 17.4782 7.67011C18.4774 7.62375 19.4766 7.57238 20.4802 7.52978C20.7311 7.51976 20.8609 7.47841 20.9647 7.42454C21.0469 7.38194 21.1421 7.3669 21.3021 7.35938C22.7339 7.29423 24.157 7.22156 25.5888 7.15891C25.8527 7.14763 25.9306 7.09376 26.0647 7.0474C26.1123 7.03111 26.1425 7.01106 26.203 7.00104C26.2636 6.99101 26.3414 6.99226 26.415 6.98975C27.557 6.93587 28.699 6.87825 29.8453 6.82813C30.1135 6.81685 30.1653 6.7542 30.3038 6.71034C30.3513 6.69656 30.3946 6.67402 30.4509 6.67026C31.3073 6.62766 32.1638 6.58756 33.0203 6.54622C33.5913 6.51865 34.1622 6.49108 34.7332 6.46477C35.0144 6.45224 35.0144 6.45098 35.3951 6.33195C35.4383 6.31817 35.4989 6.30188 35.5552 6.29812C37.1989 6.21793 38.8383 6.14151 40.482 6.06258C40.6205 6.05631 40.7199 6.02748 40.7891 5.98488C40.8584 5.94228 40.9579 5.91346 41.092 5.9072C42.3767 5.84455 43.6614 5.78316 44.9505 5.72427C45.1841 5.71425 45.3484 5.68417 45.4522 5.62779C45.5301 5.58519 45.6252 5.56264 45.7723 5.55638C47.057 5.49624 48.3418 5.43233 49.6309 5.37469C49.8774 5.36342 49.9985 5.32082 50.1196 5.2707C50.1629 5.25316 50.1975 5.22434 50.2494 5.22184C50.8896 5.18675 51.5255 5.15042 52.17 5.12661C52.4382 5.11659 52.529 5.06396 52.6372 5.01384C52.7237 4.97375 52.8232 4.95997 52.9876 4.95496C53.3466 4.94368 53.7013 4.92239 54.0517 4.90109C54.1036 4.89733 54.1685 4.86976 54.1728 4.85222C54.1815 4.81964 54.0819 4.79709 53.9176 4.78581C52.2046 4.86725 50.4874 4.94869 48.7744 5.03013C48.4932 5.04391 48.4932 5.04392 48.1126 5.16295C48.0693 5.17673 48.0087 5.19302 47.9481 5.19678C46.3044 5.27572 44.665 5.3534 43.0213 5.43234C42.8828 5.4386 42.7834 5.46742 42.7141 5.51002C42.6449 5.55262 42.5454 5.58144 42.4113 5.5877C40.8411 5.66288 39.2709 5.73931 37.6963 5.81073C37.4628 5.82076 37.2984 5.84956 37.1946 5.9072C37.1167 5.9498 37.0216 5.97236 36.8745 5.97862C35.3735 6.04879 33.8768 6.12271 32.3714 6.19037C32.22 6.19663 32.1076 6.16029 32.1163 6.12646C32.1206 6.10892 32.1854 6.08012 32.2373 6.07761C33.0203 6.03626 33.7989 5.99366 34.5862 5.96234C34.8501 5.95231 34.9279 5.89718 35.062 5.85082C35.1052 5.83453 35.1399 5.81323 35.1961 5.80446C35.2567 5.79444 35.3345 5.7957 35.4081 5.79319C37.2638 5.70423 39.1195 5.61402 40.9796 5.53007C41.2477 5.51754 41.2996 5.45614 41.438 5.41229C41.4856 5.39725 41.5289 5.37471 41.5851 5.3722C42.1561 5.34213 42.7271 5.31581 43.298 5.2895C44.2973 5.24189 45.2965 5.19427 46.3 5.14666C46.5898 5.13288 46.5899 5.13287 46.9619 5.0151C47.0051 5.00131 47.0657 4.98378 47.122 4.98128C49.7649 4.85473 52.408 4.72818 55.0509 4.60288C55.1894 4.59662 55.2888 4.5678 55.358 4.5252C55.4272 4.48385 55.5267 4.45378 55.6608 4.44627C59.2338 4.27586 62.8025 4.10545 66.3755 3.93756C66.6091 3.92628 66.7734 3.89997 66.8772 3.84108C66.9508 3.79848 67.0502 3.77593 67.1973 3.76841C71.125 3.58172 75.0527 3.39504 78.9847 3.20709C81.6277 3.0818 84.2707 2.954 86.9137 2.83121C87.1559 2.81993 87.2857 2.78108 87.4068 2.72971C87.4457 2.71217 87.4847 2.68335 87.5366 2.68084C88.1032 2.64952 88.6699 2.62071 89.2365 2.59189C89.4139 2.62572 89.5912 2.6583 89.7686 2.69213C89.9027 2.64452 90.0325 2.59565 90.1666 2.54804C91.0231 2.5117 91.8666 2.45532 92.7317 2.43778C92.7879 2.43653 92.8484 2.46034 92.909 2.47286C93.3113 2.5518 93.5406 2.54553 93.7958 2.44029C93.8866 2.4027 93.9645 2.36887 94.1029 2.3626C94.5311 2.34005 94.9638 2.32501 95.3877 2.2987C95.617 2.28492 95.8072 2.29745 95.9716 2.34255C96.0884 2.37513 96.2096 2.38892 96.3523 2.3814C97.1396 2.34381 97.9225 2.30747 98.7098 2.26738C98.766 2.26487 98.8179 2.24357 98.8611 2.22853C98.952 2.19595 99.0299 2.16088 99.1164 2.12705C99.2332 2.14835 99.363 2.16464 99.4581 2.1922C99.5792 2.22478 99.6917 2.22477 99.856 2.216C102.996 2.0644 106.141 1.91655 109.282 1.76369C109.55 1.75116 109.667 1.80379 109.848 1.83135C109.909 1.84138 109.969 1.8539 110.034 1.85641C110.104 1.85891 110.177 1.8514 110.246 1.84764C112.604 1.73488 114.961 1.62336 117.319 1.51059C117.63 1.49555 117.63 1.49555 118.093 1.57324C118.149 1.58326 118.223 1.59454 118.283 1.59078C119.356 1.54192 120.429 1.4893 121.497 1.43918C121.636 1.43291 121.753 1.45296 121.878 1.48177C122.125 1.53816 122.142 1.53816 122.323 1.45547C122.41 1.41663 122.501 1.39281 122.644 1.38153C122.799 1.369 122.925 1.37278 123.046 1.39533C123.219 1.42665 123.344 1.47927 123.608 1.46549C124.75 1.4066 125.897 1.35774 127.034 1.29759C127.294 1.28381 127.432 1.32641 127.605 1.35773C127.666 1.36901 127.722 1.38655 127.787 1.39031C127.852 1.39407 127.93 1.38529 127.999 1.38153C129.426 1.31387 130.858 1.24748 132.281 1.17481C132.549 1.16102 132.666 1.21489 132.848 1.24246C132.908 1.25248 132.978 1.27003 133.034 1.26752C133.89 1.22868 134.751 1.18732 135.608 1.14598C135.915 1.13094 135.915 1.13219 136.382 1.20862C136.438 1.21865 136.512 1.22867 136.572 1.22617C137.572 1.17981 138.575 1.1322 139.574 1.08458C139.881 1.06955 139.881 1.06955 140.768 1.1347C140.833 1.13972 140.902 1.14724 140.967 1.14474C142.109 1.09086 143.255 1.03823 144.397 0.980594C144.627 0.969317 144.817 0.979338 144.981 1.02444C145.098 1.05702 145.219 1.07081 145.362 1.06329C146.647 1.0019 147.936 0.943012 149.216 0.877858C149.463 0.865329 149.623 0.892883 149.796 0.929218C149.852 0.941748 149.908 0.959293 149.973 0.964305C150.038 0.969316 150.112 0.964301 150.181 0.960542C151.466 0.899147 152.755 0.841514 154.035 0.775108C154.294 0.761325 154.433 0.803923 154.606 0.835247C154.667 0.846523 154.731 0.869078 154.783 0.867825C155.285 0.846525 155.787 0.827737 156.284 0.796413C156.552 0.778872 156.669 0.836497 156.851 0.864062C156.911 0.872833 156.981 0.891636 157.037 0.889131C158.11 0.840265 159.183 0.788898 160.251 0.736274C160.402 0.728756 160.515 0.740022 160.636 0.772599C160.796 0.816453 160.982 0.833995 161.216 0.820212C161.713 0.791394 162.215 0.771352 162.717 0.747546C163.011 0.733764 163.011 0.733768 163.91 0.798922C163.975 0.803933 164.045 0.811446 164.109 0.80894C164.966 0.768845 165.827 0.730006 166.679 0.686153C166.908 0.673623 167.098 0.684897 167.263 0.730003C167.38 0.76258 167.496 0.77637 167.643 0.768852C168.431 0.731263 169.214 0.693672 170.001 0.656083C170.286 0.642301 170.572 0.618488 170.857 0.618488C171.065 0.619741 171.217 0.679881 171.403 0.709952C171.454 0.718722 171.541 0.70871 171.61 0.706204C172.609 0.658592 173.613 0.614734 174.608 0.560858C174.867 0.547075 175.006 0.589673 175.179 0.620997C175.239 0.632273 175.304 0.654828 175.356 0.653575C175.715 0.639792 176.07 0.620996 176.429 0.604708C176.857 0.584661 177.29 0.569625 177.714 0.54206C178.06 0.519507 178.189 0.62851 178.466 0.632269C178.678 0.636028 178.894 0.614731 179.106 0.604708C179.535 0.584661 179.963 0.56211 180.391 0.544568C180.543 0.538304 180.659 0.518248 180.707 0.473142C180.716 0.464371 180.642 0.445585 180.595 0.434308C180.019 0.306507 180.019 0.306501 179.44 0.334066C179.08 0.351607 178.726 0.369151 178.367 0.384187C178.306 0.386693 178.237 0.37667 178.176 0.369152C178.003 0.347852 178.021 0.322795 178.168 0.277689C178.315 0.232583 178.427 0.177458 178.553 0.126087C178.73 0.158663 178.903 0.191228 179.081 0.223805C179.223 0.21754 179.366 0.210034 179.509 0.203769C180.223 0.171192 180.936 0.13736 181.65 0.107289C181.702 0.104783 181.767 0.129846 181.827 0.142376C182 0.178711 182.156 0.210026 182.407 0.196244C183.047 0.159908 183.692 0.133596 184.332 0.102272C184.613 0.08849 184.613 0.0884912 185.106 0.166174C185.162 0.174945 185.236 0.184969 185.296 0.182463C185.941 0.153645 186.581 0.122325 187.226 0.0922544C187.364 0.0859896 187.498 0.102277 187.598 0.138613C187.637 0.153648 187.628 0.178703 187.792 0.384187C188.303 0.55083 188.653 0.533297 189.008 0.518261C189.159 0.511997 189.293 0.505726 189.393 0.480667C189.445 0.466884 189.51 0.446834 189.51 0.430546C189.51 0.418016 189.415 0.397965 189.354 0.395459C188.926 0.3704 188.519 0.423031 188.099 0.434308C187.905 0.43932 187.736 0.395466 187.702 0.324048C187.693 0.304 187.68 0.282701 187.667 0.262654C187.654 0.242607 187.645 0.221308 187.632 0.201261C187.464 0.194996 187.364 0.217545 187.291 0.260146C187.23 0.295228 187.144 0.335323 187.027 0.354117C186.91 0.374164 186.75 0.370412 186.607 0.376677C186.469 0.382942 186.317 0.399228 186.188 0.390458C186.058 0.380434 185.954 0.344092 185.833 0.321539C185.777 0.310263 185.707 0.29398 185.651 0.296486C185.154 0.317786 184.661 0.339079 184.168 0.366644C183.908 0.381679 183.778 0.329063 183.614 0.296486C183.484 0.271427 183.354 0.277684 183.333 0.33532C183.276 0.473145 183.475 0.530777 183.917 0.504465C184.28 0.481912 184.609 0.478165 184.894 0.563366C184.933 0.574642 185.024 0.579652 185.08 0.577147C185.435 0.562111 185.785 0.543315 186.14 0.528279C186.205 0.525774 186.274 0.530777 186.335 0.535789C187.217 0.603449 187.217 0.604708 187.516 0.589673C187.658 0.582155 187.797 0.57589 187.784 0.385441C188.056 0.18121 188.489 0.16743 188.908 0.137359C189.181 0.118565 189.298 0.173697 189.475 0.202515C189.536 0.212538 189.601 0.232582 189.657 0.230076C190.587 0.188729 191.512 0.144869 192.438 0.09851C192.594 0.0909922 192.706 0.0985112 192.827 0.131088C192.983 0.172435 193.156 0.198753 193.403 0.183717C193.896 0.153647 194.398 0.134857 194.899 0.109798C195.155 0.097268 195.155 0.0972552 195.669 0.174938C195.726 0.183709 195.799 0.193733 195.86 0.191227C196.361 0.169927 196.859 0.143623 197.356 0.12107C197.495 0.114805 197.62 0.132345 197.728 0.166174C197.837 0.200004 197.966 0.217544 198.1 0.211279C198.602 0.188726 199.1 0.163675 199.597 0.141121C199.658 0.138615 199.731 0.147386 199.787 0.156156C200.315 0.233839 200.315 0.233826 200.557 0.221297C200.912 0.202503 201.275 0.193742 201.626 0.168683C201.968 0.143624 202.145 0.216289 202.378 0.256383C203.019 0.227565 203.663 0.203765 204.299 0.168683C204.559 0.153647 204.697 0.194991 204.87 0.227568C204.931 0.238844 204.991 0.262653 205.047 0.2614C205.264 0.256388 205.476 0.242608 205.688 0.232584C205.9 0.222561 206.116 0.212538 206.328 0.202515C206.57 0.23885 206.73 0.32405 207.076 0.295232C207.284 0.277691 207.504 0.273932 207.716 0.263908C207.928 0.253885 208.145 0.243862 208.357 0.233839C208.499 0.227574 208.646 0.22381 208.785 0.212533C209.04 0.193739 209.165 0.255141 209.347 0.282706C209.408 0.291476 209.477 0.306502 209.533 0.303996C209.961 0.286455 210.394 0.27142 210.814 0.242603C211.138 0.220049 211.359 0.257643 211.588 0.310267C211.635 0.321543 211.718 0.327808 211.778 0.325302C212.28 0.304002 212.777 0.277682 213.275 0.255129C213.409 0.248864 213.539 0.268911 213.647 0.301488C213.759 0.335317 213.885 0.351618 214.023 0.345353C214.521 0.3228 215.022 0.297734 215.52 0.275181C215.58 0.272675 215.654 0.2827 215.71 0.292724C216.195 0.370407 216.195 0.371661 216.48 0.356626C216.549 0.352867 216.623 0.350351 216.692 0.346592C217.047 0.329051 217.415 0.322795 217.761 0.292724C218.159 0.258894 218.448 0.301496 218.73 0.372915C219.084 0.357879 219.448 0.349107 219.794 0.324048C220.053 0.305253 220.192 0.352863 220.365 0.384187C220.425 0.395463 220.49 0.418017 220.542 0.415511C221.044 0.39421 221.545 0.375423 222.039 0.344099C222.307 0.326558 222.424 0.38293 222.605 0.411748C222.666 0.421772 222.731 0.439322 222.787 0.436816C223.072 0.426793 223.358 0.41175 223.644 0.397968C223.977 0.381679 223.976 0.382931 224.418 0.459361C224.625 0.495697 224.833 0.466877 225.036 0.458107C225.253 0.448083 225.456 0.440568 225.629 0.491939C225.737 0.524516 225.867 0.544564 226.001 0.539552C226.286 0.528275 226.576 0.517004 226.857 0.49821C227.082 0.483174 227.277 0.493193 227.441 0.539552C227.558 0.572129 227.679 0.588427 227.822 0.580909C228.462 0.550838 229.107 0.519503 229.747 0.490685C229.803 0.488179 229.881 0.49946 229.933 0.510736C230.054 0.533289 230.171 0.558343 230.288 0.583402C230.569 0.572125 230.859 0.567127 231.135 0.549585C231.43 0.532044 231.698 0.525777 231.927 0.59469C231.975 0.609725 232.044 0.631014 232.1 0.629761C232.316 0.624749 232.528 0.612223 232.74 0.602199C232.952 0.592176 233.169 0.582153 233.38 0.57213C233.627 0.603454 233.783 0.693665 234.129 0.664847C234.337 0.647306 234.557 0.643547 234.769 0.633523C234.981 0.6235 235.197 0.612224 235.409 0.603454C235.478 0.600948 235.556 0.594679 235.617 0.599691C235.682 0.604703 235.738 0.622248 235.794 0.634777C235.967 0.671113 236.127 0.707453 236.374 0.686153C236.582 0.668611 236.802 0.664851 237.014 0.653575C237.304 0.639792 237.304 0.639795 237.784 0.718731C237.979 0.751308 238.199 0.708709 238.385 0.736274C238.511 0.755068 238.619 0.786385 238.74 0.807686C238.792 0.816456 238.874 0.82021 238.935 0.817704C239.22 0.806427 239.51 0.795156 239.791 0.776362C240.02 0.761326 240.211 0.77636 240.371 0.821466C240.488 0.854043 240.604 0.867833 240.751 0.860315C241.465 0.825232 242.179 0.795152 242.888 0.75631C243.131 0.742528 243.325 0.763833 243.459 0.80894C243.689 0.886623 244.013 0.795159 244.251 0.857807C244.398 0.896648 244.545 0.941757 244.813 0.922963C245.306 0.890386 245.808 0.872835 246.306 0.850282C246.483 0.884111 246.66 0.917948 246.842 0.951778C247.127 0.937996 247.413 0.924205 247.698 0.911675C247.91 0.901652 248.127 0.890376 248.339 0.881606C248.408 0.8791 248.481 0.874087 248.546 0.880351C248.611 0.886616 248.663 0.902908 248.724 0.915438C249.022 0.976832 249.022 0.978091 249.515 0.953032C249.727 0.941756 249.931 0.934238 250.108 0.984356C250.272 1.03072 250.467 1.03948 250.692 1.0257C251.116 1.00064 251.544 0.981846 251.977 0.964305C252.111 0.95804 252.236 0.979341 252.349 1.01192C252.517 1.06329 252.725 1.05828 252.937 1.0445C253.218 1.02695 253.495 1.00942 253.733 1.07958C253.78 1.09462 253.854 1.11591 253.906 1.11465C254.26 1.10463 254.62 1.09712 254.966 1.07331C255.312 1.0495 255.48 1.12719 255.718 1.16477C256.073 1.14849 256.432 1.1322 256.787 1.11591C256.856 1.11215 256.938 1.10088 256.999 1.10714C257.254 1.13346 257.401 1.22742 257.751 1.19861C257.955 1.18232 258.175 1.17731 258.387 1.17355C258.443 1.1723 258.517 1.19359 258.556 1.20988C258.578 1.21865 258.556 1.24245 258.53 1.25498C258.452 1.29007 258.357 1.32265 258.288 1.35899C258.279 1.364 258.361 1.38654 258.409 1.39657C258.526 1.41912 258.66 1.41537 258.815 1.40535C258.949 1.39658 259.088 1.41412 259.183 1.45171C259.222 1.46674 259.209 1.4918 259.127 1.57449C259.127 1.63589 259.218 1.60832 259.248 1.56822C259.296 1.51059 259.205 1.49179 259.032 1.52312C258.911 1.54567 258.85 1.57825 258.88 1.60456C258.898 1.61834 258.98 1.63589 259.127 1.57449C259.507 1.49931 259.793 1.48554 260.079 1.47176C260.152 1.468 260.239 1.45546 260.29 1.46298C260.476 1.49305 260.65 1.52939 260.831 1.56322C261.039 1.5557 261.233 1.5369 261.437 1.58576C261.722 1.65468 261.735 1.64841 262.012 1.63463C262.155 1.62711 262.298 1.62086 262.44 1.6146C262.583 1.60833 262.695 1.62712 262.821 1.65594C263.076 1.71483 263.098 1.71482 263.266 1.63463C263.366 1.58577 263.435 1.56948 263.561 1.59204C263.976 1.66847 263.98 1.67347 264.335 1.65092C264.629 1.63213 264.906 1.62711 265.122 1.69853C265.269 1.74865 265.317 1.73738 265.434 1.68475C265.745 1.54567 265.888 1.54818 266.472 1.64841C266.744 1.69602 267.026 1.64466 267.302 1.63839C267.536 1.63338 267.7 1.66345 267.718 1.74238C267.731 1.79125 267.77 1.82634 267.925 1.84263C267.986 1.84889 268.059 1.85766 268.12 1.85515C268.479 1.84012 268.834 1.82257 269.193 1.80503C269.374 1.79626 269.474 1.73738 269.439 1.6597C269.4 1.577 269.469 1.54692 269.729 1.52312C269.885 1.50933 270.01 1.51185 270.136 1.5344C270.274 1.55946 270.235 1.58202 270.114 1.62712C269.824 1.73738 269.859 1.80503 270.231 1.88146C270.361 1.90777 270.464 1.93159 270.495 1.97043C270.512 1.99048 270.495 2.01679 270.534 2.03182C270.746 2.11577 271.04 2.16965 271.368 2.20975C271.684 2.17592 271.901 2.23229 272.143 2.2774C272.333 2.31248 272.558 2.28242 272.761 2.26989C272.991 2.2561 273.181 2.26612 273.345 2.31248C273.462 2.34506 273.583 2.36009 273.726 2.35383C274.011 2.34004 274.301 2.33128 274.582 2.31123C274.825 2.29369 275.006 2.31875 275.158 2.36135C275.348 2.41523 275.56 2.37889 275.759 2.3864C276.027 2.39517 276.161 2.50668 276.512 2.47661C276.719 2.45907 276.936 2.45281 277.152 2.4478C277.208 2.44654 277.277 2.46785 277.325 2.48288C277.554 2.5518 277.822 2.54803 278.117 2.52799C278.32 2.5142 278.519 2.50168 278.718 2.54929C279.046 2.62948 279.41 2.69965 279.756 2.77358C279.804 2.83121 279.769 2.89886 280.015 2.93269C280.145 2.95023 280.266 2.97655 280.366 3.00537C280.487 3.0392 280.599 3.04797 280.755 3.0392C281.036 3.02166 281.331 3.01789 281.607 2.99534C281.863 2.97529 282.023 3.01665 282.178 3.05549C282.304 3.08681 282.421 3.10184 282.572 3.07929C282.728 3.05799 282.84 3.07177 282.966 3.1056C283.143 3.15196 283.156 3.14695 283.744 3.16073C283.805 3.16199 283.878 3.18077 283.913 3.19706C283.93 3.20583 283.891 3.2309 283.861 3.24343C283.822 3.25847 283.761 3.276 283.705 3.27976C283.065 3.31234 282.421 3.34115 281.78 3.37373C281.715 3.37749 281.646 3.38627 281.599 3.3988C281.547 3.41258 281.482 3.43136 281.482 3.4489C281.482 3.46143 281.568 3.47647 281.629 3.48524C281.819 3.51406 282.044 3.47021 282.23 3.50279C282.356 3.52409 282.459 3.55415 282.585 3.5742C282.637 3.58297 282.719 3.58172 282.784 3.57922C283 3.57045 283.212 3.55792 283.428 3.5504C283.489 3.54915 283.558 3.56168 283.614 3.57171C284.03 3.64688 284.03 3.64688 284.389 3.63059C284.531 3.62433 284.683 3.60553 284.817 3.61305C284.947 3.62057 285.059 3.6544 285.176 3.6757C285.418 3.7208 285.647 3.76465 285.665 3.86239C285.673 3.89997 285.816 3.93254 285.959 3.93505C286.097 3.93756 286.244 3.92379 286.387 3.91627C286.725 3.90123 286.725 3.90123 287.161 3.97766C287.283 3.99896 287.412 4.00146 287.568 3.98893C287.629 3.98392 287.702 3.98894 287.767 3.99521C287.979 4.014 287.979 4.0378 287.841 4.08291C287.646 4.14931 287.663 4.15558 288.208 4.21196C288.416 4.23326 288.576 4.27336 288.749 4.30844C289.03 4.36483 289.026 4.36482 288.84 4.43874C288.797 4.45503 288.758 4.47257 288.714 4.49012C288.589 4.53898 288.489 4.5916 288.23 4.59661C287.944 4.60163 287.659 4.62168 287.373 4.63546C287.097 4.64924 287.023 4.6793 287.049 4.7645C287.079 4.86725 287.135 4.87853 287.633 4.87727C287.776 4.87727 287.901 4.88729 288.009 4.92112C287.957 4.96122 287.862 4.99254 287.724 5.00006C287.369 5.01886 287.01 5.03515 286.655 5.05144C286.37 5.06522 286.084 5.079 285.799 5.09278C285.622 5.10155 285.509 5.16671 285.557 5.23938C285.583 5.28073 285.604 5.32207 285.626 5.36342C285.673 5.44612 285.764 5.46742 286.054 5.46366C286.128 5.46241 286.197 5.45238 286.266 5.45488C286.547 5.46365 286.681 5.56765 287.019 5.54635C287.3 5.52881 287.594 5.52505 287.871 5.5025C288.126 5.48245 288.269 5.52757 288.446 5.5614C288.507 5.57267 288.572 5.59647 288.624 5.59521C288.983 5.58143 289.342 5.56766 289.692 5.54385C289.856 5.53383 289.956 5.54134 290.086 5.57141C290.397 5.64409 290.406 5.64033 290.869 5.61777C291.206 5.60023 291.21 5.60274 291.643 5.67917C291.764 5.70047 291.894 5.70046 292.049 5.69044C292.253 5.67791 292.465 5.65786 292.677 5.67666C292.742 5.68167 292.824 5.69671 292.845 5.713C292.858 5.72428 292.798 5.75184 292.746 5.76061C292.365 5.82577 291.92 5.81449 291.504 5.8408C291.375 5.84832 291.245 5.82451 291.137 5.79068C291.024 5.75685 290.903 5.74307 290.756 5.74934C290.471 5.76312 290.181 5.77189 289.9 5.79194C289.657 5.80948 289.489 5.78066 289.32 5.74181C289.264 5.72928 289.199 5.70547 289.143 5.70673C288.502 5.73179 287.858 5.75685 287.222 5.79194C286.967 5.80697 286.82 5.76688 286.647 5.73305C286.586 5.72177 286.526 5.69797 286.469 5.69922C286.253 5.70423 286.041 5.71801 285.825 5.72803C285.038 5.76562 284.255 5.80321 283.467 5.83829C283.415 5.8408 283.351 5.81448 283.29 5.80321C283.173 5.78065 283.052 5.75935 282.931 5.73805C282.715 5.74808 282.503 5.7606 282.286 5.76812C282.131 5.77313 281.992 5.79068 281.971 5.83829C281.958 5.86962 282.1 5.89843 282.252 5.89593C282.399 5.89342 282.546 5.87838 282.667 5.89467C283.268 5.97486 283.268 5.97612 283.645 5.95983C283.973 5.94479 283.939 5.93226 284.229 6.00117C284.354 6.03124 284.467 6.04879 284.609 6.04127C284.964 6.02373 285.323 6.00619 285.682 5.99115C285.738 5.98864 285.812 6.00118 285.868 6.0112C286.292 6.08638 286.292 6.08888 286.642 6.07009C287.101 6.04753 287.118 6.04127 287.425 6.1177C287.637 6.17032 287.832 6.13399 288.035 6.13148C288.269 6.18035 288.524 6.22421 288.736 6.27934C288.987 6.34449 289.251 6.3332 289.536 6.31441C289.748 6.30062 289.956 6.29561 290.129 6.34698C290.293 6.3946 290.492 6.39962 290.717 6.38709C290.92 6.37581 291.128 6.352 291.34 6.37956C291.396 6.38708 291.483 6.40588 291.478 6.41716C291.474 6.4347 291.418 6.45976 291.362 6.46728C290.964 6.51865 290.527 6.51739 290.107 6.5412C290.051 6.54496 289.977 6.53117 289.921 6.52115C289.8 6.49859 289.683 6.47229 289.566 6.44848C289.355 6.456 289.138 6.4585 288.931 6.47353C288.771 6.48481 288.649 6.48357 288.533 6.4535C288.424 6.42593 288.308 6.3921 288.178 6.38333C288.048 6.37456 287.897 6.39335 287.754 6.40087C287.611 6.40839 287.447 6.40462 287.335 6.42467C287.222 6.44471 287.153 6.48857 287.079 6.52366C286.997 6.5625 286.885 6.57503 286.72 6.57879C286.569 6.58255 286.448 6.57754 286.335 6.54245C286.288 6.52742 286.223 6.51614 286.158 6.50611C286.097 6.49734 286.028 6.48355 285.972 6.48606C285.327 6.51488 284.687 6.54621 284.043 6.57629C283.723 6.59132 283.727 6.59131 283.061 6.51739C283 6.51112 282.927 6.50235 282.866 6.50486C282.507 6.51989 282.152 6.53744 281.793 6.55498C281.43 6.57252 281.434 6.57001 280.816 6.49108C280.703 6.47604 280.539 6.49609 280.405 6.49359C280.124 6.48732 279.985 6.38208 279.656 6.40212C279.375 6.41966 279.081 6.42342 278.8 6.44597C278.545 6.46602 278.398 6.42217 278.225 6.38834C278.164 6.37707 278.099 6.352 278.047 6.35451C277.403 6.38208 276.763 6.4134 275.906 6.41716C275.694 6.41716 275.789 6.44347 275.928 6.45224C276.127 6.46603 276.192 6.43971 276.083 6.3896C276.006 6.35451 275.893 6.33696 275.802 6.34573C275.755 6.35074 275.694 6.37456 275.906 6.41716C276.131 6.46477 276.118 6.49108 276.157 6.50611C276.252 6.54245 276.386 6.55748 276.525 6.55247C276.741 6.5437 276.953 6.53117 277.169 6.52366C277.23 6.52115 277.303 6.52992 277.36 6.53994C277.835 6.61763 277.84 6.62264 278.346 6.59257C278.506 6.5838 278.623 6.5838 278.748 6.60761C278.921 6.64019 279.047 6.69531 279.31 6.67777C279.661 6.65396 280.02 6.64019 280.379 6.62641C280.435 6.6239 280.496 6.64645 280.56 6.65648C280.738 6.68655 280.868 6.74293 281.131 6.71912C281.335 6.70033 281.555 6.69531 281.772 6.69155C281.828 6.69029 281.914 6.71035 281.94 6.72663C281.992 6.75545 281.927 6.78929 281.78 6.8131C281.72 6.82312 281.638 6.82061 281.568 6.82437C281.283 6.83815 280.997 6.85318 280.712 6.86446C280.56 6.87072 280.418 6.88952 280.4 6.93588C280.387 6.96721 280.543 6.99476 280.69 6.99226C280.907 6.9885 281.123 6.97848 281.33 6.96219C281.698 6.93462 282.018 6.94214 282.317 7.02107C282.529 7.0762 282.516 7.05617 282.741 7.21905C282.797 7.2604 282.966 7.26415 283.113 7.26165C283.467 7.25538 283.632 7.27418 283.601 7.31302C283.562 7.36063 283.437 7.37566 283.277 7.38193C282.991 7.39195 282.706 7.40825 282.421 7.42203C282.351 7.42579 282.273 7.4333 282.209 7.43079C282.144 7.42829 282.083 7.41325 282.027 7.40198C281.906 7.37817 281.802 7.34183 281.672 7.33306C281.542 7.32429 281.391 7.34308 281.248 7.3506C281.106 7.35687 280.954 7.37566 280.824 7.36689C280.695 7.35812 280.586 7.32054 280.47 7.29799C280.413 7.28671 280.344 7.26916 280.288 7.27041C280.003 7.28043 279.717 7.29673 279.432 7.30926C279.081 7.32555 279.081 7.32555 278.657 7.24787C278.536 7.22531 278.411 7.22657 278.251 7.23659C277.905 7.25664 277.9 7.25287 277.269 7.1802C277.208 7.17268 277.135 7.16392 277.074 7.16768C276.429 7.19649 275.789 7.22781 275.149 7.25788C274.6 7.2842 274.6 7.28421 274.297 7.4095C274.072 7.50222 274.068 7.50221 274.288 7.54482C274.466 7.5799 274.626 7.63126 274.82 7.65006C275.002 7.6676 275.227 7.61122 275.426 7.66886C275.525 7.69767 275.655 7.729 275.781 7.73401C275.98 7.74028 276.192 7.70394 276.382 7.75907C276.477 7.78663 276.62 7.81546 276.741 7.81671C276.953 7.81922 277.169 7.79916 277.381 7.79039C277.446 7.78788 277.52 7.78789 277.58 7.79415C277.645 7.80167 277.701 7.81671 277.757 7.82924C277.93 7.87184 278.117 7.89188 278.341 7.87058C278.709 7.8355 279.038 7.85304 279.323 7.93323C279.362 7.9445 279.457 7.94576 279.518 7.94075C279.674 7.92822 279.808 7.92696 279.925 7.95077C279.972 7.96079 280.041 7.97833 280.033 7.9896C280.02 8.0084 279.968 8.03346 279.912 8.03973C279.505 8.08233 279.068 8.08734 278.649 8.1099C278.592 8.1124 278.523 8.09611 278.467 8.08483C278.346 8.06228 278.242 8.0247 278.112 8.01593C277.982 8.00716 277.831 8.02344 277.688 8.02971C277.546 8.03597 277.394 8.05477 277.264 8.04725C277.135 8.03848 277.013 8.00715 276.91 7.97959C276.789 7.94826 276.672 7.94451 276.512 7.95704C276.304 7.97333 276.088 7.97583 275.876 7.9846C275.759 7.9608 275.642 7.93447 275.521 7.91192C275.465 7.90065 275.396 7.88687 275.335 7.88812C275.05 7.89815 274.764 7.91317 274.479 7.92696C274.193 7.94074 274.193 7.94075 273.709 7.86307C273.652 7.8543 273.579 7.84428 273.518 7.84678C273.159 7.86182 272.805 7.8806 272.446 7.89563C272.307 7.9019 272.182 7.88436 272.069 7.85053C271.961 7.8167 271.831 7.7979 271.697 7.80417C271.126 7.83048 270.555 7.85555 269.984 7.88687C269.755 7.8994 269.56 7.88812 269.405 7.84302C269.223 7.79165 269.02 7.80418 268.808 7.8142C268.328 7.83926 268.323 7.838 268.016 7.7741C267.955 7.76157 267.895 7.73776 267.839 7.73901C267.341 7.75781 266.84 7.77535 266.346 7.80542C266.087 7.82171 265.948 7.77786 265.775 7.74528C265.715 7.73401 265.65 7.7102 265.598 7.71271C265.239 7.72649 264.88 7.73902 264.53 7.76408C264.179 7.78914 264.045 7.67262 263.781 7.67387C263.422 7.67513 263.067 7.70394 262.713 7.72149C262.427 7.73527 262.142 7.74905 261.856 7.76283C261.571 7.77661 261.285 7.78788 261 7.80417C260.848 7.81294 260.736 7.80166 260.611 7.77034C260.451 7.72899 260.26 7.69643 260.087 7.65884C259.823 7.60496 259.823 7.60495 259.503 7.61999C259.434 7.62375 259.36 7.62625 259.291 7.63001C258.768 7.65757 258.768 7.65508 258.102 7.57614C258.071 7.57238 257.993 7.58617 257.963 7.59619C257.872 7.62877 257.79 7.66384 257.708 7.69767C257.591 7.67762 257.449 7.66635 257.371 7.63753C257.15 7.55609 256.804 7.6676 256.579 7.58741C256.497 7.55734 256.354 7.53103 256.224 7.52351C256.09 7.51599 255.939 7.53354 255.8 7.54105C255.441 7.55985 255.441 7.5586 255.134 7.67011C254.979 7.72524 254.754 7.71521 254.55 7.72774C254.338 7.74152 254.135 7.74904 253.958 7.69767C253.798 7.65131 253.603 7.64004 253.374 7.65508C253.093 7.67387 252.803 7.68514 252.517 7.69642C252.457 7.69892 252.383 7.69266 252.323 7.68515C251.661 7.61122 251.661 7.60997 251.341 7.62626C251.198 7.63378 251.051 7.63627 250.912 7.64755C250.679 7.6676 250.502 7.64129 250.333 7.60119C250.277 7.58866 250.212 7.56487 250.155 7.56612C249.87 7.57239 249.589 7.58366 249.308 7.59494C249.091 7.60371 248.875 7.60872 248.667 7.62626C248.321 7.65508 248.153 7.57362 247.915 7.53604C247.56 7.55232 247.201 7.5636 246.846 7.58616C246.682 7.59618 246.574 7.59243 246.448 7.56236C246.288 7.52477 246.141 7.48217 245.882 7.50097C245.536 7.52602 245.172 7.5348 244.818 7.54983C244.58 7.51099 244.407 7.43204 244.065 7.46086C243.857 7.4784 243.637 7.48216 243.425 7.49219C243.139 7.50597 242.854 7.51851 242.568 7.53354C242.261 7.54858 242.265 7.54482 241.794 7.4709C241.521 7.42704 241.24 7.4759 240.963 7.48342C240.747 7.48969 240.639 7.54732 240.691 7.62124C240.743 7.69517 240.626 7.7528 240.427 7.76283C239.93 7.78663 239.428 7.81169 238.93 7.83299C238.87 7.83549 238.796 7.82672 238.74 7.81795C238.208 7.73901 238.208 7.74028 237.97 7.75156C237.615 7.77035 237.252 7.78036 236.902 7.80417C236.659 7.82046 236.482 7.79416 236.326 7.75156C236.205 7.71898 236.093 7.71146 235.937 7.71898C234.224 7.80293 232.511 7.88061 230.802 7.96706C230.547 7.97959 230.4 7.94326 230.227 7.90943C230.167 7.89815 230.11 7.87434 230.05 7.87434C229.907 7.87434 229.764 7.88562 229.621 7.89314C228.981 7.92321 228.341 7.95954 227.697 7.98209C227.424 7.99212 227.351 8.04976 227.234 8.09737C227.143 8.13371 227.039 8.14874 226.879 8.15375C226.723 8.15876 226.611 8.15249 226.49 8.11992C226.334 8.07732 226.157 8.051 225.914 8.06854C225.633 8.08859 225.348 8.09737 225.058 8.11115C224.911 8.11742 224.798 8.13997 224.751 8.18507C224.742 8.19259 224.833 8.21139 224.885 8.22267C225.058 8.26025 225.222 8.30411 225.417 8.33042C225.616 8.35673 225.832 8.32665 226.04 8.31913C226.113 8.31663 226.183 8.30911 226.252 8.31037C226.317 8.31162 226.395 8.31789 226.442 8.32916C226.667 8.38555 226.905 8.42439 227.216 8.39056C227.485 8.40685 227.623 8.51084 227.965 8.48328C228.172 8.46699 228.389 8.45947 228.605 8.45321C228.661 8.45195 228.722 8.47451 228.782 8.48578C228.955 8.51711 229.094 8.56722 229.353 8.54592C229.63 8.52337 229.924 8.51961 230.205 8.50207C230.361 8.49205 230.474 8.50082 230.595 8.5334C230.75 8.57474 230.928 8.60606 231.17 8.58601C231.378 8.56847 231.598 8.56471 231.81 8.55343C232.087 8.53965 232.087 8.54091 232.58 8.61859C232.637 8.62736 232.71 8.63738 232.771 8.63488C233.13 8.61984 233.484 8.60105 233.843 8.58601C233.982 8.57975 234.116 8.59603 234.211 8.63237C234.25 8.6474 234.237 8.67248 234.25 8.69378C233.536 8.72761 232.822 8.75642 232.113 8.79777C231.845 8.81406 231.724 8.76268 231.546 8.73387C231.486 8.72384 231.421 8.70254 231.365 8.70505C230.863 8.72635 230.366 8.7489 229.868 8.77646C229.712 8.78523 229.596 8.78022 229.479 8.74388C229.18 8.64741 228.817 8.70003 228.48 8.71381C228.22 8.72384 228.138 8.76269 228.168 8.84538C228.207 8.94311 228.363 8.97318 228.761 8.95564C228.903 8.94938 229.046 8.9406 229.189 8.93559C229.327 8.93058 229.453 8.94686 229.565 8.98069C229.673 9.01452 229.803 9.03206 229.937 9.02705C230.223 9.01578 230.513 9.00451 230.789 8.98571C231.019 8.97068 231.209 8.9832 231.369 9.02956C231.546 9.08093 231.754 9.06965 231.962 9.05838C232.446 9.03332 232.45 9.03458 232.753 9.09723C232.814 9.10975 232.874 9.13356 232.931 9.13231C233.428 9.11352 233.93 9.09723 234.419 9.06716C234.674 9.05212 234.821 9.09221 234.99 9.12479C235.05 9.13606 235.111 9.16112 235.167 9.15862C235.526 9.14484 235.885 9.13105 236.235 9.10724C236.4 9.09597 236.499 9.10348 236.633 9.13355C236.953 9.20747 236.962 9.20497 237.416 9.18116C237.555 9.17365 237.706 9.15987 237.836 9.16989C237.966 9.17991 238.07 9.21626 238.191 9.23881C238.247 9.24883 238.316 9.26261 238.377 9.2601C238.662 9.25008 238.948 9.23505 239.233 9.22127C239.501 9.20748 239.501 9.20874 240.003 9.28642C240.206 9.319 240.418 9.29143 240.622 9.28141C240.842 9.27013 241.041 9.27013 241.21 9.319C241.379 9.36787 241.582 9.36535 241.798 9.35533C242.002 9.3453 242.209 9.31775 242.417 9.35158C242.893 9.42926 242.893 9.4305 243.187 9.41546C243.615 9.39417 244.039 9.37412 244.472 9.35533C244.528 9.35282 244.601 9.36786 244.657 9.37789C244.779 9.40044 244.882 9.43802 245.012 9.44679C245.142 9.45681 245.293 9.44178 245.432 9.43426C245.877 9.41046 245.908 9.40169 246.206 9.48438C246.457 9.55204 246.768 9.45431 247.002 9.532C247.136 9.57585 247.318 9.61093 247.569 9.58963C247.776 9.57209 247.993 9.56707 248.209 9.55705C248.551 9.54076 248.551 9.54203 248.983 9.6172C249.039 9.62723 249.113 9.63975 249.169 9.63724C249.455 9.62722 249.745 9.61845 250.021 9.5959C250.346 9.56959 250.553 9.6172 250.796 9.66356C250.986 9.6999 251.211 9.66982 251.414 9.65729C251.635 9.64476 251.834 9.64851 251.998 9.69738C252.171 9.7475 252.374 9.74123 252.591 9.73121C252.794 9.72244 253.002 9.69362 253.209 9.7287C253.655 9.80639 253.655 9.80639 253.979 9.79135C254.265 9.77757 254.55 9.76254 254.836 9.75252C254.892 9.75001 254.961 9.76629 255.017 9.77757C255.139 9.80012 255.242 9.83772 255.372 9.84649C255.502 9.85526 255.653 9.83897 255.796 9.83271C255.939 9.82644 256.09 9.80765 256.22 9.81516C256.35 9.82268 256.471 9.85401 256.575 9.88157C256.696 9.91415 256.808 9.9179 256.973 9.90537C257.18 9.88908 257.397 9.88533 257.608 9.87656C257.725 9.90036 257.846 9.92417 257.959 9.95048C258.076 9.97804 258.201 9.97554 258.361 9.96677C258.893 9.9367 258.898 9.94046 259.343 10.0181C259.546 10.0532 259.758 10.0244 259.962 10.0156C260.178 10.0056 260.381 10.0006 260.55 10.0507C260.714 10.0983 260.918 10.1046 261.134 10.0896C261.272 10.0795 261.419 10.0733 261.562 10.0695C261.627 10.0683 261.705 10.0733 261.753 10.0833C261.982 10.1359 262.207 10.1835 262.522 10.1497C262.799 10.1597 262.938 10.2625 263.271 10.2424C263.552 10.2249 263.846 10.2211 264.123 10.1986C264.378 10.1785 264.56 10.2136 264.69 10.2575C264.923 10.3351 265.252 10.2299 265.486 10.3063C265.62 10.3502 265.793 10.3853 266.052 10.3665C266.338 10.3464 266.429 10.3727 266.511 10.4517C266.558 10.4968 266.55 10.5331 266.463 10.5682C266.377 10.6045 266.282 10.5983 266.143 10.5569C265.983 10.5106 265.793 10.5018 265.563 10.5118C265.339 10.5218 265.2 10.4567 265.014 10.4316C264.828 10.4053 264.608 10.4492 264.413 10.4153C263.954 10.3364 263.954 10.3364 263.643 10.3514C263.431 10.3615 263.21 10.3665 263.003 10.384C262.756 10.4053 262.596 10.3665 262.427 10.3314C262.367 10.3189 262.306 10.295 262.254 10.2963C261.757 10.3151 261.255 10.3326 260.762 10.364C260.502 10.3802 260.364 10.3351 260.191 10.3038C260.13 10.2925 260.065 10.27 260.014 10.2725C259.585 10.29 259.161 10.3126 258.733 10.3339C258.651 10.3677 258.56 10.4003 258.482 10.4366C258.4 10.4742 258.288 10.4905 258.123 10.4893C257.851 10.4893 257.583 10.5419 257.31 10.4755C257.029 10.4078 257.007 10.4116 256.735 10.4279C256.389 10.4492 256.021 10.4442 255.697 10.493C255.64 10.5018 255.58 10.5256 255.58 10.5431C255.575 10.5544 255.666 10.5707 255.723 10.5807C255.913 10.6108 256.133 10.5669 256.324 10.5983C256.449 10.6183 256.553 10.6484 256.678 10.6697C256.73 10.6784 256.808 10.6772 256.877 10.6759C256.951 10.6747 257.02 10.6659 257.089 10.6672C257.154 10.6684 257.224 10.6759 257.276 10.6872C257.513 10.7348 257.764 10.7787 257.976 10.8351C258.184 10.8902 258.378 10.8526 258.586 10.8501C259.417 10.9378 259.417 10.9391 259.975 10.9115C260.113 10.9052 260.256 10.8977 260.399 10.899C260.459 10.899 260.515 10.9215 260.576 10.934C260.749 10.9716 260.913 11.0055 261.156 10.9854C261.363 10.9679 261.584 10.9641 261.796 10.9528C262.081 10.9391 262.081 10.9391 262.566 11.018C262.687 11.038 262.817 11.0355 262.972 11.0255C263.106 11.0168 263.245 11.0355 263.34 11.0719C263.379 11.0869 263.366 11.112 263.379 11.1333C262.951 11.1533 262.518 11.1671 262.103 11.1972C261.835 11.216 261.714 11.1621 261.536 11.1333C261.476 11.1233 261.411 11.102 261.355 11.1045C260.931 11.1233 260.507 11.1445 260.083 11.1696C260.031 11.1721 259.966 11.2009 259.962 11.2185C259.953 11.251 260.061 11.2824 260.217 11.2811C260.424 11.2799 260.628 11.2586 260.814 11.3099C260.97 11.355 261.164 11.3751 261.393 11.355C261.532 11.3438 261.679 11.3438 261.817 11.3337C262.185 11.3037 262.518 11.3099 262.795 11.3951C263.007 11.4177 263.215 11.3964 263.418 11.3851C263.569 11.3763 263.716 11.3676 263.824 11.3914C264.054 11.4415 264.279 11.4916 264.594 11.4578C264.936 11.4929 265.196 11.5668 265.481 11.6269C265.615 11.6557 265.719 11.672 265.875 11.6533C265.94 11.6457 266.018 11.6457 266.087 11.642C266.23 11.6357 266.381 11.6169 266.511 11.6244C266.641 11.6332 266.749 11.6695 266.865 11.6921C266.922 11.7034 266.987 11.7222 267.043 11.7209C267.259 11.7146 267.471 11.7021 267.683 11.6921C267.895 11.6833 268.107 11.6745 268.319 11.6658C268.496 11.6984 268.678 11.7309 268.855 11.7635C269.141 11.7497 269.426 11.7359 269.707 11.7234C270.023 11.7084 270.023 11.7096 270.477 11.7873C270.681 11.8224 270.897 11.7998 271.092 11.7835C271.416 11.7572 271.632 11.8049 271.862 11.855C271.909 11.865 271.996 11.8713 272.052 11.8662C272.277 11.8487 272.471 11.8625 272.636 11.9088C272.753 11.9414 272.869 11.9565 273.012 11.9502C273.51 11.9264 274.007 11.9013 274.505 11.88C274.565 11.8775 274.634 11.8888 274.691 11.8988C275.132 11.9753 275.136 11.979 275.46 11.959C275.75 11.9414 276.019 11.9339 276.248 12.0028C276.295 12.0179 276.369 12.0392 276.421 12.0379C276.775 12.0254 277.135 12.0116 277.485 11.9903C277.645 11.9803 277.757 11.984 277.883 12.0128C278.043 12.0492 278.186 12.093 278.45 12.0768C279.181 12.0304 279.185 12.0379 280.05 12.1243C280.111 12.1306 280.193 12.1206 280.262 12.1156C280.409 12.1031 280.517 12.1206 280.647 12.1494C280.937 12.2146 280.945 12.2108 281.222 12.197C281.434 12.1858 281.655 12.1832 281.862 12.1645C282.183 12.1369 282.395 12.1858 282.632 12.2321C282.823 12.2685 283.043 12.2384 283.247 12.2271C283.467 12.2146 283.666 12.2183 283.831 12.2659C283.943 12.2985 284.064 12.3161 284.207 12.3098C284.704 12.2872 285.202 12.2622 285.699 12.2396C285.76 12.2371 285.833 12.2471 285.89 12.2559C286.383 12.3336 286.383 12.3374 286.872 12.3085C287.027 12.2998 287.157 12.2973 287.274 12.3236C287.386 12.3486 287.508 12.3724 287.624 12.3962C287.836 12.3875 288.053 12.385 288.26 12.3699C288.42 12.3587 288.533 12.3637 288.658 12.39C288.822 12.4238 288.961 12.4827 289.22 12.4539C289.355 12.4401 289.51 12.4439 289.644 12.4313C289.804 12.415 289.913 12.4251 290.038 12.4576C290.194 12.4965 290.354 12.5366 290.605 12.5165C290.881 12.494 291.176 12.4902 291.457 12.4727C291.612 12.4626 291.721 12.4727 291.846 12.5053C292.002 12.5466 292.179 12.5729 292.421 12.5566C292.915 12.5253 292.919 12.5316 293.399 12.6105C293.52 12.6305 293.65 12.628 293.806 12.618C293.94 12.6092 294.078 12.628 294.173 12.6644C294.264 12.7045 294.255 12.7295 294.264 12.7508ZM255.718 1.45045C255.575 1.45672 255.433 1.46423 255.225 1.35523C255.212 1.33643 255.221 1.31388 255.191 1.29759C255.121 1.26376 255.013 1.23996 254.883 1.2362C254.65 1.23119 254.369 1.27378 254.373 1.30636C254.377 1.33392 254.451 1.35773 254.594 1.38028C254.654 1.38905 254.702 1.40409 254.758 1.41411C254.922 1.44293 255.052 1.49932 255.29 1.4705C255.247 1.39282 255.268 1.43166 255.29 1.4705C255.268 1.51811 255.333 1.55195 255.489 1.56573C255.532 1.56949 255.597 1.56697 255.632 1.55946C255.766 1.53189 255.787 1.49431 255.688 1.39533C255.671 1.41162 255.684 1.44042 255.723 1.44794C255.761 1.45546 255.857 1.4492 255.904 1.44043C256.025 1.41663 256.086 1.3853 256.056 1.35899C256.038 1.34521 255.956 1.32766 255.904 1.32766C255.813 1.32766 255.731 1.35523 255.718 1.45045ZM290.695 15.9809C290.38 16.0047 290.016 15.996 289.701 16.0448C289.644 16.0536 289.588 16.0762 289.584 16.0937C289.579 16.105 289.666 16.1213 289.718 16.1301C289.835 16.1501 289.964 16.1438 290.116 16.1376C290.345 16.1288 290.479 16.1864 290.657 16.2152C290.713 16.224 290.786 16.2303 290.847 16.2278C291.197 16.2127 291.543 16.1965 291.894 16.1789C291.954 16.1752 292.019 16.1664 292.071 16.1551C292.244 16.1188 292.227 16.095 292.058 16.0674C291.872 16.0373 291.725 15.9872 291.535 15.9634C291.262 15.9296 290.985 15.9747 290.695 15.9809ZM266.13 16.8956C265.918 16.9056 265.71 16.9156 265.498 16.9257C265.429 16.9294 265.356 16.9307 265.291 16.9357C265.157 16.9445 265.057 16.9708 264.992 17.0121C265.092 17.0447 265.213 17.0635 265.347 17.0597C265.559 17.0522 265.767 17.0359 265.979 17.0322C266.208 17.0272 266.342 17.0835 266.519 17.1124C266.576 17.1211 266.645 17.1224 266.71 17.1236C267.03 17.1286 267.224 17.0635 267.164 16.972C267.121 16.9006 266.956 16.858 266.757 16.8668C266.55 16.8756 266.338 16.8856 266.13 16.8956ZM292.175 14.1291C292.227 14.1078 292.283 14.0927 292.309 14.0739C292.387 14.01 292.357 13.9624 292.214 13.9123C292.041 13.8509 291.829 13.8923 291.634 13.8985C291.587 13.8998 291.535 13.9261 291.509 13.9424C291.491 13.9537 291.491 13.9775 291.517 13.9837C291.729 14.0339 291.954 14.0802 292.175 14.1291ZM254.65 10.4279C254.442 10.4379 254.23 10.4454 254.023 10.4592C253.971 10.4629 253.923 10.4867 253.893 10.503C253.837 10.5331 253.897 10.5744 254.074 10.5782C254.278 10.5832 254.49 10.5619 254.702 10.5519C254.97 10.5394 255.13 10.493 255.03 10.4529C254.935 10.4141 254.806 10.4066 254.65 10.4279ZM26.9514 7.7503C27.0898 7.74404 27.2325 7.73902 27.3709 7.73025C27.5007 7.72148 27.6003 7.69391 27.6652 7.65257C27.557 7.61999 27.4359 7.60245 27.3018 7.60621C27.0898 7.61373 26.8822 7.62375 26.6746 7.63628C26.5448 7.6438 26.4194 7.67136 26.3891 7.71396C26.3588 7.74654 26.6486 7.76534 26.9514 7.7503ZM236.357 7.55734C236.413 7.56862 236.469 7.59117 236.525 7.59117C236.664 7.59117 236.806 7.58365 236.936 7.57112C236.992 7.56611 237.036 7.54356 237.062 7.52602C237.079 7.51474 237.075 7.4947 237.049 7.48468C236.923 7.42453 236.421 7.44583 236.339 7.51475C236.331 7.52728 236.352 7.54356 236.357 7.55734ZM222.709 0.696171C222.722 0.716218 222.726 0.736263 222.744 0.75631C222.778 0.793899 222.873 0.821469 223.012 0.840264C223.12 0.80894 223.176 0.773863 223.172 0.736274C223.168 0.716227 223.155 0.696167 223.137 0.676119C223.103 0.638531 223.008 0.610976 222.869 0.592181C222.761 0.622252 222.709 0.657329 222.709 0.696171ZM302.171 17.1136C302.133 17.1299 302.094 17.1462 302.05 17.1612C302.167 17.1976 302.275 17.2088 302.358 17.1888C302.409 17.1763 302.44 17.1575 302.479 17.1412C302.362 17.1048 302.258 17.0948 302.171 17.1136ZM299.481 17.284C299.537 17.2953 299.589 17.3103 299.65 17.3178C299.749 17.3304 299.84 17.3091 299.909 17.264C299.853 17.2527 299.801 17.2376 299.74 17.2301C299.641 17.2176 299.55 17.2389 299.481 17.284ZM301.185 17.0547C301.155 17.0848 301.216 17.1099 301.376 17.1312C301.415 17.1149 301.466 17.0998 301.492 17.0823C301.536 17.0535 301.462 17.0272 301.306 17.0071C301.263 17.0222 301.224 17.0384 301.185 17.0547ZM292.054 15.704C292.023 15.7341 292.084 15.7592 292.244 15.7805C292.283 15.7642 292.335 15.7491 292.361 15.7316C292.404 15.7028 292.331 15.6765 292.175 15.6564C292.132 15.6715 292.093 15.6878 292.054 15.704ZM279.613 6.83815C279.574 6.85444 279.535 6.87073 279.492 6.88576C279.609 6.9221 279.717 6.93337 279.799 6.91332C279.851 6.90079 279.881 6.882 279.92 6.86571C279.803 6.82937 279.7 6.81935 279.613 6.83815ZM267.696 2.13456C267.8 2.14333 267.886 2.12579 267.96 2.07944C267.904 2.06816 267.852 2.05312 267.791 2.0456C267.692 2.03307 267.601 2.05438 267.532 2.09949C267.588 2.11202 267.644 2.12328 267.696 2.13456ZM261.368 1.84012C261.329 1.85641 261.29 1.87269 261.246 1.88773C261.363 1.92407 261.471 1.93534 261.554 1.91529C261.605 1.90276 261.636 1.88397 261.675 1.86768C261.558 1.83134 261.454 1.82258 261.368 1.84012ZM218.453 0.694917C218.414 0.711205 218.375 0.727494 218.332 0.74253C218.448 0.778865 218.557 0.790138 218.639 0.770091C218.691 0.757561 218.721 0.738766 218.76 0.722478C218.643 0.686142 218.539 0.677375 218.453 0.694917ZM4.76937 10.8889C4.71314 10.8777 4.65695 10.8664 4.60505 10.8539C4.4796 10.8877 4.44068 10.919 4.50989 10.9428C4.55315 10.9579 4.61799 10.9666 4.67422 10.9779C4.80399 10.9441 4.83426 10.914 4.76937 10.8889Z" fill="#4F9CF9"/>
<path d="M29.8578 6.46454C29.3603 6.48835 28.8672 6.51841 28.3698 6.53344C28.1059 6.54096 28.0108 6.59484 27.9027 6.64496C27.8162 6.68505 27.7167 6.69758 27.5566 6.7051C26.207 6.76649 24.8617 6.83165 23.5164 6.89555C23.3477 6.87926 23.2655 6.85295 23.3045 6.82163C23.3261 6.80284 23.378 6.77652 23.4299 6.77402C24.3513 6.72766 25.2683 6.68004 26.194 6.6437C26.4578 6.63368 26.5314 6.57855 26.6655 6.53344C26.7088 6.51841 26.7434 6.49586 26.7996 6.48709C26.8559 6.47706 26.938 6.47832 27.0116 6.47581C28.4996 6.40439 29.9877 6.33424 31.4757 6.26282C31.6444 6.27911 31.7266 6.30541 31.6876 6.33674C31.666 6.35553 31.6141 6.38184 31.5622 6.38435C30.9912 6.41066 30.4244 6.43698 29.8578 6.46454Z" fill="#4F9CF9"/>
<path d="M302.228 13.1368C302.003 13.1518 301.718 13.1731 301.484 13.1004C301.372 13.0653 301.251 13.0541 301.104 13.0616C300.892 13.0741 300.675 13.0841 300.459 13.0917C300.403 13.0929 300.329 13.0791 300.273 13.0679C300.152 13.0453 300.048 13.0077 299.918 12.9977C299.789 12.9877 299.633 13.0152 299.499 13.009C299.321 13.0002 299.248 12.9664 299.295 12.935C299.321 12.9175 299.373 12.8924 299.43 12.8887C300.23 12.8423 300.234 12.8423 300.459 12.8874C300.632 12.9225 300.792 12.9613 301.039 12.94C301.246 12.9225 301.467 12.9187 301.679 12.9075C301.973 12.8924 301.973 12.8937 302.449 12.9726C302.57 12.9927 302.7 12.9914 302.855 12.9802C302.99 12.9714 303.119 12.9914 303.227 13.0253C303.158 13.0679 303.059 13.0954 302.925 13.1029C302.708 13.1155 302.496 13.1242 302.228 13.1368Z" fill="#4F9CF9"/>
<path d="M294.266 12.7508C294.811 12.7245 295.36 12.7019 295.905 12.6719C296.13 12.6593 296.307 12.6731 296.463 12.7157C296.632 12.7621 296.822 12.7583 297.03 12.7495C297.16 12.7445 297.285 12.7646 297.372 12.7996C297.406 12.8134 297.397 12.8385 297.41 12.8586C296.935 12.8811 296.454 12.9049 295.974 12.9249C295.918 12.9275 295.849 12.9149 295.797 12.9049C295.68 12.8836 295.581 12.846 295.455 12.8385C295.187 12.821 294.919 12.8548 294.646 12.861C294.517 12.8635 294.391 12.8448 294.305 12.8109C294.27 12.7946 294.279 12.7708 294.266 12.7508Z" fill="#4F9CF9"/>
<path d="M97.2959 1.97785C97.8626 1.95029 98.4292 1.92399 98.9959 1.89642C99.1646 1.91396 99.2425 1.93902 99.2079 1.97034C99.1862 1.98914 99.1343 2.01545 99.0824 2.01796C97.9491 2.07434 96.8158 2.12821 95.6868 2.18208C95.5181 2.16454 95.4403 2.13949 95.4749 2.10816C95.4965 2.08937 95.5484 2.06306 95.6003 2.06055C96.1627 2.03173 96.7293 2.00542 97.2959 1.97785Z" fill="#4F9CF9"/>
<path d="M9.97787 8.9409C9.72266 8.94341 9.45452 8.98976 9.16903 8.95468C9.11279 8.94842 9.03491 8.92836 9.03924 8.91709C9.04789 8.89829 9.0998 8.87448 9.15604 8.86696C9.4026 8.83564 9.70975 8.83188 9.83519 8.74418C9.89575 8.69907 10.0082 8.68404 10.1596 8.67527C10.3197 8.66525 10.4321 8.669 10.5575 8.69531C10.7219 8.72914 10.8604 8.79179 11.1199 8.75921C11.1329 8.77926 11.1631 8.80181 11.1501 8.82061C11.1371 8.8394 11.081 8.85694 11.0291 8.87073C10.9815 8.88326 10.9166 8.89453 10.856 8.89829C10.5705 8.91332 10.285 8.92586 9.97787 8.9409Z" fill="#4F9CF9"/>
<path d="M234.947 8.68883C235.159 8.67881 235.38 8.6738 235.587 8.65626C235.752 8.64247 235.856 8.65124 235.985 8.68131C236.206 8.73393 236.219 8.72893 236.76 8.73645C236.82 8.7377 236.894 8.75648 236.928 8.77277C236.95 8.78154 236.92 8.80536 236.894 8.81789C236.855 8.83418 236.799 8.85547 236.747 8.85547C236.405 8.85923 236.059 8.93316 235.726 8.84796C235.557 8.80536 235.371 8.7853 235.142 8.8041C235.003 8.81537 234.856 8.82039 234.714 8.8254C234.575 8.83041 234.433 8.81663 234.346 8.77904C234.221 8.72391 234.294 8.70262 234.519 8.70638C234.662 8.70888 234.805 8.6951 234.947 8.68883Z" fill="#4F9CF9"/>
<path d="M313.343 17.3255C313.616 17.3129 313.888 17.2979 314.165 17.2879C314.222 17.2854 314.291 17.2992 314.343 17.3079C314.55 17.3455 314.52 17.4094 314.529 17.4658C314.533 17.5247 314.053 17.5723 313.85 17.5322C313.625 17.4871 313.421 17.4357 313.11 17.4633C312.989 17.4733 312.846 17.4508 312.768 17.4144C312.651 17.3618 312.716 17.3405 312.937 17.3443C313.067 17.3468 313.205 17.333 313.343 17.3255Z" fill="#4F9CF9"/>
<path d="M176.014 0.271522C176.295 0.257739 176.576 0.236449 176.857 0.235196C177.022 0.233943 177.104 0.275283 177.065 0.305354C177.043 0.324148 176.991 0.350461 176.939 0.352967C176.377 0.383037 175.815 0.408101 175.252 0.435666C175.088 0.418124 175.006 0.391817 175.045 0.361746C175.066 0.342951 175.118 0.317892 175.17 0.314133C175.451 0.296592 175.732 0.285304 176.014 0.271522Z" fill="#4F9CF9"/>
<path d="M307.95 13.2472C308.222 13.2346 308.499 13.2158 308.772 13.2096C308.914 13.2071 309.027 13.2359 309.044 13.2684C309.053 13.2835 308.984 13.3098 308.927 13.3161C308.538 13.3587 308.118 13.3637 307.712 13.385C307.582 13.3912 307.444 13.3712 307.366 13.3361C307.249 13.2822 307.314 13.2622 307.535 13.266C307.673 13.2672 307.811 13.2534 307.95 13.2472Z" fill="#4F9CF9"/>
<path d="M242.092 8.85796C242.231 8.8517 242.373 8.83541 242.507 8.84042C242.65 8.84669 242.741 8.88302 242.784 8.91936C242.832 8.96071 242.827 8.99955 242.784 9.03463C242.715 9.09478 242.646 9.09227 242.486 9.05218C242.239 8.98953 242.222 8.99704 241.733 8.99955C241.677 8.99955 241.608 8.98075 241.564 8.96446C241.499 8.9394 241.534 8.90057 241.685 8.87802C241.798 8.86173 241.954 8.86423 242.092 8.85796Z" fill="#4F9CF9"/>
<path d="M297.815 12.8362C298.018 12.8262 298.221 12.8099 298.425 12.8099C298.567 12.8087 298.68 12.8375 298.693 12.8688C298.697 12.8838 298.632 12.9089 298.58 12.9164C298.334 12.9502 298.057 12.9527 297.789 12.964C297.663 12.969 297.525 12.949 297.447 12.9139C297.33 12.8613 297.4 12.8375 297.611 12.845C297.676 12.8475 297.746 12.84 297.815 12.8362Z" fill="#4F9CF9"/>
<path d="M265.818 11.2989C265.515 11.3139 265.23 11.2951 265.251 11.2626C265.281 11.22 265.407 11.1924 265.537 11.1849C265.744 11.1723 265.952 11.1623 266.164 11.1548C266.298 11.1498 266.419 11.1686 266.527 11.2012C266.462 11.2412 266.363 11.2701 266.233 11.2788C266.099 11.2876 265.956 11.2926 265.818 11.2989Z" fill="#4F9CF9"/>
<path d="M263.834 11.1383C264.038 11.1283 264.241 11.112 264.444 11.112C264.587 11.1108 264.699 11.1396 264.712 11.1709C264.717 11.186 264.652 11.211 264.6 11.2185C264.353 11.2524 264.076 11.2549 263.808 11.2661C263.683 11.2712 263.544 11.2511 263.467 11.216C263.35 11.1634 263.419 11.1396 263.631 11.1471C263.696 11.1496 263.765 11.1421 263.834 11.1383Z" fill="#4F9CF9"/>
<path d="M239.639 8.84805C239.842 8.83803 240.046 8.82173 240.249 8.82047C240.392 8.81922 240.504 8.84805 240.517 8.87937C240.521 8.89441 240.457 8.91822 240.405 8.92699C240.158 8.96082 239.881 8.96332 239.613 8.9746C239.488 8.97961 239.349 8.95956 239.271 8.92448C239.154 8.87185 239.224 8.84804 239.436 8.85556C239.5 8.85807 239.57 8.85056 239.639 8.84805Z" fill="#4F9CF9"/>
<path d="M238.502 8.7741C238.719 8.76408 238.788 8.75781 238.857 8.75781C238.987 8.75781 239.121 8.77285 239.199 8.80919C239.316 8.86181 239.246 8.87685 239.034 8.87936C238.762 8.88187 238.494 8.90818 238.221 8.91319C238.078 8.9157 237.966 8.88562 237.957 8.85429C237.953 8.83926 238.018 8.81295 238.07 8.80793C238.251 8.78914 238.45 8.77786 238.502 8.7741Z" fill="#4F9CF9"/>
<path d="M262.072 1.40288C261.934 1.40915 261.787 1.42669 261.657 1.42042C261.484 1.41165 261.415 1.37783 261.458 1.3465C261.484 1.32896 261.531 1.30391 261.583 1.30015C261.86 1.2826 262.141 1.27132 262.418 1.25879C262.583 1.27758 262.656 1.30389 262.613 1.33522C262.587 1.35276 262.539 1.37656 262.487 1.38158C262.353 1.39411 262.21 1.39662 262.072 1.40288Z" fill="#4F9CF9"/>
<path d="M94.1928 2.12556C94.3269 2.1243 94.448 2.14059 94.5518 2.17191C94.4869 2.21201 94.3918 2.23832 94.262 2.2496C94.1971 2.25461 94.1236 2.25836 94.0544 2.25961C93.9203 2.26212 93.7991 2.24458 93.6953 2.21326C93.7602 2.17316 93.8597 2.14685 93.9851 2.13557C94.05 2.13056 94.1236 2.12931 94.1928 2.12556Z" fill="#4F9CF9"/>
<path d="M306.473 13.2422C306.468 13.2059 306.732 13.1645 306.97 13.1658C307.096 13.1671 307.225 13.1846 307.299 13.2184C307.411 13.2698 307.346 13.2898 307.134 13.2861C307.005 13.2836 306.866 13.3049 306.737 13.3011C306.589 13.2999 306.503 13.2723 306.473 13.2422Z" fill="#4F9CF9"/>
<path d="M243.345 9.00958C243.341 8.9958 243.319 8.97952 243.332 8.96699C243.414 8.89807 243.912 8.87678 244.042 8.93692C244.063 8.94819 244.072 8.96698 244.055 8.97826C244.029 8.9958 243.981 9.01835 243.929 9.02336C243.795 9.03589 243.657 9.04216 243.518 9.04342C243.458 9.04342 243.401 9.02211 243.345 9.00958Z" fill="#4F9CF9"/>
<path d="M11.5173 8.74028C11.0068 8.76659 10.9982 8.76408 11.089 8.70143C11.1712 8.64505 11.3226 8.61122 11.5433 8.61122C11.6081 8.61122 11.6773 8.60872 11.7336 8.61373C11.7941 8.61999 11.8807 8.63251 11.8937 8.64755C11.9196 8.67636 11.846 8.70769 11.7162 8.72899C11.66 8.73901 11.5865 8.73652 11.5173 8.74028Z" fill="#4F9CF9"/>
<path d="M100.583 1.94931C100.431 1.97061 100.301 1.9631 100.206 1.92301C100.111 1.88291 100.263 1.8353 100.526 1.82402C100.596 1.82151 100.669 1.8115 100.734 1.81651C100.799 1.82027 100.864 1.83529 100.903 1.85033C100.972 1.87539 100.929 1.90922 100.79 1.93804C100.734 1.94932 100.652 1.94681 100.583 1.94931Z" fill="#4F9CF9"/>
<path d="M305.572 13.148C305.61 13.1317 305.649 13.1154 305.693 13.1004C305.853 13.1217 305.922 13.1468 305.879 13.1756C305.853 13.1931 305.801 13.2082 305.762 13.2244C305.602 13.2031 305.537 13.1768 305.572 13.148Z" fill="#4F9CF9"/>
<path d="M18.3691 23.0035C18.3691 22.9885 18.4297 22.9647 18.4773 22.9597C18.5681 22.9509 18.6805 22.9685 18.7584 23.0035C18.8665 23.0537 18.8017 23.08 18.6027 23.0662C18.4643 23.0562 18.3691 23.0311 18.3691 23.0035Z" fill="#4F9CF9"/>
<path d="M245.108 7.84306C245.164 7.85434 245.22 7.86562 245.272 7.87815C245.199 7.92451 245.108 7.94455 245.013 7.93202C244.952 7.9245 244.9 7.90946 244.844 7.89819C244.917 7.85183 245.004 7.83429 245.108 7.84306Z" fill="#4F9CF9"/>
<path d="M243.611 7.78638C243.697 7.76758 243.801 7.77762 243.922 7.81395C243.883 7.83024 243.849 7.84904 243.801 7.86157C243.719 7.88161 243.611 7.87158 243.494 7.83399C243.529 7.81896 243.568 7.80267 243.611 7.78638Z" fill="#4F9CF9"/>
<path d="M242.463 7.84167C242.519 7.85295 242.576 7.86423 242.627 7.87676C242.554 7.92312 242.467 7.94316 242.368 7.93063C242.307 7.92311 242.255 7.90807 242.199 7.89679C242.273 7.85044 242.359 7.83165 242.463 7.84167Z" fill="#4F9CF9"/>
<path d="M241.621 7.77538C241.685 7.80044 241.651 7.83051 241.525 7.86434C241.469 7.85306 241.404 7.8443 241.361 7.82927C241.292 7.80546 241.326 7.77413 241.456 7.7403C241.508 7.75282 241.564 7.76411 241.621 7.77538Z" fill="#4F9CF9"/>
</svg>
