<svg width="390" height="29" viewBox="0 0 390 29" fill="none" xmlns="http://www.w3.org/2000/svg">
<path d="M365.271 15.6903C364.739 15.7139 364.201 15.7301 363.679 15.7655C363.341 15.7876 363.195 15.7228 362.97 15.6889C362.894 15.6771 362.813 15.6534 362.744 15.6564C362.216 15.68 361.689 15.7065 361.162 15.7331C361.001 15.7906 360.899 15.8673 360.651 15.8953C360.409 15.9218 360.124 15.9218 359.855 15.9351C359.5 15.9513 359.145 15.9676 358.79 15.9823C358.613 15.9897 358.468 16.0177 358.408 16.0708C358.398 16.0796 358.516 16.1017 358.581 16.115C358.796 16.1593 359.005 16.2094 359.242 16.2433C359.468 16.2758 359.748 16.2227 359.99 16.264C360.533 16.3569 360.538 16.3554 360.953 16.3377C361.308 16.3215 361.663 16.3038 362.017 16.292C362.087 16.289 362.168 16.3111 362.243 16.3229C362.469 16.3554 362.615 16.4291 362.948 16.4011C363.201 16.379 363.48 16.3746 363.744 16.3628C363.965 16.4055 364.169 16.4542 364.406 16.4881C364.626 16.5205 364.691 16.5456 364.572 16.5884C364.465 16.6282 364.314 16.6444 364.115 16.6474C363.938 16.6489 363.76 16.6621 363.583 16.6695C363.491 16.6739 363.405 16.6769 363.319 16.6813C362.98 16.6975 362.98 16.6975 362.362 16.6031C362.12 16.5663 361.845 16.6179 361.614 16.5825C361.458 16.5589 361.324 16.5235 361.173 16.4984C361.108 16.4881 361.006 16.4866 360.926 16.4896C360.657 16.4999 360.388 16.5073 360.13 16.5265C359.947 16.5397 359.839 16.581 359.861 16.6223C359.866 16.6385 359.995 16.6621 360.07 16.6636C360.242 16.6666 360.425 16.6459 360.592 16.6562C360.753 16.6665 360.92 16.696 361.039 16.7285C361.281 16.7963 361.555 16.7359 361.786 16.7536C362.028 16.7727 362.227 16.8317 362.458 16.8671C362.518 16.876 362.631 16.8612 362.722 16.8568C362.986 16.8465 363.249 16.8376 363.513 16.8273C363.733 16.8701 363.97 16.9084 364.169 16.9571C364.529 17.0455 364.917 17.0794 365.384 17.0367C365.648 17.0131 365.906 17.0219 366.116 17.0794C366.331 17.1384 366.579 17.1325 366.853 17.1207C367.106 17.1089 367.364 17.0765 367.622 17.1178C368.181 17.2092 368.187 17.2136 368.848 17.1783C369.047 17.1679 369.198 17.165 369.348 17.1989C369.488 17.2299 369.639 17.2564 369.784 17.2859C370.048 17.2756 370.317 17.2653 370.58 17.2535C370.919 17.2372 371.107 17.2579 371.188 17.3405C371.236 17.3906 371.258 17.4363 371.376 17.4702C371.516 17.5115 371.667 17.51 371.871 17.4982C372.065 17.4879 372.204 17.4717 372.285 17.4186C372.317 17.3965 372.382 17.3759 372.441 17.3582C372.49 17.3449 372.565 17.3242 372.608 17.3272C372.689 17.3331 372.796 17.3493 372.823 17.3685C373.087 17.5469 373.087 17.5484 373.355 17.6C373.651 17.6575 373.958 17.7091 374.227 17.774C374.469 17.8315 374.711 17.8065 374.974 17.8065C375.173 17.8065 375.303 17.8448 375.286 17.8831C375.276 17.9053 375.2 17.9377 375.136 17.9406C374.609 17.9701 374.076 17.9952 373.544 18.0159C373.479 18.0188 373.399 17.9923 373.323 17.979C373.173 17.9524 373.038 17.9111 372.877 17.9023C372.715 17.8935 372.527 17.9156 372.35 17.9229C372.172 17.9303 371.984 17.9495 371.823 17.9377C371.661 17.9259 371.532 17.8831 371.382 17.8551C371.312 17.8418 371.215 17.8227 371.156 17.8271C370.763 17.8625 370.473 17.8138 370.193 17.7489C370.134 17.7357 370.032 17.7268 369.956 17.7298C369.332 17.7548 368.714 17.7843 368.09 17.8123C367.837 17.8241 367.633 17.7725 367.579 17.6855C367.552 17.6369 367.498 17.5882 367.498 17.5395C367.498 17.4511 367.202 17.4024 366.987 17.4127C366.632 17.4275 366.272 17.4393 365.922 17.4614C365.637 17.4791 365.395 17.4614 365.202 17.4083C364.976 17.3478 364.718 17.3596 364.459 17.3759C364.266 17.3877 364.212 17.4363 364.223 17.5587C364.233 17.6575 364.142 17.6885 363.792 17.7047C363.351 17.7253 362.905 17.746 362.458 17.7622C362.389 17.7652 362.308 17.7401 362.238 17.7268C362.087 17.7003 361.953 17.6575 361.792 17.6487C361.63 17.6383 361.442 17.6605 361.264 17.6693C361.087 17.6767 360.899 17.6973 360.737 17.687C360.576 17.6767 360.441 17.6325 360.296 17.6044C360.226 17.5912 360.14 17.572 360.07 17.5749C359.715 17.5867 359.36 17.6044 359.005 17.6207C358.607 17.6384 358.607 17.6384 358.043 17.5469C357.784 17.5056 357.526 17.5381 357.274 17.5499C357.005 17.5617 356.752 17.5676 356.542 17.5086C356.402 17.4702 356.246 17.4466 356.079 17.454C355.633 17.4717 355.192 17.4938 354.746 17.5115C354.67 17.5145 354.568 17.5071 354.509 17.4938C354.224 17.4319 353.944 17.3832 353.546 17.4142C353.202 17.4407 352.831 17.4422 352.487 17.4673C352.298 17.4806 352.212 17.5278 352.25 17.5646C352.271 17.5838 352.384 17.6059 352.46 17.6059C352.632 17.6074 352.82 17.5853 352.981 17.5941C353.315 17.6118 353.482 17.7357 353.917 17.7017C354.175 17.6811 354.444 17.6737 354.713 17.6678C354.783 17.6664 354.858 17.6944 354.934 17.7091C355.149 17.7489 355.337 17.8006 355.649 17.774C355.907 17.7534 356.182 17.7475 356.445 17.7357C356.865 17.7165 356.865 17.718 357.408 17.8079C357.666 17.8507 357.924 17.8168 358.177 17.8065C358.365 17.7991 358.543 17.7843 358.693 17.805C358.925 17.836 359.091 17.9067 359.377 17.9023C359.645 17.8979 359.909 17.8772 360.178 17.8699C360.345 17.8654 360.501 17.889 360.635 17.9289C360.775 17.9687 360.926 17.9864 361.108 17.9775C361.372 17.9657 361.641 17.951 361.91 17.9436C361.985 17.9421 362.071 17.9554 362.141 17.9672C362.292 17.9937 362.437 18.0247 362.582 18.0527C362.846 18.0439 363.115 18.0409 363.373 18.0232C363.572 18.01 363.712 18.0159 363.873 18.0454C364.077 18.0852 364.244 18.156 364.578 18.122C364.744 18.1058 364.938 18.1102 365.105 18.0955C365.309 18.0763 365.449 18.0837 365.594 18.1279C365.869 18.212 366.213 18.2135 366.568 18.181C366.955 18.1456 367.245 18.1869 367.536 18.2518C367.843 18.3196 367.843 18.3182 368.079 18.4819C368.149 18.529 368.348 18.5512 368.515 18.5423C368.794 18.5276 369.037 18.5349 369.241 18.591C369.456 18.6514 369.714 18.6441 369.978 18.6278C370.327 18.6057 370.677 18.5866 370.962 18.6721C371.102 18.7134 371.253 18.7237 371.441 18.7134C371.973 18.6868 372.511 18.6706 373.033 18.6382C373.35 18.6175 373.533 18.6647 373.748 18.7045C374.039 18.7591 374.356 18.8078 374.356 18.9242C374.356 18.9434 374.431 18.9655 374.496 18.9803C374.636 19.0113 374.786 19.0378 374.932 19.0673C375.147 19.1115 375.356 19.1484 375.652 19.1248C375.91 19.1056 376.185 19.0997 376.448 19.0865C376.712 19.0732 376.954 19.0658 377.19 19.1218C377.465 19.1853 377.755 19.2457 378.067 19.2929C378.288 19.3268 378.578 19.2693 378.815 19.315C378.96 19.3431 379.1 19.3755 379.256 19.3991C379.32 19.4094 379.423 19.402 379.509 19.3991C379.686 19.3932 379.869 19.3888 380.041 19.374C380.24 19.3578 380.391 19.3608 380.541 19.3947C380.681 19.4256 380.821 19.4684 380.982 19.4772C381.224 19.4905 381.493 19.4315 381.735 19.4994C381.859 19.5333 382.015 19.5657 382.176 19.5761C382.338 19.5864 382.526 19.5642 382.698 19.5657C382.773 19.5657 382.865 19.5893 382.908 19.6085C382.935 19.6188 382.897 19.6468 382.86 19.6616C382.811 19.6793 382.741 19.7029 382.671 19.7058C382.139 19.7324 381.606 19.7545 381.074 19.7796C380.757 19.7943 380.756 19.7943 380.116 19.7014C379.966 19.6793 379.799 19.6837 379.611 19.694C379.358 19.7073 379.1 19.7324 378.836 19.7058C378.492 19.6056 378.067 19.5967 377.615 19.635C377.427 19.6513 377.255 19.6513 377.115 19.6232C376.819 19.5672 376.507 19.5156 376.244 19.4492C376.039 19.3976 375.943 19.3932 375.857 19.464C375.83 19.4861 375.803 19.5097 375.808 19.5303C375.84 19.6041 375.9 19.6763 375.932 19.7501C375.943 19.7707 375.9 19.7943 375.873 19.8164C375.787 19.8784 375.674 19.8739 375.486 19.8223C375.297 19.7707 375.071 19.7368 374.77 19.7604C374.512 19.781 374.232 19.7781 373.974 19.8002C373.576 19.8327 373.296 19.7855 373.011 19.722C372.952 19.7088 372.85 19.7014 372.775 19.7044C371.973 19.7383 371.177 19.7766 370.376 19.8105C370.204 19.8179 370.048 19.7958 369.913 19.756C369.773 19.7161 369.617 19.6955 369.445 19.7029C368.735 19.7338 368.025 19.7619 367.315 19.8002C367.025 19.8164 366.794 19.7972 366.595 19.7456C366.444 19.7073 366.304 19.6955 366.116 19.6999C365.912 19.7043 365.766 19.7191 365.664 19.7619C365.567 19.8032 365.637 19.8282 365.852 19.8607C366.084 19.896 366.299 19.9418 366.519 19.9831C366.697 19.9772 366.874 19.9654 367.046 19.9668C367.122 19.9668 367.192 19.9934 367.267 20.0081C367.482 20.0509 367.681 20.0937 367.988 20.0701C368.246 20.0494 368.52 20.045 368.784 20.0317C369.149 20.0155 369.149 20.0155 369.741 20.1084C369.892 20.132 370.053 20.1305 370.247 20.1172C370.413 20.1069 370.586 20.1276 370.704 20.1718C370.752 20.1895 370.736 20.219 370.634 20.3163C370.634 20.3886 370.747 20.3561 370.785 20.309C370.844 20.2411 370.731 20.219 370.516 20.2559C370.365 20.2824 370.29 20.3208 370.327 20.3517C370.349 20.368 370.451 20.3886 370.634 20.3163C371.107 20.2279 371.468 20.2175 371.812 20.1939C372.016 20.1807 372.145 20.1866 372.307 20.2249C372.5 20.2706 372.694 20.3193 373.011 20.2957C373.356 20.2691 373.721 20.2662 374.071 20.2441C374.394 20.2234 374.56 20.2883 374.765 20.3267C375.012 20.3724 375.286 20.3208 375.512 20.3473C375.749 20.3738 375.916 20.4387 376.19 20.4505C376.588 20.4107 376.841 20.4844 377.142 20.5331C377.379 20.57 377.658 20.5375 377.911 20.5213C378.196 20.5036 378.433 20.5198 378.632 20.5729C378.858 20.6334 379.111 20.6201 379.369 20.6068C379.971 20.5774 379.993 20.5729 380.342 20.654C380.595 20.713 380.837 20.6865 381.09 20.6791C381.311 20.7189 381.526 20.7617 381.757 20.7971C381.816 20.8059 381.929 20.7912 382.02 20.7867C382.284 20.775 382.553 20.7632 382.816 20.7514C382.994 20.744 383.182 20.7219 383.344 20.7307C383.505 20.741 383.639 20.7838 383.785 20.8118C383.93 20.8398 384.081 20.8679 384.22 20.8973C384.436 20.9416 384.64 20.9785 384.941 20.9563C385.199 20.9372 385.468 20.9313 385.737 20.918C386.076 20.9018 386.065 20.9062 386.694 20.9947C387.033 21.0433 387.383 20.9844 387.727 20.9785C387.899 20.9755 388.066 20.9917 388.184 21.0345C388.233 21.0522 388.217 21.0817 388.233 21.1068C387.345 21.1466 386.452 21.1805 385.576 21.2291C385.237 21.2483 385.059 21.1952 384.877 21.151C384.575 21.0802 384.177 21.1834 383.892 21.092C383.72 21.0374 383.473 21.0065 383.177 21.033C383.005 21.0478 382.822 21.0463 382.644 21.0596C382.193 21.092 381.778 21.0935 381.418 20.9917C381.294 20.9563 381.117 20.9372 380.988 20.9033C380.837 20.8664 380.692 20.8457 380.514 20.8531C379.713 20.8885 378.917 20.9239 378.121 20.9622C378.051 20.9652 377.981 20.9873 377.922 21.0035C377.771 21.0448 377.82 21.0773 378.062 21.1038C378.142 21.1127 378.207 21.1318 378.282 21.1466C378.428 21.1746 378.562 21.2188 378.723 21.2291C378.885 21.2395 379.073 21.2188 379.251 21.2115C379.428 21.2041 379.616 21.182 379.778 21.1908C379.939 21.2011 380.073 21.2439 380.224 21.2704C380.294 21.2837 380.38 21.3058 380.45 21.3044C380.805 21.2955 381.155 21.2793 381.51 21.266C381.73 21.3058 381.918 21.3633 382.182 21.3766C382.349 21.3855 382.526 21.3692 382.698 21.3722C382.773 21.3737 382.87 21.3958 382.908 21.415C382.929 21.4268 382.86 21.4562 382.806 21.471C382.601 21.527 382.322 21.5167 382.069 21.5344C381.795 21.5536 381.547 21.5477 381.337 21.4902C381.198 21.4518 381.042 21.4312 380.869 21.4386C380.423 21.4577 379.982 21.4798 379.535 21.4961C379.46 21.499 379.369 21.4857 379.299 21.4754C378.734 21.3855 378.734 21.3825 378.336 21.4017C377.75 21.4297 377.75 21.4297 377.357 21.3515C377.282 21.3368 377.201 21.3088 377.137 21.3103C376.513 21.3339 375.894 21.3574 375.276 21.3914C375.071 21.4017 374.931 21.4017 374.781 21.3633C374.652 21.3309 374.501 21.294 374.34 21.2852C374.173 21.2763 373.99 21.2985 373.813 21.3058C373.635 21.3132 373.447 21.3324 373.291 21.3206C373.13 21.3088 372.99 21.2675 372.85 21.238C372.705 21.207 372.549 21.2085 372.35 21.2203C371.737 21.2542 371.731 21.2498 371.123 21.1584C371.053 21.148 370.962 21.1362 370.887 21.1392C370.44 21.1569 369.999 21.179 369.553 21.1967C369.381 21.2041 369.214 21.1849 369.096 21.1421C369.047 21.1244 369.063 21.0949 369.031 21.0374C368.994 21.0242 369.036 21.0478 369.047 21.0699C369.128 21.0669 369.225 21.0699 369.284 21.0581C369.435 21.0301 369.51 20.9932 369.472 20.9622C369.451 20.946 369.349 20.9254 369.284 20.9254C369.166 20.9254 369.063 20.9578 369.031 21.0374C368.692 21.0861 368.332 21.0964 367.982 21.12C367.778 21.1348 367.649 21.1274 367.487 21.0891C367.294 21.0419 367.095 20.9961 366.777 21.0197C366.433 21.0463 366.068 21.0507 365.713 21.0714C365.304 21.095 365.126 20.9622 364.782 20.9652C364.427 20.9681 364.072 20.9932 363.717 21.0109C363.405 21.0256 363.405 21.0256 362.76 20.9298C362.523 20.8944 362.243 20.946 362.012 20.9091C361.856 20.8855 361.722 20.8502 361.571 20.8251C361.506 20.8148 361.404 20.8148 361.324 20.8177C360.877 20.8354 360.425 20.8472 359.995 20.8797C359.506 20.918 359.135 20.8767 358.785 20.7897C358.344 20.8059 357.897 20.8148 357.462 20.8428C357.145 20.8634 356.962 20.8148 356.746 20.775C356.671 20.7617 356.607 20.7396 356.526 20.7337C356.445 20.7278 356.348 20.7396 356.262 20.744C355.907 20.7602 355.542 20.7676 355.197 20.7941C354.772 20.828 354.611 20.7071 354.283 20.6924C354.062 20.7646 353.944 20.8634 353.509 20.8708C353.154 20.8767 352.799 20.9003 352.444 20.9165C352.266 20.9239 352.089 20.9327 351.911 20.9401C351.626 20.9534 351.492 21.0109 351.551 21.0994C351.583 21.148 351.61 21.1967 351.637 21.2454C351.691 21.3324 351.556 21.4061 351.33 21.4164C350.706 21.4444 350.088 21.4739 349.464 21.499C349.297 21.5064 349.136 21.4813 349.001 21.4415C348.861 21.4017 348.705 21.384 348.533 21.3914C347.909 21.4194 347.291 21.4489 346.667 21.4739C346.597 21.4769 346.506 21.4621 346.436 21.4503C346.285 21.4238 346.14 21.3928 345.995 21.3648C345.64 21.3781 345.29 21.3869 344.94 21.4046C344.376 21.4312 344.376 21.4326 343.961 21.3515C343.886 21.3368 343.811 21.3088 343.741 21.3103C343.472 21.3162 343.209 21.3309 342.94 21.3442C342.149 21.3825 342.149 21.3825 341.918 21.3383C341.708 21.297 341.52 21.2468 341.202 21.2704C340.858 21.297 340.492 21.3058 340.137 21.3206C339.874 21.3309 339.61 21.3427 339.347 21.3456C339.277 21.3471 339.201 21.3191 339.126 21.3044C338.911 21.2586 338.701 21.2218 338.405 21.2468C338.233 21.2616 338.05 21.2645 337.873 21.2719C337.41 21.2926 337.41 21.2925 336.652 21.2041C336.577 21.1952 336.485 21.1849 336.41 21.1893C335.786 21.2159 335.167 21.2454 334.544 21.2704C334.468 21.2734 334.377 21.2645 334.302 21.2572C333.452 21.1716 333.452 21.1716 332.548 21.2129C332.204 21.2277 332.193 21.2336 331.833 21.1554C331.671 21.1215 331.537 21.1053 331.349 21.1156C330.639 21.151 329.923 21.1746 329.219 21.2159C328.901 21.2336 328.719 21.1893 328.503 21.1495C328.428 21.1362 328.347 21.1068 328.283 21.1082C327.573 21.1362 326.863 21.1702 326.153 21.1982C326.088 21.2011 326.008 21.1716 325.932 21.1584C325.787 21.1318 325.647 21.092 325.486 21.0832C325.319 21.0743 325.136 21.0964 324.953 21.1038C324.507 21.123 324.507 21.1215 323.991 21.0345C323.921 21.0227 323.829 21.0065 323.759 21.0094C323.049 21.0389 322.334 21.064 321.63 21.1068C321.226 21.1304 320.952 21.0876 320.667 21.0256C320.608 21.0124 320.505 21.0065 320.43 21.0094C319.629 21.0433 318.833 21.0817 318.031 21.1156C317.865 21.123 317.703 21.0979 317.569 21.0596C317.354 20.9991 317.101 21.0065 316.832 21.0197C316.213 21.0507 316.208 21.0492 315.842 20.9785C315.767 20.9637 315.702 20.9445 315.622 20.9372C315.546 20.9298 315.45 20.9342 315.369 20.9372C315.014 20.9519 314.659 20.9681 314.304 20.9843C313.949 21.0006 313.588 21.0094 313.239 21.0345C312.809 21.0655 312.604 20.9696 312.303 20.9254C311.862 20.9445 311.41 20.9563 310.974 20.9873C310.641 21.0109 310.485 20.946 310.265 20.9121C310.189 20.9003 310.109 20.8752 310.039 20.8782C309.237 20.9106 308.436 20.946 307.64 20.9858C307.446 20.9947 307.317 20.9829 307.156 20.9475C306.795 20.8678 306.779 20.8708 306.177 20.9003C305.913 20.9136 305.66 20.9254 305.435 20.8649C305.236 20.8103 304.994 20.7971 304.708 20.8148C304.359 20.8369 303.999 20.8487 303.644 20.8634C303.289 20.8797 302.934 20.9018 302.579 20.9091C302.294 20.9165 302.121 20.8472 301.895 20.8118C301.826 20.8015 301.729 20.8 301.648 20.803C301.293 20.8162 300.927 20.8266 300.583 20.8516C300.164 20.8826 299.932 20.8015 299.637 20.7543C299.572 20.744 299.464 20.7499 299.384 20.7543C298.76 20.7809 298.141 20.8103 297.517 20.8384C297.297 20.7985 297.071 20.7602 296.85 20.7204C296.495 20.7351 296.14 20.7514 295.785 20.7661C295.516 20.7779 295.242 20.7823 294.989 20.8044C294.661 20.8339 294.5 20.7646 294.279 20.7307C294.204 20.7189 294.123 20.6938 294.053 20.6968C293.607 20.713 293.161 20.7307 292.72 20.7558C292.3 20.7809 292.133 20.6481 291.789 20.6496C291.434 20.6511 291.068 20.6703 290.724 20.6968C290.326 20.7278 290.046 20.6806 289.761 20.6172C289.702 20.6039 289.6 20.5965 289.525 20.5995C289.078 20.6172 288.637 20.6393 288.191 20.657C288.116 20.6599 288.024 20.6526 287.949 20.6437C287.099 20.5567 287.099 20.5552 286.728 20.5729C286.464 20.5847 286.195 20.5995 285.926 20.6068C285.851 20.6098 285.76 20.5965 285.69 20.5847C285.13 20.4948 285.13 20.4933 284.727 20.511C284.372 20.5272 284.017 20.5434 283.662 20.5596C283.441 20.5198 283.216 20.4815 282.995 20.4417C282.554 20.4609 282.102 20.4756 281.667 20.5021C281.462 20.5139 281.328 20.5095 281.172 20.4726C280.978 20.4284 280.784 20.3768 280.462 20.4019C280.117 20.4284 279.752 20.4314 279.402 20.4535C278.983 20.48 278.811 20.3458 278.472 20.3473C278.117 20.3488 277.751 20.3679 277.407 20.3945C277.009 20.4255 276.729 20.3783 276.444 20.3149C276.385 20.3016 276.283 20.2942 276.207 20.2972C275.228 20.3399 274.255 20.3827 273.276 20.4284C272.674 20.4564 272.674 20.4579 271.528 20.3768C271.447 20.3709 271.361 20.365 271.28 20.3679C270.925 20.3812 270.56 20.3915 270.215 20.4166C269.796 20.4476 269.565 20.3679 269.269 20.3193C269.204 20.309 269.102 20.3148 269.016 20.3178C268.747 20.3281 268.484 20.3414 268.215 20.3532C267.86 20.3694 267.505 20.3856 267.15 20.4019C266.929 20.3635 266.703 20.3237 266.483 20.2854C266.042 20.3045 265.59 20.3149 265.154 20.3458C264.821 20.3694 264.665 20.3075 264.444 20.2721C264.369 20.2603 264.288 20.2352 264.218 20.2367C263.417 20.2691 262.616 20.3031 261.82 20.3443C261.491 20.362 261.341 20.2957 261.12 20.2618C261.045 20.2514 260.959 20.2323 260.889 20.2352C260.357 20.2559 259.824 20.2809 259.292 20.306C258.99 20.3208 258.99 20.3207 258.334 20.2293C258.259 20.219 258.173 20.2087 258.098 20.2116C256.409 20.2854 254.725 20.3635 253.036 20.4373C252.864 20.4446 252.708 20.4225 252.574 20.3827C252.434 20.3429 252.278 20.3222 252.106 20.3296C251.396 20.3606 250.68 20.3886 249.976 20.4269C249.685 20.4432 249.454 20.424 249.255 20.3724C249.104 20.334 248.965 20.3193 248.776 20.3281C248.421 20.3458 248.066 20.3606 247.711 20.3768C247.356 20.393 247.001 20.4092 246.647 20.4255C246.292 20.4417 245.931 20.4505 245.582 20.4756C245.151 20.5066 244.942 20.4151 244.646 20.3694C244.113 20.3915 243.581 20.4137 243.054 20.4373C242.344 20.4682 241.634 20.5021 240.924 20.5316C240.859 20.5346 240.778 20.508 240.703 20.4948C240.483 20.4579 240.321 20.4063 239.993 20.4225C238.401 20.5007 236.798 20.567 235.201 20.6437C234.867 20.6599 234.722 20.5965 234.496 20.5626C234.421 20.5523 234.335 20.5316 234.265 20.5346C233.378 20.5715 232.49 20.6127 231.603 20.6525C231.242 20.6688 231.242 20.6688 230.64 20.5773C230.57 20.567 230.478 20.5537 230.403 20.5567C229.247 20.6068 228.096 20.6599 226.939 20.7115C226.767 20.7189 226.611 20.6983 226.471 20.6585C226.337 20.6186 226.175 20.5965 226.009 20.6039C224.944 20.6511 223.873 20.6968 222.814 20.7484C222.529 20.7632 222.292 20.7499 222.088 20.6968C221.943 20.6585 221.797 20.6422 221.614 20.6511C220.017 20.7233 218.42 20.7927 216.822 20.8693C216.515 20.8841 216.3 20.8561 216.107 20.8074C215.951 20.7691 215.816 20.7617 215.623 20.7676C215.418 20.775 215.295 20.7912 215.182 20.8354C215.036 20.8929 214.945 20.9652 214.601 20.9696C214.246 20.974 213.885 20.9917 213.536 21.0168C213.202 21.0419 213.046 20.9755 212.837 20.9357C212.681 20.9077 212.535 20.9032 212.336 20.9165C212.154 20.9283 212.041 20.9534 211.933 21.0006C211.696 21.1008 211.675 21.1008 211.384 21.0374C211.228 21.0035 211.088 20.977 210.916 20.9829C210.206 21.0124 209.496 21.0448 208.786 21.0787C208.378 21.0979 208.372 21.1009 208.066 21.0271C207.915 20.9903 207.77 20.9725 207.592 20.9814C205.64 21.0699 203.688 21.1554 201.735 21.2483C201.434 21.2631 201.23 21.2321 201.014 21.1879C200.945 21.1731 200.875 21.1525 200.794 21.1466C200.713 21.1407 200.622 21.1466 200.536 21.1495C199.116 21.2129 197.69 21.2734 196.276 21.3442C195.953 21.3604 195.781 21.3132 195.561 21.2749C195.485 21.2616 195.421 21.2409 195.34 21.2351C195.259 21.2306 195.162 21.2409 195.076 21.2454C193.656 21.3088 192.231 21.3692 190.817 21.44C190.478 21.4563 190.333 21.3943 190.112 21.3619C190.037 21.3501 189.956 21.3279 189.886 21.3309C189.44 21.3471 188.999 21.3692 188.552 21.3884C187.487 21.4371 186.422 21.4828 185.357 21.5329C184.948 21.5521 184.771 21.4208 184.427 21.4267C183.98 21.4341 183.539 21.4636 183.093 21.4843C182.738 21.5005 182.383 21.5152 182.028 21.5329C181.678 21.5492 181.678 21.5491 180.807 21.4636C180.732 21.4562 180.64 21.4459 180.565 21.4489C179.323 21.5034 178.075 21.558 176.838 21.617C176.553 21.6303 176.316 21.6229 176.111 21.5683C175.966 21.53 175.816 21.5108 175.638 21.5196C173.772 21.6037 171.911 21.6878 170.044 21.7704C169.974 21.7733 169.883 21.7586 169.813 21.7468C169.663 21.7202 169.517 21.6892 169.372 21.6612C169.264 21.6951 169.125 21.7261 169.055 21.7644C168.958 21.8161 168.829 21.8308 168.625 21.8397C168.42 21.8485 168.291 21.8456 168.13 21.8072C167.936 21.76 167.737 21.7232 167.42 21.7379C165.467 21.8308 163.515 21.9149 161.562 22.0063C161.24 22.021 161.089 21.9561 160.863 21.9222C160.788 21.9119 160.702 21.8957 160.632 21.8986C159.83 21.9326 159.034 21.9694 158.233 22.0048C156.012 22.1051 153.79 22.201 151.574 22.3071C151.171 22.3263 150.897 22.2894 150.612 22.226C150.552 22.2127 150.45 22.2054 150.375 22.2083C147.266 22.3469 144.157 22.487 141.054 22.6271C140.887 22.6345 140.726 22.6109 140.591 22.5726C140.451 22.5327 140.295 22.5136 140.123 22.521C138.703 22.5844 137.283 22.6478 135.863 22.7127C135.509 22.7289 135.503 22.7303 135.137 22.6596C135.062 22.6448 134.981 22.6168 134.922 22.6198C134.799 22.6271 134.68 22.664 134.594 22.7141C134.508 22.7672 134.374 22.782 134.175 22.7923C133.97 22.8026 133.836 22.7982 133.68 22.7628C133.481 22.7186 133.298 22.6758 132.975 22.6905C128.893 22.8793 124.81 23.0607 120.728 23.2479C120.4 23.2627 120.249 23.2008 120.023 23.1669C119.948 23.1565 119.873 23.1418 119.792 23.1388C119.706 23.1359 119.615 23.1447 119.529 23.1492C112.87 23.4485 106.211 23.7493 99.5526 24.0487C99.1545 24.0664 99.1599 24.0664 98.7242 24.2021C98.6704 24.2183 98.6005 24.2404 98.5252 24.2433C96.4867 24.3377 94.4429 24.4292 92.399 24.5206C91.5115 24.5604 90.6241 24.6017 89.7366 24.64C89.4193 24.6533 89.4193 24.6533 88.6609 24.8126C88.5964 24.8258 88.521 24.8435 88.4457 24.8465C84.8958 25.0072 81.3459 25.168 77.7906 25.3258C77.5109 25.3376 77.2851 25.3641 77.156 25.4349C77.0646 25.485 76.9462 25.5145 76.7688 25.5234C74.2838 25.6354 71.799 25.749 69.3087 25.8581C69.0129 25.8714 68.8353 25.9127 68.6901 25.9746C68.6417 25.9953 68.5986 26.0188 68.5287 26.0336C68.4642 26.0469 68.3674 26.0513 68.2867 26.0557C66.1568 26.1516 64.0269 26.2504 61.8916 26.3418C61.5743 26.3551 61.4451 26.4096 61.2891 26.4671C61.2353 26.4863 61.1977 26.5129 61.1277 26.5261C61.0578 26.5379 60.9556 26.5379 60.8696 26.5409C59.0946 26.6205 57.3198 26.7016 55.5448 26.7812C55.2006 26.7739 55.1252 26.8594 54.9585 26.911C54.8993 26.9287 54.8564 26.9523 54.7865 26.9641C54.7112 26.9759 54.6142 26.9744 54.5228 26.9774C53.1029 27.0408 51.6829 27.1086 50.2576 27.1676C49.9295 27.1809 49.8649 27.2561 49.6874 27.3077C49.6283 27.3239 49.5692 27.349 49.4993 27.3534C48.6118 27.3962 47.7244 27.436 46.8369 27.4743C46.5411 27.4876 46.5411 27.4861 46.0193 27.6321C45.9602 27.6483 45.8902 27.666 45.8149 27.6705C44.4864 27.7324 43.1525 27.7914 41.8186 27.8519C41.6465 27.8592 41.5282 27.8946 41.4421 27.9448C41.3561 27.9949 41.2324 28.0273 41.0603 28.0347C39.9953 28.0834 38.9303 28.1335 37.8653 28.1777C37.5695 28.1895 37.3759 28.2264 37.2468 28.2928C37.15 28.3429 37.0317 28.368 36.8434 28.3768C35.7785 28.424 34.7135 28.4756 33.6432 28.5169C33.3312 28.5287 33.1698 28.5789 33.0407 28.6408C32.9385 28.6909 32.8202 28.7086 32.6212 28.7175C30.6687 28.803 28.711 28.8885 26.7639 28.9829C26.4358 28.9991 26.2691 28.9475 26.0539 28.9106C25.7473 28.859 25.4623 28.803 25.4623 28.688C25.4623 28.6703 25.3709 28.6496 25.3063 28.6349C24.8276 28.5243 24.8276 28.5243 24.7523 28.4063C24.7093 28.3341 24.6609 28.2603 24.6232 28.1866C24.5533 28.0657 24.3811 28.0347 23.8863 28.0568C23.7088 28.0642 23.5313 28.0745 23.3538 28.0804C23.0903 28.0907 22.8913 28.0421 22.8429 27.9536C22.816 27.9049 22.7838 27.8563 22.7569 27.8076C23.0258 27.7958 23.0204 27.7943 23.4937 27.6159C23.6927 27.5407 23.6928 27.5407 23.3109 27.4655C23.1657 27.4375 23.0258 27.4065 22.8698 27.3799C22.7999 27.3682 22.7085 27.3608 22.6332 27.3637C22.1868 27.3814 21.7457 27.4021 21.3047 27.4227C20.5947 27.4552 20.5946 27.4552 19.8739 27.3047C19.8147 27.2929 19.7233 27.2708 19.7341 27.259C19.7932 27.2045 19.9384 27.1809 20.1213 27.175C20.3902 27.1661 20.6538 27.1514 20.9173 27.1396C21.0948 27.1322 21.2723 27.1234 21.4498 27.116C21.6165 27.06 21.7887 27.0054 21.9447 26.9479C22.1921 26.8594 22.192 26.8564 21.8532 26.7945C21.638 26.7532 21.4068 26.7164 21.1862 26.678C20.9227 26.6898 20.6538 26.7031 20.3902 26.7134C20.0568 26.7267 19.9223 26.6987 19.8362 26.6028C19.7609 26.5187 19.8524 26.4465 20.1105 26.4288C20.3741 26.4111 20.6216 26.3993 20.7561 26.3241C20.8852 26.2518 21.111 26.2238 21.3907 26.2179C21.5682 26.2135 21.7457 26.2032 21.9232 26.1943C22.1545 26.1825 22.2782 26.1073 22.2298 26.0233C22.2029 25.9687 22.1491 25.923 21.9393 25.9112C21.0088 25.8596 20.998 25.8611 20.5355 25.7608C20.4924 25.7519 20.4602 25.7254 20.4764 25.7121C20.5033 25.69 20.5624 25.6576 20.627 25.6531C21.2455 25.6207 21.864 25.5912 22.4826 25.5691C22.687 25.5617 22.8376 25.5514 22.9075 25.4968C23.0043 25.4216 22.9613 25.3523 22.773 25.3007C22.7139 25.2845 22.617 25.2638 22.5524 25.2653C21.8425 25.2918 21.1379 25.3257 20.4279 25.3523C20.3634 25.3552 20.2451 25.3302 20.2182 25.311C20.1644 25.2756 20.245 25.2284 20.4333 25.2122C20.6807 25.1901 20.9335 25.1886 21.1002 25.1149C21.3315 25.0102 21.6166 24.9143 21.8747 24.8141C21.9178 24.7964 21.9878 24.7624 21.9716 24.7595C21.8372 24.727 21.6812 24.702 21.5413 24.671C21.3047 24.6194 21.3046 24.5471 21.3584 24.4778C21.4014 24.4218 21.5628 24.3997 21.7618 24.3997C21.8479 24.3997 21.9554 24.3997 22.0253 24.3864C22.2082 24.354 22.2674 24.3127 22.176 24.2817C22.1222 24.264 22.0254 24.2389 21.9609 24.2419C20.8098 24.2906 19.6534 24.3377 18.5077 24.3982C18.1689 24.4159 18.013 24.3598 17.8086 24.32C17.6526 24.2891 17.5073 24.2773 17.3137 24.2994C17.1308 24.32 16.9534 24.3082 16.8404 24.2596C16.749 24.2198 16.9103 24.1858 17.346 24.1475C17.4267 24.1401 17.5181 24.1357 17.5772 24.121C18.2011 23.9617 18.2011 23.9602 18.6314 23.9396C19.0509 23.9204 19.051 23.9189 19.2716 23.8334C19.3738 23.7936 19.4866 23.7538 19.5834 23.7125C19.6211 23.6962 19.6857 23.6668 19.6642 23.6579C19.5459 23.6122 19.3844 23.6019 19.1962 23.6122C18.7767 23.6373 18.2819 23.6166 18.0614 23.7567C17.9753 23.8098 17.8408 23.8246 17.6472 23.8334C15.7002 23.9189 13.753 24.0104 11.8006 24.0929C11.4833 24.1062 11.3381 24.1608 11.2144 24.2212C11.1069 24.2714 10.9885 24.2861 10.7841 24.295C10.5797 24.3038 10.4183 24.3082 10.3 24.2596C10.23 24.2301 10.2892 24.1888 10.4506 24.1475C10.6819 24.0885 10.6388 24.0148 10.5635 23.9455C10.5097 23.8998 10.343 23.8673 10.1655 23.8703C9.90195 23.8762 9.64923 23.8924 9.4287 23.8334C9.29962 23.7995 9.13823 23.7759 8.993 23.7464C8.71332 23.6859 8.43362 23.624 8.04098 23.6638C7.77205 23.6491 7.5838 23.596 7.36866 23.5547C7.00829 23.4869 6.97602 23.4765 7.23419 23.4043C7.52464 23.3232 7.29869 23.217 7.46005 23.1373C7.63217 23.0518 7.8689 22.9766 8.07867 22.897C8.13245 22.8764 8.18088 22.8572 8.23467 22.8365C8.11096 22.807 7.99803 22.7702 7.85281 22.7495C7.66456 22.723 7.56774 22.6905 7.5785 22.5991C7.54084 22.5858 7.55687 22.6197 7.5999 22.6286C7.64831 22.6374 7.76673 22.6301 7.82589 22.6198C7.97649 22.5917 8.05171 22.5549 8.01406 22.5239C7.99255 22.5077 7.89043 22.487 7.82589 22.487C7.70756 22.487 7.60538 22.5195 7.57311 22.5991C6.97071 22.6596 6.34669 22.6891 5.72277 22.7127C5.65823 22.7156 5.5776 22.6861 5.5023 22.6714C5.25488 22.6212 5.25485 22.6227 4.52874 22.608C4.45344 22.6065 4.3513 22.5858 4.31365 22.5652C4.15767 22.4752 4.16309 22.3764 4.08779 22.2806C4.22763 22.2186 4.36737 22.1582 4.51259 22.0977C4.80303 21.9753 5.17962 21.8677 5.40552 21.7335C5.35711 21.6612 5.29256 21.589 5.52922 21.53C6.20154 21.4562 6.19621 21.4563 6.37908 21.3855C6.9008 21.1849 7.41712 20.9829 7.96035 20.7853C8.10558 20.7337 8.1056 20.7056 7.84742 20.6835C7.76675 20.6776 7.68057 20.6762 7.59452 20.6791C7.32559 20.6894 7.05666 20.716 6.79311 20.7101C6.52956 20.7056 6.33593 20.6408 6.12078 20.6009C5.90026 20.5596 5.67975 20.5169 5.45923 20.4741C5.20643 20.4785 4.95369 20.5198 4.70089 20.4535C4.50726 20.4019 4.26524 20.365 4.04472 20.3222C4.21145 20.2102 4.52346 20.1246 4.7655 20.0258C4.98602 19.9359 4.99128 19.9373 5.58292 19.868C5.86261 19.8356 5.95943 19.6689 5.72277 19.6203C5.43771 19.5613 5.13657 19.5067 4.84612 19.4507C4.59333 19.4551 4.33521 19.4949 4.09317 19.4286C3.90492 19.3785 3.68974 19.3445 3.37778 19.3637C2.85067 19.3961 2.31283 19.4124 1.78035 19.4389C1.59748 19.4478 1.39841 19.4419 1.31773 19.3917C1.26394 19.3563 1.41993 19.3077 1.59743 19.2973C1.86636 19.2826 2.10837 19.2649 2.24283 19.1912C2.37192 19.1174 2.60855 19.0953 2.88824 19.085C2.96354 19.082 3.04966 19.0643 3.08731 19.0466C3.28094 18.9611 3.4961 18.8874 3.91025 18.8903C4.08237 18.8608 4.17375 18.824 4.11996 18.7886C4.08769 18.7694 3.9748 18.7443 3.91025 18.7473C3.46383 18.762 3.01742 18.7768 2.58175 18.8033C2.37737 18.8151 2.2213 18.8181 2.09222 18.7738C2.00078 18.7443 2.04918 18.7045 2.2213 18.6618C2.3719 18.6249 2.41498 18.5821 2.40422 18.532C2.37733 18.4155 2.21594 18.3816 1.69959 18.3889C1.32847 18.3948 1.23703 18.3757 1.15635 18.2754C1.13483 18.2518 1.08114 18.2194 1.11879 18.2031C1.35007 18.1029 1.50068 17.979 1.93635 17.9318C2.10846 17.9141 2.29126 17.9141 2.39883 17.8758C2.50641 17.8374 2.60327 17.7932 2.71622 17.7563C2.85606 17.7121 2.95278 17.6708 2.88824 17.6428C2.78067 17.5926 2.60861 17.5882 2.4096 17.6059C2.23749 17.6207 2.05462 17.6221 1.87713 17.631C1.55979 17.6472 1.30167 17.6089 1.26402 17.544C1.16183 17.3729 1.05423 17.2033 0.96279 17.0323C0.952033 17.0116 0.978853 16.9851 1.02188 16.9674C1.17248 16.9054 1.3339 16.8465 1.48988 16.786C1.67276 16.7167 1.96325 16.73 2.21066 16.7167C2.56027 16.6975 2.56015 16.699 3.02809 16.5574C3.21096 16.5014 3.52831 16.5235 3.71657 16.4734C3.77573 16.4571 3.86717 16.4306 3.85103 16.4159C3.82952 16.3967 3.722 16.3819 3.64132 16.3731C3.56602 16.3642 3.47461 16.3598 3.39393 16.3642C2.41502 16.407 1.44152 16.4527 0.462617 16.494C0.295881 16.5014 0.113003 16.4689 0.0538385 16.4232C-0.00532607 16.3805 0.0107572 16.3288 0 16.2802C0.155979 16.2197 0.333405 16.1637 0.46787 16.0988C0.570063 16.0487 0.688414 16.0265 0.8928 16.0236C1.16173 16.0192 1.42531 16.0015 1.72651 15.9882C2.28588 15.7729 2.83446 15.5473 3.43687 15.332C3.6789 15.245 3.61983 15.1565 3.66824 15.0636C3.71665 14.9781 4.07699 14.9913 4.31903 14.9663C4.51266 14.9456 4.57712 14.8984 4.50182 14.866C4.45879 14.8468 4.36203 14.8247 4.28673 14.8247C4.10923 14.8247 3.93175 14.838 3.75425 14.8453C3.57676 14.8527 3.37238 14.8483 3.22716 14.8734C3.08732 14.897 2.99583 14.9471 2.90439 14.9898C2.8022 15.037 2.66783 15.0533 2.46344 15.0562C2.19989 15.0592 1.93635 15.0724 1.6728 15.0828C1.38236 15.0252 1.08109 14.9692 0.801406 14.9088C0.74762 14.897 0.736805 14.863 0.742184 14.8409C0.752941 14.7834 0.672283 14.748 0.494789 14.72C0.344188 14.6964 0.22047 14.6625 0.0806265 14.633C0.188198 14.5932 0.30657 14.5548 0.392627 14.5121C0.580878 14.4221 0.817563 14.3572 1.22634 14.3602C1.38769 14.3027 1.51674 14.2319 1.72651 14.1921C1.92552 14.1537 2.26439 14.1921 2.41499 14.1051C2.49029 14.0623 2.6033 14.0136 2.74852 13.9959C2.9798 13.9679 3.281 13.9827 3.41546 13.9001C3.49614 13.8529 3.61442 13.8101 3.7704 13.7983C3.9479 13.7851 4.13072 13.7821 4.25981 13.7541C4.32973 13.7394 4.40504 13.7158 4.40504 13.6951C4.40504 13.6818 4.29755 13.6612 4.22225 13.6523C4.15233 13.642 4.06079 13.6346 3.98011 13.6376C3.71118 13.6464 3.44764 13.6627 3.17871 13.6715C3.10341 13.6745 3.01737 13.6641 2.93669 13.6553C2.70004 13.6317 2.71614 13.6022 2.90439 13.5491C3.09264 13.4975 3.22718 13.4311 3.38316 13.3707C3.55528 13.3603 3.77039 13.3648 3.88872 13.3368C4.08773 13.291 4.22753 13.2247 4.38889 13.1672C4.56638 13.1583 4.74925 13.1554 4.91598 13.1392C4.9859 13.1333 5.0182 13.1008 5.07737 13.0816C5.18494 13.0448 5.27645 12.9917 5.42167 12.974C5.65833 12.9475 5.94877 12.9578 6.08861 12.8767C6.16929 12.8295 6.29295 12.7793 6.44355 12.7764C6.86308 12.7705 7.04058 12.6894 7.25573 12.6127C7.41708 12.5552 7.76133 12.5847 7.93882 12.5272C8.05715 12.4903 8.14326 12.4446 8.26159 12.4092C8.31 12.3944 8.41215 12.3871 8.49283 12.3827C8.93388 12.3605 9.38028 12.3443 9.82133 12.3207C9.89125 12.3163 9.95585 12.2942 10.0096 12.2765C10.1226 12.2381 10.1924 12.1851 10.3323 12.16C10.4721 12.1349 10.6711 12.1349 10.8432 12.1275C11.3972 12.1054 11.4403 12.1113 11.6931 11.986C11.8975 11.8842 12.3977 11.9565 12.5645 11.8444C12.6613 11.7795 12.8387 11.7264 13.156 11.7191C13.6025 11.7087 14.0435 11.6807 14.4899 11.6615C14.8879 11.6438 14.8826 11.6438 15.3129 11.5067C15.5065 11.4448 15.7916 11.4536 16.0444 11.4418C16.3133 11.43 16.5607 11.4123 16.6898 11.3386C16.8189 11.2663 17.0555 11.2427 17.3298 11.2324C17.5826 11.2221 17.8678 11.2295 18.0668 11.1705C18.5508 11.0289 18.5455 11.0274 18.8843 11.0127C19.4168 10.9891 19.9493 10.9655 20.4818 10.9404C20.8367 10.9242 21.2078 10.9213 21.5413 10.8888C21.7834 10.8652 21.8909 10.7827 22.0469 10.7251C22.4879 10.703 22.9289 10.6809 23.37 10.6602C23.9885 10.6308 24.6124 10.6042 25.2364 10.5762C25.5053 10.5202 25.543 10.3963 25.9948 10.3904C26.2637 10.3874 26.5273 10.3683 26.7962 10.3565C27.2426 10.3358 27.6837 10.3093 28.1301 10.299C28.469 10.2916 28.528 10.2119 28.7055 10.1618C28.7647 10.1441 28.8185 10.1191 28.8884 10.1146C29.5877 10.0733 30.3083 10.0645 30.9914 10.004C31.0613 9.99813 31.1259 9.96716 31.142 9.94504C31.1528 9.93324 31.0614 9.91113 31.0022 9.90081C30.9323 9.88901 30.8409 9.87721 30.7656 9.88016C28.5442 9.97896 26.3229 10.0792 24.1015 10.178C23.7896 10.1928 23.7896 10.1913 23.0312 10.3535C22.9667 10.3668 22.8913 10.3815 22.8106 10.386C22.4556 10.4037 22.0953 10.414 21.7456 10.4361C21.4606 10.4538 21.224 10.4361 21.0196 10.383C20.8744 10.3447 20.7237 10.3329 20.5408 10.3358C20.3365 10.3403 20.2021 10.3565 20.0837 10.3963C19.9278 10.4509 19.8471 10.5216 19.519 10.5364C18.0076 10.5998 16.4961 10.6706 14.9901 10.7384C14.7803 10.7178 14.6781 10.6868 14.7319 10.6499C14.7642 10.6278 14.8288 10.5983 14.8933 10.5954C15.5119 10.5644 16.1357 10.5379 16.7543 10.5084C16.8403 10.5039 16.9587 10.5069 17.0071 10.4921C17.2437 10.4258 17.3299 10.3181 17.7763 10.3108C18.0345 10.3063 18.298 10.2842 18.5454 10.2636C18.6153 10.2577 18.6799 10.2267 18.696 10.2046C18.7014 10.1928 18.6153 10.1707 18.5508 10.1603C18.3141 10.1176 18.0399 10.1692 17.8032 10.1397C17.7225 10.1294 17.6095 10.1146 17.5934 10.0969C17.5826 10.0807 17.6741 10.0542 17.7386 10.0379C17.7978 10.0232 17.8784 10.0099 17.9591 10.0055C18.6691 9.97159 19.3792 9.93619 20.0891 9.90965C20.3796 9.89933 20.5839 9.86246 20.713 9.79462C20.8098 9.74448 20.9281 9.71795 21.111 9.71057C22.3535 9.65601 23.5959 9.59555 24.8437 9.54541C25.1557 9.53361 25.3171 9.48496 25.4462 9.42155C25.5484 9.37141 25.6667 9.35371 25.8657 9.34486C27.6461 9.26818 29.4156 9.18265 31.1959 9.10892C31.524 9.09565 31.6208 9.03223 31.7876 8.97767C31.8467 8.9585 31.8843 8.93491 31.9596 8.92311C32.0349 8.91131 32.1317 8.91277 32.2231 8.90982C33.6431 8.84641 35.0631 8.77859 36.4885 8.7196C36.8219 8.70633 36.8864 8.63259 37.0585 8.58098C37.1177 8.56476 37.1715 8.53822 37.2414 8.5338C38.3064 8.48366 39.3713 8.43647 40.4363 8.38781C41.1463 8.35536 41.8562 8.32292 42.5662 8.29195C42.9158 8.2772 42.9158 8.27572 43.3891 8.13563C43.4429 8.11941 43.5183 8.10023 43.5882 8.09581C45.6321 8.00143 47.6705 7.91149 49.7144 7.81859C49.8865 7.81122 50.0102 7.77728 50.0962 7.72714C50.1823 7.677 50.3061 7.64309 50.4728 7.63572C52.0703 7.56198 53.6677 7.48973 55.2705 7.42042C55.5609 7.40862 55.7653 7.37323 55.8944 7.30687C55.9912 7.25673 56.1095 7.23019 56.2924 7.22282C57.8898 7.15204 59.4874 7.07682 61.0902 7.00898C61.3968 6.99571 61.5473 6.94558 61.6979 6.88659C61.7517 6.86595 61.7947 6.83203 61.8593 6.82908C62.6553 6.78779 63.4459 6.74502 64.2474 6.717C64.5808 6.70521 64.6938 6.64327 64.8283 6.58428C64.9359 6.53709 65.0596 6.52087 65.264 6.51498C65.7104 6.5017 66.1514 6.47665 66.5871 6.45158C66.6516 6.44715 66.7323 6.41471 66.7377 6.39406C66.7485 6.35572 66.6247 6.32917 66.4203 6.3159C64.2904 6.41175 62.1552 6.5076 60.0252 6.60345C59.6756 6.61967 59.6756 6.61968 59.2023 6.75978C59.1485 6.776 59.0731 6.79517 58.9978 6.79959C56.954 6.8925 54.9155 6.98393 52.8717 7.07683C52.6996 7.0842 52.5759 7.11812 52.4898 7.16826C52.4038 7.2184 52.2799 7.25231 52.1132 7.25969C50.1608 7.34817 48.2084 7.43813 46.2506 7.52218C45.9601 7.53398 45.7558 7.56788 45.6267 7.63572C45.5299 7.68585 45.4116 7.71241 45.2287 7.71978C43.3623 7.80236 41.5012 7.88936 39.6295 7.96899C39.4412 7.97636 39.3015 7.9336 39.3122 7.89378C39.3176 7.87314 39.3982 7.83923 39.4627 7.83628C40.4362 7.78762 41.4045 7.73748 42.3834 7.70061C42.7115 7.68881 42.8082 7.62393 42.975 7.56936C43.0288 7.55019 43.0718 7.52512 43.1417 7.5148C43.217 7.503 43.3138 7.50448 43.4053 7.50153C45.7127 7.39683 48.0202 7.29066 50.333 7.19186C50.6665 7.17711 50.7309 7.10484 50.903 7.05323C50.9622 7.03554 51.016 7.009 51.0859 7.00605C51.7959 6.97066 52.5059 6.93969 53.2158 6.90872C54.4583 6.85268 55.7007 6.79664 56.9486 6.7406C57.3089 6.72438 57.3089 6.72438 57.7715 6.58576C57.8253 6.56954 57.9007 6.54891 57.9706 6.54596C61.2569 6.39702 64.5433 6.24807 67.8296 6.10061C68.0017 6.09323 68.1254 6.05932 68.2114 6.00918C68.2975 5.96051 68.4212 5.92512 68.5879 5.91627C73.0306 5.71572 77.468 5.51516 81.9107 5.31755C82.2012 5.30428 82.4055 5.27331 82.5346 5.204C82.626 5.15386 82.7497 5.12733 82.9326 5.11848C87.8164 4.89875 92.7001 4.67903 97.5893 4.45783C100.876 4.31037 104.162 4.15995 107.448 4.01543C107.75 4.00216 107.911 3.95644 108.061 3.89598C108.11 3.87533 108.158 3.84141 108.223 3.83846C108.927 3.8016 109.632 3.76769 110.337 3.73377C110.557 3.77358 110.778 3.81193 110.998 3.85175C111.165 3.79571 111.326 3.7382 111.493 3.68216C112.558 3.63939 113.607 3.57303 114.683 3.55239C114.752 3.55091 114.828 3.57894 114.903 3.59368C115.403 3.68659 115.688 3.67921 116.006 3.55534C116.119 3.5111 116.215 3.47129 116.387 3.46391C116.92 3.43737 117.458 3.41967 117.985 3.3887C118.27 3.37248 118.507 3.38722 118.711 3.44031C118.856 3.47865 119.007 3.49488 119.184 3.48604C120.163 3.4418 121.137 3.39903 122.116 3.35184C122.186 3.34889 122.25 3.32381 122.304 3.30611C122.417 3.26777 122.514 3.22649 122.621 3.18668C122.767 3.21174 122.928 3.23092 123.046 3.26336C123.197 3.3017 123.337 3.30169 123.541 3.29137C127.446 3.11294 131.356 2.93893 135.261 2.75902C135.594 2.74427 135.74 2.80621 135.966 2.83866C136.041 2.85045 136.116 2.86519 136.197 2.86814C136.283 2.87109 136.374 2.86225 136.46 2.85783C139.392 2.72511 142.323 2.59385 145.255 2.46114C145.642 2.44344 145.642 2.44344 146.217 2.53487C146.287 2.54667 146.379 2.55994 146.454 2.55552C147.788 2.498 149.122 2.43607 150.45 2.37709C150.622 2.36971 150.768 2.3933 150.924 2.42722C151.23 2.49358 151.252 2.49359 151.477 2.39626C151.585 2.35054 151.698 2.32251 151.875 2.30924C152.069 2.29449 152.225 2.29893 152.376 2.32548C152.591 2.36234 152.747 2.42427 153.075 2.40805C154.495 2.33874 155.92 2.28123 157.335 2.21045C157.658 2.19423 157.83 2.24436 158.045 2.28123C158.12 2.2945 158.19 2.31515 158.271 2.31957C158.351 2.324 158.448 2.31367 158.534 2.30924C160.309 2.22961 162.089 2.15147 163.859 2.06594C164.192 2.04972 164.338 2.11311 164.564 2.14556C164.639 2.15735 164.725 2.17801 164.795 2.17506C165.86 2.12935 166.93 2.08067 167.995 2.032C168.377 2.01431 168.377 2.01578 168.958 2.10574C169.028 2.11753 169.119 2.12933 169.195 2.12638C170.437 2.07182 171.685 2.01578 172.927 1.95975C173.309 1.94205 173.309 1.94205 174.412 2.01874C174.493 2.02464 174.579 2.0335 174.659 2.03055C176.079 1.96714 177.505 1.90519 178.924 1.83736C179.21 1.82408 179.446 1.83588 179.651 1.88897C179.796 1.92731 179.946 1.94354 180.124 1.93469C181.721 1.86243 183.324 1.79312 184.916 1.71644C185.223 1.7017 185.422 1.73413 185.637 1.77689C185.707 1.79164 185.777 1.81229 185.858 1.81819C185.938 1.82408 186.03 1.81818 186.116 1.81376C187.713 1.7415 189.316 1.67367 190.908 1.59551C191.231 1.57929 191.403 1.62942 191.618 1.66629C191.693 1.67956 191.774 1.70611 191.839 1.70463C192.462 1.67956 193.086 1.65745 193.705 1.62059C194.038 1.59994 194.184 1.66776 194.409 1.70021C194.485 1.71053 194.571 1.73266 194.641 1.72971C195.975 1.6722 197.309 1.61174 198.637 1.54981C198.825 1.54096 198.965 1.55422 199.116 1.59256C199.315 1.64417 199.546 1.66482 199.837 1.6486C200.455 1.61468 201.079 1.59109 201.703 1.56307C202.069 1.54685 202.069 1.54686 203.187 1.62354C203.268 1.62944 203.354 1.63828 203.435 1.63533C204.5 1.58814 205.57 1.54243 206.63 1.49082C206.915 1.47607 207.151 1.48934 207.356 1.54242C207.501 1.58077 207.646 1.597 207.829 1.58815C208.808 1.54391 209.782 1.49966 210.761 1.45542C211.115 1.4392 211.47 1.41118 211.825 1.41118C212.084 1.41265 212.272 1.48343 212.503 1.51883C212.568 1.52915 212.675 1.51736 212.761 1.51441C214.004 1.45838 215.252 1.40676 216.489 1.34335C216.811 1.32713 216.984 1.37726 217.199 1.41413C217.274 1.4274 217.355 1.45395 217.419 1.45247C217.866 1.43625 218.307 1.41413 218.753 1.39496C219.286 1.37136 219.823 1.35367 220.35 1.32123C220.781 1.29468 220.942 1.42297 221.286 1.4274C221.55 1.43182 221.819 1.40676 222.082 1.39496C222.615 1.37136 223.147 1.34482 223.68 1.32418C223.868 1.3168 224.013 1.2932 224.073 1.24011C224.083 1.22979 223.992 1.20768 223.933 1.19441C223.217 1.04399 223.217 1.04398 222.497 1.07643C222.05 1.09707 221.609 1.11772 221.163 1.13542C221.087 1.13837 221.001 1.12657 220.926 1.11772C220.711 1.09265 220.732 1.06316 220.915 1.01007C221.098 0.956986 221.238 0.892107 221.394 0.831646C221.614 0.869987 221.83 0.908315 222.05 0.946656C222.228 0.939283 222.405 0.930448 222.583 0.923074C223.47 0.884733 224.358 0.844914 225.245 0.809523C225.31 0.806573 225.39 0.836071 225.466 0.850817C225.681 0.893583 225.874 0.930439 226.186 0.914218C226.982 0.871453 227.784 0.840485 228.58 0.803618C228.929 0.787397 228.929 0.787398 229.543 0.878827C229.612 0.88915 229.704 0.900948 229.779 0.897999C230.581 0.864081 231.377 0.827219 232.178 0.791827C232.35 0.784454 232.517 0.803624 232.641 0.846389C232.689 0.864085 232.678 0.893572 232.883 1.13542C233.517 1.33155 233.953 1.31091 234.394 1.29322C234.582 1.28584 234.749 1.27846 234.873 1.24897C234.937 1.23275 235.018 1.20915 235.018 1.18998C235.018 1.17523 234.9 1.15163 234.824 1.14868C234.292 1.11919 233.786 1.18113 233.264 1.19441C233.022 1.20031 232.813 1.14869 232.77 1.06464C232.759 1.04104 232.743 1.01597 232.727 0.992379C232.71 0.968784 232.7 0.943717 232.684 0.920122C232.474 0.912749 232.35 0.939288 232.259 0.989427C232.183 1.03072 232.076 1.07791 231.931 1.10003C231.785 1.12362 231.586 1.1192 231.409 1.12658C231.237 1.13395 231.049 1.15312 230.887 1.1428C230.726 1.131 230.597 1.08823 230.446 1.06168C230.376 1.04841 230.29 1.02925 230.22 1.0322C229.602 1.05727 228.989 1.08233 228.375 1.11477C228.053 1.13247 227.891 1.07054 227.687 1.0322C227.526 1.0027 227.364 1.01007 227.337 1.0779C227.267 1.24012 227.515 1.30795 228.063 1.27698C228.515 1.25043 228.924 1.24602 229.279 1.3463C229.327 1.35957 229.44 1.36547 229.51 1.36252C229.951 1.34482 230.387 1.3227 230.828 1.30501C230.909 1.30206 230.995 1.30795 231.07 1.31385C232.167 1.39348 232.167 1.39496 232.538 1.37726C232.716 1.36842 232.888 1.36104 232.872 1.13689C233.211 0.896523 233.749 0.880305 234.27 0.844913C234.609 0.822793 234.754 0.887681 234.975 0.921598C235.05 0.933396 235.131 0.956986 235.201 0.954036C236.357 0.905373 237.508 0.853752 238.659 0.79919C238.853 0.790342 238.993 0.799191 239.143 0.837532C239.337 0.886196 239.552 0.917171 239.859 0.899475C240.472 0.864083 241.096 0.841968 241.72 0.812475C242.037 0.797728 242.037 0.797713 242.677 0.889142C242.747 0.899465 242.838 0.911263 242.914 0.908313C243.538 0.883244 244.156 0.852286 244.775 0.825742C244.947 0.818368 245.103 0.839011 245.237 0.878827C245.372 0.918643 245.533 0.939286 245.7 0.931913C246.324 0.905369 246.942 0.875885 247.561 0.849341C247.636 0.846392 247.728 0.856714 247.797 0.867036C248.454 0.958465 248.454 0.95845 248.755 0.943704C249.196 0.921584 249.648 0.911273 250.083 0.881779C250.508 0.852286 250.729 0.937809 251.019 0.984999C251.815 0.951081 252.617 0.92307 253.407 0.881779C253.73 0.864084 253.902 0.912743 254.117 0.951084C254.193 0.964356 254.268 0.992378 254.338 0.990903C254.607 0.985004 254.87 0.968786 255.134 0.956989C255.398 0.945191 255.666 0.933396 255.93 0.921598C256.231 0.964363 256.43 1.06464 256.86 1.03072C257.119 1.01008 257.393 1.00565 257.656 0.993855C257.92 0.982058 258.189 0.970262 258.453 0.958465C258.63 0.951091 258.813 0.946661 258.985 0.933389C259.302 0.911269 259.458 0.983536 259.684 1.01598C259.76 1.0263 259.846 1.04399 259.915 1.04104C260.448 1.02039 260.986 1.0027 261.508 0.968779C261.911 0.942236 262.185 0.986481 262.47 1.04842C262.529 1.06169 262.632 1.06906 262.707 1.06611C263.331 1.04104 263.949 1.01007 264.568 0.983522C264.735 0.976149 264.896 0.999743 265.031 1.03808C265.17 1.0779 265.326 1.09708 265.498 1.08971C266.117 1.06317 266.741 1.03367 267.359 1.00712C267.435 1.00417 267.526 1.01597 267.596 1.02777C268.199 1.1192 268.199 1.12067 268.554 1.10298C268.64 1.09855 268.731 1.09559 268.817 1.09117C269.258 1.07052 269.715 1.06316 270.146 1.02777C270.64 0.987954 271.001 1.03809 271.35 1.12215C271.791 1.10445 272.243 1.09413 272.673 1.06464C272.996 1.04252 273.168 1.09855 273.384 1.13542C273.459 1.14869 273.539 1.17523 273.604 1.17228C274.228 1.14721 274.852 1.1251 275.465 1.08824C275.798 1.06759 275.944 1.13394 276.17 1.16786C276.245 1.17965 276.326 1.20031 276.395 1.19736C276.75 1.18556 277.106 1.16786 277.461 1.15164C277.875 1.13247 277.875 1.13394 278.423 1.22389C278.681 1.26666 278.94 1.23274 279.192 1.22242C279.461 1.21062 279.714 1.20177 279.929 1.26224C280.064 1.30058 280.225 1.32417 280.392 1.31827C280.747 1.305 281.107 1.29174 281.457 1.26962C281.736 1.25192 281.978 1.26371 282.183 1.31827C282.328 1.35661 282.479 1.3758 282.656 1.36695C283.452 1.33156 284.254 1.29468 285.05 1.26076C285.12 1.25781 285.216 1.27109 285.281 1.28436C285.432 1.3109 285.577 1.34039 285.722 1.36988C286.072 1.35661 286.432 1.35073 286.776 1.33008C287.142 1.30944 287.475 1.30206 287.76 1.38317C287.82 1.40086 287.906 1.42592 287.976 1.42444C288.245 1.41855 288.508 1.4038 288.772 1.39201C289.035 1.38021 289.304 1.36841 289.568 1.35662C289.874 1.39348 290.068 1.49966 290.498 1.46574C290.756 1.44509 291.031 1.44067 291.294 1.42887C291.558 1.41708 291.827 1.40381 292.09 1.39348C292.176 1.39053 292.273 1.38316 292.348 1.38905C292.429 1.39495 292.499 1.4156 292.569 1.43035C292.784 1.47311 292.983 1.51588 293.29 1.49082C293.548 1.47017 293.822 1.46574 294.086 1.45247C294.446 1.43625 294.446 1.43625 295.043 1.52916C295.285 1.5675 295.559 1.51736 295.791 1.54981C295.947 1.57193 296.081 1.60878 296.232 1.63385C296.296 1.64418 296.398 1.64859 296.474 1.64564C296.829 1.63237 297.189 1.61911 297.539 1.59699C297.824 1.57929 298.061 1.59698 298.26 1.65007C298.405 1.68841 298.55 1.70464 298.733 1.6958C299.62 1.6545 300.508 1.6191 301.39 1.57339C301.691 1.55717 301.933 1.58224 302.1 1.63533C302.385 1.72676 302.788 1.61911 303.084 1.69284C303.267 1.73856 303.45 1.79165 303.783 1.76953C304.397 1.73119 305.02 1.71053 305.639 1.68399C305.859 1.7238 306.08 1.76363 306.306 1.80344C306.661 1.78722 307.016 1.77099 307.371 1.75624C307.634 1.74445 307.903 1.73118 308.167 1.72085C308.253 1.7179 308.344 1.712 308.425 1.71938C308.506 1.72675 308.57 1.74592 308.646 1.76067C309.017 1.83293 309.017 1.83441 309.63 1.80492C309.893 1.79165 310.146 1.7828 310.367 1.84179C310.571 1.89635 310.813 1.90666 311.093 1.89044C311.62 1.86095 312.152 1.83883 312.69 1.81819C312.857 1.81081 313.013 1.83588 313.153 1.87422C313.363 1.93468 313.621 1.92879 313.884 1.91257C314.234 1.89192 314.578 1.87128 314.874 1.95386C314.933 1.97156 315.025 1.99661 315.089 1.99514C315.53 1.98334 315.977 1.9745 316.407 1.94648C316.837 1.91846 317.047 2.00989 317.343 2.05413C317.784 2.03496 318.23 2.01578 318.671 1.99661C318.757 1.99219 318.86 1.97893 318.935 1.9863C319.252 2.01727 319.435 2.12786 319.871 2.09395C320.124 2.07478 320.398 2.06888 320.661 2.06446C320.731 2.06299 320.823 2.08804 320.871 2.10721C320.898 2.11754 320.871 2.14555 320.839 2.1603C320.742 2.20159 320.624 2.23994 320.538 2.28271C320.527 2.28861 320.629 2.31514 320.688 2.32694C320.833 2.35348 321 2.34907 321.194 2.33727C321.361 2.32695 321.533 2.34759 321.651 2.39183C321.699 2.40953 321.683 2.43902 321.581 2.53634C321.581 2.6086 321.694 2.57615 321.732 2.52896C321.791 2.46113 321.678 2.43901 321.463 2.47588C321.312 2.50242 321.237 2.54077 321.275 2.57174C321.296 2.58796 321.398 2.6086 321.581 2.53634C322.054 2.44786 322.409 2.43165 322.764 2.41543C322.856 2.41101 322.963 2.39625 323.028 2.4051C323.259 2.44049 323.474 2.48326 323.7 2.52308C323.959 2.51423 324.201 2.4921 324.453 2.54961C324.808 2.63072 324.824 2.62335 325.169 2.60713C325.346 2.59828 325.524 2.59092 325.701 2.58354C325.879 2.57617 326.018 2.59828 326.174 2.6322C326.492 2.70151 326.519 2.7015 326.728 2.60713C326.852 2.54961 326.938 2.53045 327.094 2.55699C327.611 2.64695 327.616 2.65284 328.057 2.6263C328.423 2.60418 328.767 2.59828 329.036 2.68233C329.219 2.74132 329.278 2.72805 329.423 2.66612C329.81 2.50243 329.988 2.50537 330.714 2.62334C331.053 2.67938 331.402 2.61893 331.747 2.61155C332.037 2.60566 332.242 2.64104 332.263 2.73394C332.279 2.79146 332.328 2.83275 332.521 2.85192C332.596 2.8593 332.688 2.86962 332.763 2.86667C333.21 2.84897 333.651 2.82832 334.097 2.80768C334.323 2.79735 334.447 2.72806 334.404 2.63663C334.355 2.5393 334.441 2.5039 334.764 2.47588C334.958 2.45966 335.114 2.46262 335.27 2.48916C335.442 2.51866 335.393 2.5452 335.243 2.59829C334.882 2.72806 334.925 2.80767 335.388 2.89763C335.549 2.9286 335.678 2.95663 335.716 3.00234C335.738 3.02594 335.716 3.0569 335.765 3.0746C336.028 3.1734 336.394 3.23682 336.803 3.28401C337.195 3.24419 337.464 3.31054 337.765 3.36363C338.002 3.40492 338.282 3.36954 338.534 3.35479C338.819 3.33857 339.056 3.35036 339.261 3.40492C339.406 3.44326 339.556 3.46095 339.734 3.45358C340.089 3.43736 340.449 3.42704 340.799 3.40345C341.1 3.3828 341.326 3.4123 341.514 3.46244C341.751 3.52585 342.014 3.48307 342.262 3.49192C342.595 3.50224 342.762 3.63349 343.198 3.59809C343.456 3.57745 343.725 3.57008 343.994 3.56418C344.064 3.5627 344.15 3.58778 344.209 3.60547C344.494 3.68658 344.827 3.68215 345.193 3.65856C345.446 3.64234 345.693 3.6276 345.941 3.68363C346.35 3.77801 346.801 3.8606 347.232 3.94761C347.291 4.01544 347.248 4.09506 347.554 4.13487C347.716 4.15552 347.866 4.1865 347.99 4.22041C348.141 4.26023 348.28 4.27056 348.474 4.26023C348.824 4.23959 349.19 4.23515 349.534 4.2086C349.851 4.18501 350.05 4.23369 350.244 4.2794C350.4 4.31627 350.545 4.33396 350.733 4.30741C350.927 4.28234 351.067 4.29856 351.223 4.33838C351.443 4.39294 351.459 4.38705 352.191 4.40327C352.266 4.40474 352.357 4.42685 352.4 4.44602C352.422 4.45635 352.374 4.48586 352.336 4.5006C352.288 4.5183 352.212 4.53893 352.142 4.54336C351.346 4.5817 350.545 4.61561 349.749 4.65396C349.668 4.65838 349.582 4.66871 349.523 4.68346C349.458 4.69968 349.378 4.72179 349.378 4.74243C349.378 4.75718 349.485 4.77488 349.561 4.7852C349.797 4.81912 350.077 4.76751 350.308 4.80585C350.464 4.83092 350.593 4.8663 350.749 4.8899C350.814 4.90022 350.916 4.89875 350.997 4.8958C351.266 4.88548 351.529 4.87074 351.798 4.86189C351.873 4.86041 351.959 4.87517 352.029 4.88696C352.546 4.97544 352.546 4.97544 352.992 4.95627C353.17 4.94889 353.358 4.92677 353.525 4.93562C353.686 4.94447 353.826 4.98428 353.971 5.00935C354.272 5.06244 354.557 5.11405 354.579 5.22908C354.59 5.27332 354.767 5.31165 354.945 5.3146C355.117 5.31755 355.3 5.30134 355.477 5.29249C355.897 5.2748 355.897 5.2748 356.44 5.36475C356.59 5.38982 356.752 5.39277 356.945 5.37802C357.021 5.37212 357.112 5.37803 357.193 5.3854C357.456 5.40752 357.456 5.43553 357.284 5.48862C357.042 5.56678 357.064 5.57415 357.741 5.64051C358 5.66558 358.199 5.71277 358.414 5.75406C358.763 5.82042 358.758 5.82041 358.527 5.90742C358.473 5.92659 358.425 5.94724 358.371 5.96788C358.215 6.02539 358.091 6.08733 357.768 6.09323C357.413 6.09912 357.058 6.12273 356.703 6.13895C356.359 6.15517 356.268 6.19055 356.3 6.29083C356.338 6.41175 356.408 6.42502 357.026 6.42355C357.204 6.42355 357.36 6.43534 357.494 6.47516C357.429 6.52235 357.311 6.55921 357.139 6.56806C356.698 6.59018 356.252 6.60936 355.811 6.62853C355.456 6.64475 355.101 6.66096 354.746 6.67719C354.525 6.68751 354.385 6.7642 354.444 6.84973C354.477 6.89839 354.504 6.94705 354.53 6.99572C354.59 7.09304 354.703 7.11812 355.063 7.1137C355.154 7.11222 355.24 7.10042 355.326 7.10336C355.676 7.11369 355.843 7.23608 356.262 7.21101C356.612 7.19037 356.978 7.18595 357.322 7.1594C357.639 7.13581 357.817 7.18891 358.037 7.22873C358.113 7.242 358.193 7.27 358.258 7.26853C358.704 7.2523 359.151 7.2361 359.586 7.20808C359.791 7.19628 359.914 7.20512 360.076 7.24052C360.463 7.32605 360.474 7.32162 361.049 7.29508C361.469 7.27443 361.474 7.27738 362.012 7.36733C362.163 7.3924 362.324 7.3924 362.518 7.3806C362.77 7.36586 363.034 7.34226 363.298 7.36438C363.378 7.37028 363.48 7.38798 363.507 7.40715C363.523 7.42043 363.448 7.45287 363.384 7.46319C362.91 7.53987 362.356 7.5266 361.84 7.55757C361.679 7.56642 361.517 7.5384 361.383 7.49858C361.243 7.45877 361.092 7.44255 360.909 7.44992C360.554 7.46615 360.194 7.47646 359.845 7.50006C359.543 7.5207 359.333 7.48678 359.124 7.44107C359.054 7.42632 358.973 7.3983 358.903 7.39977C358.107 7.42927 357.306 7.45877 356.515 7.50006C356.198 7.51775 356.015 7.47057 355.8 7.43075C355.724 7.41748 355.649 7.38946 355.579 7.39093C355.31 7.39683 355.047 7.41305 354.778 7.42485C353.799 7.46909 352.825 7.51333 351.846 7.55462C351.782 7.55757 351.701 7.5266 351.626 7.51332C351.481 7.48678 351.33 7.46171 351.18 7.43664C350.911 7.44844 350.647 7.46318 350.378 7.47203C350.185 7.47793 350.012 7.49858 349.986 7.55462C349.969 7.59149 350.147 7.6254 350.335 7.62245C350.518 7.6195 350.701 7.6018 350.852 7.62097C351.599 7.71535 351.599 7.71683 352.067 7.69766C352.476 7.67996 352.433 7.66521 352.793 7.74631C352.949 7.78171 353.089 7.80236 353.267 7.79351C353.708 7.77287 354.154 7.75222 354.6 7.73452C354.67 7.73157 354.762 7.74633 354.832 7.75812C355.359 7.8466 355.359 7.84955 355.794 7.82743C356.365 7.80088 356.386 7.79351 356.768 7.88347C357.032 7.9454 357.273 7.90263 357.526 7.89969C357.817 7.9572 358.134 8.00882 358.398 8.0737C358.71 8.15039 359.038 8.1371 359.393 8.11498C359.656 8.09876 359.914 8.09286 360.13 8.15332C360.334 8.20936 360.581 8.21527 360.861 8.20052C361.114 8.18725 361.372 8.15922 361.636 8.19167C361.706 8.20051 361.813 8.22264 361.808 8.23591C361.802 8.25656 361.732 8.28605 361.662 8.2949C361.168 8.35536 360.624 8.35388 360.103 8.3819C360.033 8.38633 359.941 8.3701 359.871 8.3583C359.721 8.33176 359.576 8.3008 359.43 8.27278C359.167 8.28163 358.898 8.28457 358.64 8.30226C358.441 8.31554 358.29 8.31407 358.145 8.27868C358.01 8.24624 357.865 8.20642 357.704 8.19609C357.542 8.18577 357.354 8.20789 357.177 8.21674C356.999 8.22559 356.795 8.22116 356.655 8.24475C356.515 8.26835 356.429 8.31996 356.338 8.36125C356.235 8.40697 356.096 8.42173 355.891 8.42615C355.703 8.43057 355.552 8.42467 355.413 8.38338C355.353 8.36568 355.273 8.3524 355.192 8.34061C355.117 8.33028 355.031 8.31406 354.961 8.31701C354.159 8.35092 353.363 8.3878 352.562 8.4232C352.164 8.44089 352.169 8.44088 351.341 8.35387C351.266 8.3465 351.174 8.33618 351.099 8.33913C350.652 8.35683 350.211 8.37748 349.765 8.39812C349.313 8.41877 349.319 8.41582 348.549 8.32291C348.41 8.30522 348.205 8.32881 348.039 8.32586C347.689 8.31849 347.517 8.19462 347.108 8.21822C346.758 8.23886 346.393 8.24328 346.043 8.26983C345.726 8.29342 345.543 8.24181 345.328 8.202C345.252 8.18873 345.172 8.15923 345.107 8.16218C344.306 8.19462 343.51 8.23149 342.445 8.23591C342.181 8.23591 342.299 8.26688 342.472 8.27721C342.719 8.29343 342.8 8.26246 342.665 8.20347C342.568 8.16218 342.429 8.14152 342.316 8.15185C342.256 8.15774 342.181 8.18577 342.445 8.23591C342.724 8.29195 342.708 8.32291 342.757 8.34061C342.875 8.38337 343.042 8.40107 343.214 8.39517C343.483 8.38485 343.746 8.3701 344.015 8.36125C344.091 8.35831 344.182 8.36863 344.252 8.38043C344.844 8.47186 344.849 8.47776 345.478 8.44237C345.677 8.43205 345.822 8.43204 345.978 8.46006C346.194 8.4984 346.35 8.56328 346.678 8.54263C347.113 8.51462 347.56 8.49841 348.006 8.48219C348.076 8.47924 348.151 8.50578 348.232 8.51758C348.453 8.55297 348.614 8.61933 348.942 8.59131C349.195 8.56919 349.469 8.56328 349.738 8.55885C349.808 8.55738 349.916 8.58098 349.948 8.60015C350.012 8.63407 349.932 8.67389 349.749 8.70191C349.674 8.71371 349.571 8.71075 349.485 8.71518C349.13 8.7314 348.775 8.74909 348.42 8.76236C348.232 8.76973 348.055 8.79186 348.033 8.84642C348.017 8.88329 348.211 8.91573 348.393 8.91278C348.662 8.90835 348.931 8.89656 349.189 8.87739C349.647 8.84494 350.045 8.85379 350.416 8.94669C350.679 9.01158 350.663 8.98799 350.943 9.1797C351.013 9.22836 351.223 9.23278 351.406 9.22983C351.847 9.22246 352.051 9.24458 352.013 9.2903C351.965 9.34634 351.809 9.36402 351.61 9.37139C351.255 9.38319 350.9 9.40237 350.545 9.41859C350.459 9.42302 350.362 9.43186 350.281 9.42891C350.201 9.42596 350.125 9.40827 350.055 9.39499C349.905 9.36697 349.776 9.3242 349.614 9.31388C349.453 9.30356 349.265 9.32568 349.087 9.33453C348.91 9.3419 348.722 9.36402 348.56 9.3537C348.399 9.34338 348.264 9.29915 348.119 9.2726C348.049 9.25933 347.963 9.23867 347.893 9.24015C347.538 9.25194 347.183 9.27112 346.828 9.28587C346.393 9.30504 346.393 9.30504 345.866 9.21361C345.715 9.18707 345.559 9.18855 345.36 9.20035C344.93 9.22394 344.924 9.21951 344.139 9.13398C344.064 9.12513 343.972 9.11481 343.897 9.11923C343.095 9.15315 342.299 9.19001 341.503 9.2254C340.82 9.25637 340.82 9.25638 340.444 9.40385C340.164 9.51297 340.159 9.51297 340.433 9.56311C340.654 9.6044 340.853 9.66485 341.095 9.68697C341.321 9.70762 341.6 9.64126 341.848 9.7091C341.971 9.74301 342.133 9.77988 342.289 9.78578C342.536 9.79316 342.8 9.75038 343.036 9.81527C343.155 9.84771 343.332 9.88164 343.483 9.88311C343.746 9.88606 344.015 9.86246 344.279 9.85213C344.36 9.84918 344.451 9.84919 344.526 9.85656C344.607 9.86541 344.677 9.88311 344.747 9.89786C344.962 9.948 345.193 9.97158 345.473 9.94652C345.93 9.90522 346.339 9.92587 346.694 10.0202C346.742 10.0335 346.861 10.035 346.936 10.0291C347.13 10.0144 347.296 10.0129 347.441 10.0409C347.501 10.0527 347.587 10.0733 347.576 10.0866C347.56 10.1087 347.495 10.1382 347.425 10.1456C346.92 10.1957 346.376 10.2016 345.855 10.2282C345.785 10.2311 345.699 10.2119 345.629 10.1987C345.478 10.1721 345.349 10.1279 345.188 10.1176C345.026 10.1073 344.838 10.1264 344.661 10.1338C344.483 10.1412 344.295 10.1633 344.134 10.1544C343.972 10.1441 343.822 10.1073 343.693 10.0748C343.542 10.0379 343.397 10.0335 343.198 10.0483C342.94 10.0674 342.671 10.0704 342.407 10.0807C342.262 10.0527 342.117 10.0217 341.966 9.99517C341.896 9.9819 341.81 9.96569 341.735 9.96716C341.38 9.97896 341.025 9.99665 340.67 10.0129C340.315 10.0291 340.315 10.0291 339.712 9.93768C339.643 9.92735 339.551 9.91556 339.476 9.9185C339.029 9.9362 338.588 9.95831 338.142 9.976C337.97 9.98337 337.814 9.96273 337.674 9.92292C337.539 9.8831 337.378 9.86098 337.211 9.86835C336.501 9.89932 335.791 9.92882 335.081 9.96569C334.796 9.98043 334.554 9.96716 334.361 9.91408C334.135 9.85362 333.882 9.86837 333.618 9.88016C333.021 9.90966 333.016 9.90817 332.634 9.83296C332.559 9.81822 332.484 9.79019 332.414 9.79167C331.795 9.81379 331.171 9.83444 330.558 9.86983C330.235 9.889 330.063 9.83739 329.848 9.79905C329.773 9.78578 329.692 9.75776 329.628 9.76071C329.181 9.77693 328.735 9.79168 328.299 9.82117C327.863 9.85067 327.697 9.71353 327.368 9.715C326.922 9.71648 326.481 9.75039 326.04 9.77104C325.685 9.78726 325.33 9.80348 324.975 9.8197C324.62 9.83592 324.265 9.84918 323.91 9.86835C323.722 9.87868 323.582 9.8654 323.426 9.82854C323.227 9.77987 322.99 9.74155 322.775 9.69731C322.447 9.6339 322.447 9.63389 322.049 9.65158C321.963 9.65601 321.872 9.65895 321.786 9.66337C321.135 9.69582 321.135 9.69288 320.306 9.59997C320.269 9.59555 320.172 9.61178 320.134 9.62357C320.021 9.66191 319.919 9.7032 319.817 9.74301C319.672 9.71942 319.494 9.70615 319.397 9.67223C319.123 9.57638 318.693 9.70762 318.413 9.61324C318.311 9.57785 318.133 9.54688 317.972 9.53803C317.805 9.52918 317.617 9.54983 317.445 9.55868C316.999 9.5808 316.999 9.57933 316.617 9.71057C316.423 9.77546 316.143 9.76365 315.891 9.7784C315.627 9.79462 315.374 9.80347 315.154 9.74301C314.955 9.68845 314.713 9.67518 314.428 9.69288C314.078 9.715 313.718 9.72826 313.363 9.74154C313.287 9.74448 313.196 9.73712 313.121 9.72827C312.298 9.64126 312.298 9.63979 311.9 9.65896C311.722 9.66781 311.539 9.67075 311.367 9.68402C311.077 9.70762 310.856 9.67665 310.646 9.62946C310.577 9.61471 310.496 9.58671 310.426 9.58818C310.071 9.59556 309.721 9.60882 309.372 9.6221C309.103 9.63242 308.834 9.63832 308.576 9.65896C308.145 9.69288 307.936 9.59701 307.64 9.55277C307.199 9.57195 306.752 9.58522 306.311 9.61176C306.107 9.62356 305.972 9.61915 305.816 9.58375C305.617 9.53951 305.435 9.48938 305.112 9.5115C304.682 9.54099 304.23 9.55132 303.789 9.56901C303.493 9.5233 303.278 9.43038 302.853 9.4643C302.595 9.48494 302.32 9.48937 302.057 9.50116C301.702 9.51739 301.347 9.53214 300.992 9.54984C300.61 9.56754 300.615 9.56311 300.029 9.47611C299.69 9.42449 299.341 9.482 298.996 9.49085C298.727 9.49822 298.593 9.56605 298.658 9.65306C298.722 9.74006 298.577 9.8079 298.329 9.8197C297.711 9.84772 297.087 9.8772 296.468 9.90227C296.393 9.90522 296.302 9.8949 296.232 9.88457C295.57 9.79167 295.57 9.79316 295.274 9.80643C294.833 9.82855 294.382 9.84033 293.946 9.86835C293.645 9.88752 293.424 9.85657 293.23 9.80643C293.08 9.76809 292.94 9.75924 292.746 9.76809C290.617 9.86689 288.487 9.95831 286.362 10.0601C286.045 10.0748 285.862 10.0321 285.647 9.99224C285.571 9.97897 285.501 9.95094 285.426 9.95094C285.249 9.95094 285.071 9.96422 284.894 9.97307C284.098 10.0085 283.302 10.0512 282.5 10.0778C282.161 10.0896 282.07 10.1574 281.925 10.2134C281.812 10.2562 281.683 10.2739 281.484 10.2798C281.29 10.2857 281.15 10.2783 281 10.24C280.806 10.1898 280.586 10.1589 280.284 10.1795C279.935 10.2031 279.58 10.2134 279.219 10.2297C279.036 10.237 278.897 10.2636 278.837 10.3167C278.827 10.3255 278.94 10.3476 279.004 10.3609C279.219 10.4051 279.424 10.4568 279.666 10.4877C279.913 10.5187 280.182 10.4833 280.44 10.4744C280.532 10.4715 280.618 10.4626 280.704 10.4641C280.784 10.4656 280.881 10.473 280.94 10.4862C281.22 10.5526 281.516 10.5983 281.903 10.5585C282.237 10.5777 282.409 10.7001 282.834 10.6676C283.092 10.6485 283.361 10.6396 283.63 10.6322C283.7 10.6308 283.775 10.6573 283.85 10.6706C284.065 10.7074 284.238 10.7664 284.56 10.7414C284.904 10.7148 285.27 10.7104 285.62 10.6897C285.813 10.678 285.953 10.6883 286.104 10.7266C286.297 10.7753 286.518 10.8121 286.819 10.7885C287.077 10.7679 287.352 10.7635 287.615 10.7502C287.96 10.734 287.96 10.7355 288.573 10.8269C288.643 10.8372 288.734 10.849 288.809 10.8461C289.256 10.8284 289.697 10.8062 290.143 10.7885C290.315 10.7812 290.482 10.8003 290.6 10.8431C290.649 10.8608 290.633 10.8903 290.649 10.9154C289.761 10.9552 288.874 10.9891 287.992 11.0378C287.658 11.0569 287.508 10.9965 287.287 10.9626C287.212 10.9508 287.131 10.9257 287.061 10.9286C286.437 10.9537 285.819 10.9802 285.2 11.0127C285.007 11.023 284.861 11.0171 284.716 10.9743C284.345 10.8608 283.893 10.9227 283.474 10.939C283.151 10.9508 283.049 10.9965 283.087 11.0938C283.135 11.2088 283.328 11.2442 283.823 11.2236C284.001 11.2162 284.178 11.2059 284.356 11.2C284.528 11.1941 284.684 11.2132 284.824 11.2531C284.958 11.2929 285.12 11.3135 285.286 11.3076C285.641 11.2944 286.002 11.2811 286.346 11.259C286.631 11.2413 286.868 11.256 287.067 11.3106C287.287 11.371 287.545 11.3578 287.804 11.3445C288.406 11.315 288.411 11.3165 288.788 11.3902C288.863 11.405 288.938 11.433 289.008 11.4315C289.627 11.4094 290.251 11.3902 290.859 11.3548C291.176 11.3371 291.359 11.3843 291.569 11.4227C291.644 11.4359 291.719 11.4654 291.789 11.4625C292.236 11.4462 292.682 11.43 293.118 11.402C293.322 11.3887 293.446 11.3976 293.612 11.433C294.01 11.52 294.021 11.517 294.586 11.489C294.758 11.4802 294.946 11.4639 295.108 11.4757C295.269 11.4875 295.398 11.5303 295.549 11.5569C295.619 11.5686 295.705 11.5849 295.78 11.5819C296.135 11.5701 296.49 11.5524 296.845 11.5362C297.178 11.52 297.178 11.5215 297.802 11.6129C298.055 11.6512 298.319 11.6188 298.572 11.607C298.846 11.5937 299.093 11.5937 299.303 11.6512C299.513 11.7087 299.766 11.7058 300.035 11.694C300.287 11.6822 300.545 11.6498 300.804 11.6896C301.395 11.781 301.395 11.7825 301.761 11.7648C302.293 11.7397 302.821 11.7161 303.358 11.694C303.428 11.691 303.52 11.7087 303.59 11.7205C303.74 11.7471 303.869 11.7913 304.031 11.8016C304.192 11.8134 304.38 11.7957 304.552 11.7869C305.106 11.7589 305.144 11.7486 305.515 11.8459C305.827 11.9255 306.215 11.8105 306.505 11.9019C306.672 11.9535 306.898 11.9948 307.209 11.9697C307.468 11.9491 307.737 11.9432 308.005 11.9314C308.43 11.9122 308.43 11.9137 308.968 12.0022C309.038 12.014 309.13 12.0287 309.2 12.0258C309.555 12.014 309.915 12.0037 310.259 11.9771C310.663 11.9462 310.921 12.0022 311.222 12.0568C311.459 12.0995 311.738 12.0641 311.991 12.0494C312.265 12.0346 312.513 12.0391 312.717 12.0966C312.932 12.1556 313.185 12.1482 313.454 12.1364C313.707 12.1261 313.965 12.0921 314.223 12.1334C314.777 12.2249 314.777 12.2249 315.181 12.2072C315.536 12.1909 315.891 12.1733 316.246 12.1615C316.315 12.1585 316.401 12.1777 316.471 12.1909C316.622 12.2175 316.751 12.2617 316.912 12.2721C317.074 12.2824 317.262 12.2632 317.44 12.2558C317.617 12.2485 317.805 12.2263 317.967 12.2352C318.128 12.244 318.279 12.2809 318.408 12.3134C318.558 12.3517 318.698 12.3561 318.903 12.3414C319.161 12.3222 319.43 12.3178 319.693 12.3074C319.838 12.3355 319.989 12.3635 320.129 12.3944C320.274 12.4269 320.43 12.4239 320.629 12.4136C321.291 12.3782 321.296 12.3827 321.85 12.4741C322.103 12.5154 322.366 12.4815 322.619 12.4711C322.888 12.4593 323.141 12.4534 323.351 12.5124C323.555 12.5685 323.808 12.5758 324.077 12.5581C324.249 12.5463 324.432 12.539 324.609 12.5346C324.69 12.5331 324.787 12.539 324.846 12.5508C325.131 12.6127 325.411 12.6687 325.803 12.6289C326.148 12.6407 326.32 12.7617 326.734 12.7381C327.083 12.7174 327.449 12.713 327.793 12.6864C328.111 12.6628 328.337 12.7041 328.498 12.7558C328.788 12.8472 329.197 12.7233 329.488 12.8133C329.654 12.8649 329.87 12.9062 330.192 12.884C330.547 12.8605 330.66 12.8914 330.762 12.9843C330.822 13.0374 330.811 13.0802 330.703 13.1215C330.596 13.1642 330.477 13.1569 330.305 13.1082C330.106 13.0536 329.87 13.0433 329.585 13.0551C329.305 13.0669 329.133 12.9902 328.901 12.9607C328.67 12.9298 328.396 12.9814 328.154 12.9416C327.584 12.8487 327.584 12.8487 327.196 12.8664C326.933 12.8781 326.659 12.884 326.4 12.9047C326.094 12.9298 325.895 12.884 325.685 12.8428C325.61 12.828 325.534 12.8 325.47 12.8015C324.851 12.8236 324.227 12.8442 323.614 12.8811C323.292 12.9003 323.119 12.8472 322.904 12.8103C322.829 12.797 322.748 12.7705 322.684 12.7734C322.151 12.7941 321.624 12.8206 321.092 12.8457C320.989 12.8855 320.876 12.9239 320.78 12.9666C320.677 13.0109 320.538 13.03 320.333 13.0286C319.994 13.0286 319.661 13.0905 319.322 13.0123C318.972 12.9327 318.946 12.9371 318.607 12.9563C318.177 12.9814 317.719 12.9755 317.316 13.033C317.246 13.0433 317.171 13.0713 317.171 13.092C317.165 13.1052 317.278 13.1244 317.348 13.1362C317.585 13.1716 317.859 13.12 318.096 13.1569C318.252 13.1804 318.381 13.2158 318.537 13.2409C318.601 13.2512 318.698 13.2498 318.784 13.2483C318.876 13.2468 318.962 13.2365 319.048 13.238C319.128 13.2394 319.215 13.2483 319.279 13.2615C319.575 13.3176 319.887 13.3692 320.15 13.4356C320.409 13.5005 320.651 13.4562 320.909 13.4533C321.941 13.5565 321.942 13.558 322.635 13.5255C322.807 13.5181 322.985 13.5093 323.162 13.5108C323.238 13.5108 323.308 13.5373 323.383 13.5521C323.598 13.5963 323.803 13.6361 324.104 13.6125C324.362 13.5919 324.636 13.5874 324.9 13.5742C325.255 13.558 325.255 13.558 325.857 13.6509C326.008 13.6745 326.169 13.6715 326.363 13.6597C326.529 13.6494 326.702 13.6715 326.82 13.7143C326.868 13.732 326.852 13.7615 326.868 13.7865C326.336 13.8101 325.798 13.8264 325.282 13.8617C324.948 13.8839 324.798 13.8205 324.577 13.7865C324.502 13.7747 324.421 13.7497 324.351 13.7526C323.824 13.7747 323.297 13.7998 322.77 13.8293C322.705 13.8322 322.625 13.8662 322.619 13.8868C322.608 13.9251 322.743 13.962 322.936 13.9605C323.195 13.9591 323.448 13.934 323.679 13.9945C323.872 14.0475 324.114 14.0711 324.399 14.0476C324.572 14.0343 324.755 14.0343 324.927 14.0225C325.384 13.9871 325.798 13.9945 326.142 14.0947C326.406 14.1213 326.664 14.0962 326.917 14.0829C327.105 14.0726 327.288 14.0623 327.422 14.0903C327.707 14.1493 327.987 14.2083 328.38 14.1685C328.805 14.2098 329.127 14.2968 329.482 14.3675C329.649 14.4015 329.778 14.4206 329.972 14.3985C330.052 14.3897 330.149 14.3897 330.235 14.3852C330.413 14.3779 330.601 14.3557 330.762 14.3646C330.924 14.3749 331.058 14.4177 331.203 14.4442C331.273 14.4575 331.354 14.4796 331.424 14.4781C331.693 14.4708 331.956 14.456 332.22 14.4442C332.484 14.4339 332.747 14.4236 333.011 14.4133C333.231 14.4516 333.457 14.49 333.678 14.5283C334.033 14.5121 334.388 14.4958 334.737 14.4811C335.13 14.4634 335.13 14.4649 335.695 14.5563C335.947 14.5976 336.216 14.571 336.458 14.5519C336.862 14.5209 337.131 14.577 337.416 14.6359C337.475 14.6477 337.582 14.6551 337.652 14.6492C337.932 14.6286 338.174 14.6448 338.378 14.6993C338.524 14.7377 338.669 14.7554 338.846 14.748C339.465 14.72 340.083 14.6905 340.702 14.6654C340.777 14.6625 340.863 14.6758 340.933 14.6876C341.482 14.7775 341.487 14.7819 341.891 14.7583C342.251 14.7377 342.585 14.7288 342.87 14.8099C342.929 14.8276 343.02 14.8527 343.085 14.8512C343.526 14.8365 343.972 14.8203 344.408 14.7952C344.607 14.7834 344.747 14.7878 344.903 14.8218C345.102 14.8645 345.279 14.9161 345.607 14.897C346.516 14.8424 346.522 14.8512 347.597 14.953C347.673 14.9604 347.775 14.9486 347.861 14.9427C348.044 14.9279 348.178 14.9486 348.34 14.9825C348.7 15.0592 348.711 15.0547 349.055 15.0385C349.319 15.0253 349.593 15.0223 349.851 15.0002C350.249 14.9677 350.513 15.0253 350.808 15.0798C351.045 15.1226 351.319 15.0872 351.572 15.0739C351.846 15.0592 352.094 15.0636 352.298 15.1196C352.438 15.158 352.589 15.1786 352.766 15.1712C353.385 15.1447 354.003 15.1152 354.622 15.0887C354.697 15.0857 354.789 15.0975 354.859 15.1078C355.472 15.1993 355.472 15.2037 356.079 15.1698C356.273 15.1594 356.434 15.1565 356.58 15.1875C356.72 15.217 356.87 15.245 357.015 15.273C357.279 15.2627 357.548 15.2597 357.806 15.242C358.005 15.2288 358.145 15.2347 358.301 15.2656C358.505 15.3054 358.677 15.3747 359 15.3408C359.167 15.3246 359.36 15.329 359.527 15.3143C359.726 15.2951 359.861 15.3069 360.017 15.3452C360.21 15.391 360.409 15.4381 360.721 15.4145C361.065 15.388 361.431 15.3836 361.781 15.3629C361.974 15.3511 362.109 15.3629 362.265 15.4013C362.459 15.4499 362.679 15.4809 362.98 15.4617C363.593 15.4249 363.599 15.4322 364.196 15.5251C364.346 15.5487 364.508 15.5458 364.701 15.534C364.868 15.5237 365.04 15.5458 365.159 15.5886C365.271 15.6358 365.261 15.6652 365.271 15.6903ZM317.343 2.39035C317.165 2.39773 316.988 2.40657 316.73 2.27828C316.713 2.25616 316.724 2.22962 316.687 2.21045C316.601 2.17063 316.466 2.14262 316.305 2.13819C316.014 2.13229 315.665 2.18242 315.67 2.22076C315.675 2.25321 315.767 2.28122 315.944 2.30777C316.02 2.31809 316.079 2.33579 316.149 2.34758C316.353 2.3815 316.514 2.44787 316.81 2.41395C316.757 2.32253 316.783 2.36824 316.81 2.41395C316.783 2.46999 316.864 2.50981 317.058 2.52603C317.112 2.53045 317.192 2.5275 317.235 2.51865C317.402 2.48621 317.429 2.44198 317.305 2.32548C317.284 2.34465 317.3 2.37855 317.348 2.3874C317.397 2.39625 317.515 2.38889 317.574 2.37856C317.725 2.35055 317.8 2.31368 317.762 2.28271C317.741 2.26649 317.639 2.24584 317.574 2.24584C317.461 2.24584 317.359 2.27828 317.343 2.39035ZM360.834 19.492C360.441 19.52 359.99 19.5097 359.597 19.5672C359.527 19.5775 359.457 19.6041 359.452 19.6247C359.447 19.638 359.554 19.6572 359.619 19.6675C359.764 19.6911 359.925 19.6837 360.113 19.6763C360.398 19.666 360.565 19.7338 360.786 19.7678C360.856 19.7781 360.947 19.7854 361.022 19.7825C361.458 19.7648 361.888 19.7456 362.324 19.725C362.399 19.7206 362.48 19.7102 362.545 19.697C362.76 19.6542 362.738 19.6262 362.528 19.5938C362.297 19.5584 362.114 19.4994 361.878 19.4713C361.539 19.4315 361.194 19.4846 360.834 19.492ZM330.289 20.5685C330.026 20.5803 329.767 20.5921 329.504 20.6039C329.418 20.6083 329.326 20.6098 329.246 20.6157C329.079 20.626 328.955 20.657 328.874 20.7056C328.998 20.744 329.149 20.7661 329.316 20.7617C329.579 20.7528 329.837 20.7337 330.101 20.7292C330.386 20.7233 330.553 20.7897 330.773 20.8236C330.843 20.8339 330.929 20.8354 331.01 20.8369C331.408 20.8428 331.65 20.7661 331.575 20.6585C331.521 20.5744 331.316 20.5243 331.069 20.5346C330.811 20.5449 330.547 20.5567 330.289 20.5685ZM362.674 17.3124C362.738 17.2874 362.808 17.2697 362.84 17.2476C362.937 17.1724 362.899 17.1163 362.722 17.0573C362.507 16.9851 362.243 17.0337 362.001 17.0411C361.942 17.0426 361.878 17.0735 361.845 17.0927C361.824 17.106 361.824 17.134 361.856 17.1414C362.12 17.2004 362.399 17.2549 362.674 17.3124ZM316.014 12.9563C315.756 12.9681 315.493 12.9769 315.234 12.9932C315.17 12.9976 315.111 13.0256 315.073 13.0448C315.003 13.0802 315.078 13.1288 315.299 13.1333C315.552 13.1392 315.815 13.1141 316.079 13.1023C316.412 13.0875 316.611 13.033 316.488 12.9858C316.369 12.9401 316.208 12.9312 316.014 12.9563ZM32.8901 9.80495C33.0622 9.79758 33.2397 9.79168 33.4118 9.78135C33.5732 9.77103 33.697 9.73859 33.7776 9.68993C33.6432 9.65158 33.4925 9.63094 33.3258 9.63536C33.0622 9.64421 32.8041 9.65601 32.5459 9.67075C32.3846 9.6796 32.2286 9.71204 32.191 9.76218C32.1533 9.80052 32.5136 9.82265 32.8901 9.80495ZM293.268 9.57785C293.338 9.59112 293.408 9.61767 293.478 9.61767C293.65 9.61767 293.828 9.60882 293.989 9.59407C294.059 9.58817 294.113 9.56163 294.145 9.54098C294.166 9.52771 294.161 9.50412 294.129 9.49233C293.973 9.42154 293.349 9.44661 293.247 9.52772C293.236 9.54246 293.263 9.56163 293.268 9.57785ZM276.299 1.50261C276.315 1.5262 276.32 1.54979 276.342 1.57339C276.385 1.61763 276.503 1.65008 276.675 1.6722C276.81 1.63533 276.88 1.59404 276.874 1.54981C276.869 1.52621 276.853 1.5026 276.831 1.47901C276.788 1.43477 276.67 1.40234 276.498 1.38022C276.363 1.41561 276.299 1.45689 276.299 1.50261ZM375.104 20.8251C375.055 20.8443 375.007 20.8634 374.953 20.8811C375.098 20.9239 375.233 20.9372 375.335 20.9136C375.399 20.8988 375.437 20.8767 375.486 20.8575C375.34 20.8148 375.211 20.803 375.104 20.8251ZM371.758 21.0256C371.828 21.0389 371.893 21.0566 371.968 21.0655C372.092 21.0802 372.204 21.0551 372.291 21.002C372.221 20.9888 372.156 20.9711 372.081 20.9622C371.957 20.9475 371.844 20.9726 371.758 21.0256ZM373.877 20.7558C373.84 20.7912 373.915 20.8207 374.114 20.8457C374.162 20.8266 374.227 20.8089 374.259 20.7882C374.313 20.7543 374.221 20.7233 374.028 20.6997C373.974 20.7174 373.926 20.7366 373.877 20.7558ZM362.523 19.1661C362.485 19.2015 362.561 19.231 362.76 19.256C362.808 19.2369 362.873 19.2192 362.905 19.1985C362.959 19.1646 362.867 19.1337 362.674 19.1101C362.62 19.1278 362.571 19.1469 362.523 19.1661ZM347.054 8.7314C347.006 8.75057 346.957 8.76974 346.904 8.78743C347.049 8.8302 347.183 8.84347 347.285 8.81987C347.35 8.80513 347.388 8.783 347.436 8.76383C347.291 8.72107 347.162 8.70928 347.054 8.7314ZM332.236 3.19551C332.365 3.20584 332.473 3.1852 332.564 3.13064C332.494 3.11737 332.43 3.09967 332.354 3.09082C332.231 3.07607 332.118 3.10115 332.032 3.15424C332.102 3.16898 332.172 3.18224 332.236 3.19551ZM324.367 2.84897C324.319 2.86814 324.27 2.88731 324.217 2.90501C324.362 2.94777 324.496 2.96104 324.599 2.93745C324.663 2.9227 324.701 2.90058 324.749 2.88141C324.604 2.83864 324.475 2.82833 324.367 2.84897ZM271.006 1.50113C270.958 1.5203 270.909 1.53947 270.856 1.55717C271.001 1.59993 271.135 1.6132 271.237 1.58961C271.302 1.57486 271.34 1.55274 271.388 1.53357C271.243 1.4908 271.114 1.48048 271.006 1.50113ZM5.30861 13.499C5.23869 13.4857 5.16883 13.4724 5.10429 13.4577C4.94831 13.4975 4.89992 13.5344 4.98597 13.5624C5.03976 13.5801 5.12038 13.5904 5.1903 13.6037C5.35166 13.5639 5.38929 13.5285 5.30861 13.499Z" fill="#FFE492"/>
<path d="M36.5051 8.29211C35.8866 8.32012 35.2734 8.35551 34.6549 8.3732C34.3268 8.38205 34.2086 8.44546 34.0741 8.50445C33.9665 8.55164 33.8428 8.56638 33.6438 8.57523C31.9657 8.64749 30.2929 8.72417 28.6201 8.79938C28.4104 8.78021 28.3082 8.74925 28.3566 8.71238C28.3835 8.69026 28.448 8.65929 28.5126 8.65634C29.6582 8.60178 30.7984 8.54574 31.9494 8.50297C32.2775 8.49117 32.369 8.42629 32.5358 8.3732C32.5895 8.35551 32.6326 8.32896 32.7025 8.31864C32.7725 8.30684 32.8746 8.30832 32.9661 8.30537C34.8163 8.22132 36.6666 8.13874 38.5168 8.05469C38.7266 8.07386 38.8288 8.10482 38.7804 8.14169C38.7535 8.16381 38.6889 8.19478 38.6244 8.19773C37.9144 8.22869 37.2097 8.25966 36.5051 8.29211Z" fill="#FFE492"/>
<path d="M375.533 16.1451C375.254 16.1628 374.899 16.1879 374.608 16.1023C374.468 16.061 374.318 16.0478 374.135 16.0566C373.871 16.0714 373.602 16.0832 373.333 16.092C373.263 16.0935 373.172 16.0773 373.102 16.064C372.951 16.0374 372.822 15.9932 372.661 15.9814C372.5 15.9696 372.306 16.0021 372.139 15.9947C371.919 15.9844 371.827 15.9445 371.886 15.9077C371.919 15.887 371.983 15.8575 372.053 15.8531C373.048 15.7986 373.054 15.7986 373.333 15.8516C373.548 15.8929 373.748 15.9386 374.054 15.9136C374.312 15.8929 374.587 15.8885 374.85 15.8752C375.216 15.8575 375.216 15.859 375.808 15.9519C375.958 15.9755 376.119 15.974 376.313 15.9608C376.48 15.9504 376.641 15.974 376.776 16.0139C376.69 16.064 376.566 16.0964 376.399 16.1053C376.13 16.12 375.867 16.1304 375.533 16.1451Z" fill="#FFE492"/>
<path d="M365.066 15.6904C365.744 15.6594 366.427 15.6329 367.105 15.5975C367.384 15.5828 367.605 15.599 367.799 15.6491C368.008 15.7037 368.245 15.6993 368.503 15.6889C368.665 15.683 368.821 15.7066 368.928 15.7479C368.971 15.7641 368.96 15.7936 368.976 15.8172C368.385 15.8438 367.788 15.8718 367.191 15.8954C367.121 15.8983 367.035 15.8836 366.97 15.8718C366.825 15.8467 366.701 15.8025 366.545 15.7936C366.212 15.773 365.878 15.8128 365.54 15.8202C365.378 15.8231 365.222 15.801 365.115 15.7612C365.072 15.742 365.082 15.714 365.066 15.6904Z" fill="#FFE492"/>
<path d="M120.182 3.01137C120.887 2.97892 121.592 2.94797 122.296 2.91553C122.506 2.93617 122.603 2.96566 122.56 3.00253C122.533 3.02465 122.468 3.05562 122.404 3.05857C120.994 3.12492 119.585 3.18833 118.182 3.25174C117.972 3.23109 117.875 3.2016 117.918 3.16474C117.945 3.14262 118.009 3.11165 118.074 3.1087C118.773 3.07478 119.478 3.04381 120.182 3.01137Z" fill="#FFE492"/>
<path d="M11.37 11.2058C11.0526 11.2088 10.7192 11.2634 10.3642 11.2221C10.2943 11.2147 10.1975 11.1911 10.2029 11.1778C10.2136 11.1557 10.2782 11.1277 10.3481 11.1188C10.6547 11.082 11.0366 11.0775 11.1926 10.9743C11.2679 10.9212 11.4077 10.9035 11.596 10.8932C11.795 10.8814 11.9348 10.8858 12.0907 10.9168C12.2951 10.9566 12.4673 11.0304 12.79 10.992C12.8061 11.0156 12.8437 11.0421 12.8275 11.0643C12.8114 11.0864 12.7416 11.107 12.6771 11.1233C12.6179 11.138 12.5371 11.1513 12.4618 11.1557C12.1068 11.1734 11.7518 11.1882 11.37 11.2058Z" fill="#FFE492"/>
<path d="M291.06 10.9093C291.324 10.8975 291.598 10.8916 291.856 10.871C292.061 10.8548 292.19 10.8651 292.351 10.9005C292.625 10.9624 292.641 10.9565 293.314 10.9654C293.389 10.9669 293.481 10.989 293.524 11.0081C293.55 11.0185 293.513 11.0465 293.48 11.0612C293.432 11.0804 293.362 11.1055 293.298 11.1055C292.873 11.1099 292.442 11.1969 292.028 11.0966C291.819 11.0465 291.587 11.0229 291.302 11.045C291.13 11.0583 290.947 11.0642 290.77 11.0701C290.598 11.076 290.42 11.0598 290.313 11.0155C290.157 10.9506 290.248 10.9256 290.528 10.93C290.705 10.9329 290.883 10.9167 291.06 10.9093Z" fill="#FFE492"/>
<path d="M388.526 21.0749C388.865 21.0601 389.204 21.0424 389.548 21.0306C389.618 21.0277 389.704 21.0439 389.769 21.0542C390.027 21.0985 389.989 21.1737 390 21.24C390.005 21.3093 389.408 21.3654 389.155 21.3182C388.876 21.2651 388.623 21.2046 388.236 21.2371C388.085 21.2489 387.908 21.2223 387.811 21.1796C387.666 21.1176 387.746 21.0926 388.021 21.097C388.182 21.0999 388.354 21.0837 388.526 21.0749Z" fill="#FFE492"/>
<path d="M217.761 1.00275C218.111 0.986525 218.46 0.961468 218.81 0.959994C219.014 0.958519 219.116 1.00717 219.068 1.04257C219.041 1.06469 218.977 1.09565 218.912 1.0986C218.213 1.134 217.514 1.16349 216.814 1.19594C216.61 1.17529 216.508 1.14433 216.556 1.10894C216.583 1.08682 216.648 1.05732 216.712 1.0529C217.062 1.03225 217.412 1.01897 217.761 1.00275Z" fill="#FFE492"/>
<path d="M381.735 16.2744C382.073 16.2597 382.418 16.2375 382.756 16.2302C382.934 16.2272 383.074 16.2611 383.095 16.2995C383.106 16.3172 383.02 16.3481 382.95 16.3555C382.466 16.4056 381.944 16.4115 381.439 16.4366C381.277 16.444 381.105 16.4204 381.008 16.3791C380.863 16.3157 380.944 16.2921 381.218 16.2965C381.39 16.298 381.562 16.2818 381.735 16.2744Z" fill="#FFE492"/>
<path d="M300.003 11.1087C300.175 11.1013 300.352 11.0821 300.519 11.088C300.696 11.0954 300.809 11.1382 300.863 11.1809C300.922 11.2296 300.917 11.2753 300.863 11.3166C300.777 11.3874 300.691 11.3844 300.492 11.3373C300.185 11.2635 300.164 11.2724 299.556 11.2753C299.486 11.2753 299.4 11.2532 299.346 11.234C299.266 11.2045 299.309 11.1588 299.497 11.1323C299.637 11.1131 299.831 11.116 300.003 11.1087Z" fill="#FFE492"/>
<path d="M370.128 15.7905C370.381 15.7787 370.633 15.7596 370.886 15.7596C371.064 15.7581 371.204 15.792 371.22 15.8289C371.225 15.8466 371.144 15.8761 371.08 15.8849C370.773 15.9247 370.429 15.9277 370.096 15.9409C369.94 15.9468 369.767 15.9232 369.671 15.882C369.525 15.82 369.612 15.792 369.875 15.8008C369.956 15.8038 370.042 15.795 370.128 15.7905Z" fill="#FFE492"/>
<path d="M329.491 13.9816C329.114 13.9993 328.759 13.9772 328.786 13.9388C328.824 13.8887 328.98 13.8562 329.141 13.8474C329.399 13.8326 329.657 13.8208 329.921 13.812C330.088 13.8061 330.238 13.8282 330.373 13.8665C330.292 13.9137 330.168 13.9476 330.007 13.958C329.84 13.9683 329.663 13.9742 329.491 13.9816Z" fill="#FFE492"/>
<path d="M327.046 13.7927C327.299 13.7809 327.552 13.7618 327.805 13.7618C327.982 13.7603 328.122 13.7942 328.138 13.8311C328.143 13.8488 328.063 13.8783 327.998 13.8871C327.692 13.9269 327.347 13.9299 327.014 13.9431C326.858 13.949 326.686 13.9254 326.589 13.8842C326.444 13.8222 326.53 13.7942 326.793 13.8031C326.874 13.806 326.96 13.7972 327.046 13.7927Z" fill="#FFE492"/>
<path d="M297.567 11.0972C297.82 11.0854 298.073 11.0662 298.326 11.0647C298.503 11.0633 298.643 11.0972 298.659 11.1341C298.664 11.1518 298.584 11.1798 298.519 11.1901C298.213 11.2299 297.868 11.2329 297.535 11.2461C297.379 11.252 297.207 11.2284 297.11 11.1872C296.965 11.1252 297.051 11.0972 297.314 11.106C297.395 11.109 297.481 11.1001 297.567 11.0972Z" fill="#FFE492"/>
<path d="M295.452 11.0096C295.721 10.9979 295.807 10.9905 295.893 10.9905C296.054 10.9905 296.221 11.0082 296.318 11.0509C296.463 11.1129 296.377 11.1306 296.113 11.1335C295.775 11.1365 295.441 11.1675 295.102 11.1734C294.925 11.1763 294.785 11.1409 294.774 11.104C294.769 11.0863 294.849 11.0554 294.914 11.0495C295.14 11.0273 295.387 11.0141 295.452 11.0096Z" fill="#FFE492"/>
<path d="M325.03 2.33463C324.857 2.342 324.675 2.36265 324.513 2.35528C324.298 2.34495 324.212 2.30514 324.266 2.26828C324.298 2.24763 324.357 2.21814 324.422 2.21371C324.766 2.19307 325.116 2.17979 325.46 2.16504C325.664 2.18716 325.756 2.21812 325.702 2.25499C325.67 2.27564 325.61 2.30365 325.546 2.30955C325.379 2.3243 325.202 2.32726 325.03 2.33463Z" fill="#FFE492"/>
<path d="M116.261 3.18489C116.428 3.18342 116.578 3.20259 116.708 3.23946C116.627 3.28664 116.509 3.31761 116.347 3.33088C116.267 3.33678 116.175 3.3412 116.089 3.34267C115.922 3.34562 115.772 3.32498 115.643 3.28811C115.723 3.24092 115.847 3.20996 116.003 3.19668C116.084 3.19079 116.175 3.18932 116.261 3.18489Z" fill="#FFE492"/>
<path d="M380.937 16.2685C380.932 16.2257 381.26 16.177 381.556 16.1785C381.712 16.18 381.873 16.2006 381.965 16.2404C382.104 16.3009 382.024 16.3245 381.76 16.3201C381.599 16.3171 381.427 16.3422 381.265 16.3378C381.082 16.3363 380.975 16.3038 380.937 16.2685Z" fill="#FFE492"/>
<path d="M301.598 11.2869C301.593 11.2707 301.566 11.2515 301.582 11.2368C301.684 11.1557 302.303 11.1306 302.464 11.2014C302.491 11.2147 302.502 11.2368 302.48 11.2501C302.448 11.2707 302.389 11.2972 302.324 11.3031C302.157 11.3179 301.985 11.3253 301.813 11.3267C301.738 11.3267 301.668 11.3017 301.598 11.2869Z" fill="#FFE492"/>
<path d="M14.1928 10.97C13.5581 11.001 13.5474 10.998 13.6603 10.9243C13.7625 10.8579 13.9508 10.8181 14.2251 10.8181C14.3058 10.8181 14.3918 10.8152 14.4617 10.8211C14.537 10.8284 14.6447 10.8432 14.6608 10.8609C14.6931 10.8948 14.6016 10.9317 14.4402 10.9567C14.3703 10.9685 14.2789 10.9656 14.1928 10.97Z" fill="#FFE492"/>
<path d="M124.083 2.97751C123.894 3.00258 123.733 2.99374 123.615 2.94655C123.496 2.89936 123.685 2.84332 124.013 2.83005C124.099 2.8271 124.19 2.81531 124.271 2.82121C124.352 2.82563 124.432 2.84331 124.481 2.86101C124.567 2.8905 124.513 2.93033 124.341 2.96425C124.271 2.97752 124.169 2.97457 124.083 2.97751Z" fill="#FFE492"/>
<path d="M379.814 16.1576C379.863 16.1384 379.911 16.1193 379.965 16.1016C380.164 16.1266 380.25 16.1561 380.196 16.19C380.164 16.2107 380.099 16.2284 380.051 16.2476C379.852 16.2225 379.771 16.1915 379.814 16.1576Z" fill="#FFE492"/>
<path d="M22.6738 27.7571C22.6738 27.7394 22.7491 27.7114 22.8083 27.7055C22.9212 27.6952 23.061 27.7158 23.1578 27.7571C23.2923 27.8161 23.2117 27.8471 22.9643 27.8309C22.7922 27.8191 22.6738 27.7896 22.6738 27.7571Z" fill="#FFE492"/>
<path d="M304.17 9.91419C304.24 9.92746 304.31 9.94074 304.375 9.95548C304.283 10.01 304.17 10.0336 304.052 10.0189C303.977 10.01 303.912 9.99234 303.842 9.97907C303.933 9.9245 304.041 9.90387 304.17 9.91419Z" fill="#FFE492"/>
<path d="M302.853 9.84783C302.961 9.82571 303.09 9.83753 303.24 9.88029C303.192 9.89946 303.149 9.92158 303.09 9.93633C302.988 9.95992 302.853 9.94811 302.708 9.90387C302.751 9.88618 302.799 9.86701 302.853 9.84783Z" fill="#FFE492"/>
<path d="M300.77 9.91275C300.84 9.92603 300.91 9.9393 300.975 9.95405C300.883 10.0086 300.776 10.0322 300.652 10.0174C300.577 10.0086 300.512 9.9909 300.442 9.97763C300.534 9.92307 300.641 9.90096 300.77 9.91275Z" fill="#FFE492"/>
<path d="M299.674 9.83426C299.754 9.86376 299.711 9.89914 299.556 9.93896C299.486 9.92569 299.405 9.91538 299.351 9.89768C299.265 9.86966 299.308 9.83278 299.469 9.79297C299.534 9.80772 299.604 9.82099 299.674 9.83426Z" fill="#FFE492"/>
</svg>
