<svg width="315" height="852" viewBox="0 0 315 852" fill="none" xmlns="http://www.w3.org/2000/svg">
<path d="M223.22 317.594C224.822 323.573 224.516 331.31 222.035 342.167C215.16 371.06 181.137 407.916 145.145 446.847C125.391 468.267 104.95 490.387 88.9702 511.398C58.65 543.95 43.9034 589.316 29.5938 633.232C19.1552 665.316 9.25942 695.62 -6.13705 721.163L-6.17165 721.215C-18.28 740.544 -31.9841 751.742 -48.0375 755.441C-79.3632 762.674 -115.032 740.106 -156.33 713.928L-160.303 711.423C-191.037 692.049 -231.599 668.255 -291.764 634.188L-296.725 631.259C-349.088 600.392 -414.262 561.948 -463.403 502.693C-571.571 386.617 -547.626 253.248 -497.298 199.681C-437.205 141.777 -361.409 125.08 -207.47 135.783C-46.9381 147.172 96.7728 229.167 151.094 263.897C170 279 185.439 287.507 196.711 293.69C210.962 301.569 220.296 306.68 223.22 317.594ZM-11.4327 718.797C3.62896 693.818 13.4081 663.803 23.7861 632.036C38.2492 587.606 53.2184 541.621 84.2251 508.369C100.194 487.318 120.749 465.081 140.584 443.596C176.038 405.196 209.534 368.912 216.108 341.433C222.213 314.381 214.92 310.357 193.262 298.399C181.812 292.092 166.092 283.445 147.063 268.245C93.3456 233.956 -49.2894 152.532 -208.389 141.233C-360.106 130.666 -434.575 146.878 -492.965 203.164C-541.772 255.162 -564.781 385.314 -458.661 499.186C-409.975 557.831 -345.26 596.012 -293.289 626.683L-288.339 629.571C-228.118 663.666 -187.5 687.489 -156.699 706.931L-152.726 709.436C-112.592 734.893 -77.9196 756.825 -49.2885 750.229C-34.9783 746.91 -22.6295 736.634 -11.4327 718.797Z" fill="#A7CEFC"/>
<path d="M184.355 336.739C186.569 345.005 185.923 354.553 183.847 368.011L183.821 368.276C176.92 394.897 150.244 421.655 122.035 449.943C102.737 469.263 82.8436 489.258 66.7275 511.209C39.6411 543.324 21.5416 579.439 4.03429 614.32C-7.69999 637.763 -18.8076 659.92 -32.2045 680.239L-32.4917 680.617C-72.863 725.496 -100.536 708.483 -150.801 677.655C-156.264 674.303 -162.018 670.77 -168.143 667.121C-178.855 659.584 -190.69 651.66 -203.241 643.239C-259.051 605.855 -335.476 554.599 -408.256 472.907C-489.06 370.874 -476.886 272.052 -429.006 219.313C-378.701 165.839 -302.237 160.876 -169.76 170.32C-34.8479 183.412 67.001 246.004 121.709 279.641L127.81 283.382C164.878 309.359 180.054 320.689 184.355 336.739ZM177.873 367.462C183.475 330.739 178.537 326.084 124.094 287.818L118.161 284.161C63.8671 250.8 -37.2207 188.692 -170.599 175.705C-300.855 166.397 -375.938 171.076 -424.388 222.592C-470.733 273.629 -482.217 369.771 -403.311 469.432C-331.076 550.539 -254.964 601.534 -199.424 638.819C-186.873 647.239 -175.038 655.164 -164.393 662.633C-158.436 666.197 -152.682 669.73 -147.173 673.071C-96.8524 703.927 -73.8361 718.058 -37.213 677.496C-24.0687 657.503 -13.0992 635.555 -1.44712 612.349C16.1662 577.138 34.4384 540.762 61.8573 508.256C78.1116 486.096 98.1994 465.92 117.646 446.431C145.203 418.792 171.262 392.628 177.873 367.462Z" fill="#A7CEFC"/>
<path d="M151.996 352.978C154.824 363.531 153.188 374.463 149.207 388.603C140.805 412.702 116.512 436.758 90.8464 462.213C75.5665 477.317 59.8051 492.98 45.9927 509.755C23.7402 533.995 6.23358 560.361 -10.7417 585.81C-24.6654 606.7 -37.7835 626.429 -52.3055 643.092L-52.5344 643.326C-92.0035 679.791 -120.121 660.576 -171.189 625.662L-171.782 625.262L-180.508 618.612C-230.047 580.709 -297.908 528.793 -358.388 448.966C-424.833 353.406 -404.045 275.672 -366.13 238.118C-325.698 197.997 -259.793 187.52 -138.657 201.938C-53.8682 213.366 28.6155 247 106.494 301.866C134.747 323.583 147.953 337.891 151.996 352.978ZM-56.9231 639.814C-42.7098 623.448 -29.6846 603.917 -15.9445 583.248C1.12375 557.601 18.8247 531.054 41.2608 506.593C55.1315 489.674 71.0634 473.922 86.4577 458.702C111.677 433.753 135.467 410.176 143.4 387.407C152.542 355.198 148.516 341.439 102.497 306.162C25.4126 251.901 -56.1504 218.622 -139.88 207.341C-258.706 193.207 -323.013 203.126 -361.832 241.654C-401.165 280.62 -413.81 358.839 -353.347 445.852C-293.332 525.029 -225.828 576.697 -176.49 614.396L-167.407 621.294C-115.981 656.456 -92.4374 672.553 -56.9231 639.814Z" fill="#A7CEFC"/>
<path d="M121.832 365.103C124.993 376.9 123.384 389.2 117.725 403.962L117.701 404.055C108.282 426.533 85.2097 448.8 60.8331 472.362C49.5256 483.262 37.8856 494.552 27.0519 506.314C10.8889 522.472 -3.50171 539.444 -17.3655 555.846C-34.4054 575.98 -50.5169 595.048 -67.3189 609.183C-103.665 635.738 -131.019 618.468 -171.861 586.921C-211.35 553.722 -268.948 501.507 -313.689 430.58C-350.654 361.311 -351.707 302.288 -316.743 264.234C-279.086 223.18 -205.168 211.072 -113.924 231.005C-7.97215 249.105 65.7223 302.856 85.7561 318.905C106.315 336.189 117.854 350.256 121.832 365.103ZM112.034 402.477C122.56 374.885 120.69 355.947 81.5249 323.049C61.8037 307.26 -10.9293 254.198 -115.553 236.344C-204.524 216.92 -276.163 228.289 -312.16 267.565C-345.464 303.841 -344.055 360.747 -308.247 427.875C-263.947 498.06 -206.784 549.919 -167.619 582.817C-125.604 615.297 -102.356 628.119 -71.0472 605.237C-54.8496 591.564 -38.9216 572.717 -22.0307 552.752C-8.05244 536.234 6.36196 519.169 22.6501 502.935C33.4731 491.133 45.249 479.806 56.591 468.854C80.4431 445.691 103.047 423.851 112.034 402.477Z" fill="#A7CEFC"/>
<path d="M93.9517 374.853C97.3061 387.372 95.5439 400.187 89.0521 414.742L88.821 415.148C48.7586 474.953 -56.5754 561.192 -77.2599 577.873L-77.7605 578.179C-109.207 595.292 -133.863 582.288 -168.35 552.351C-199.413 523.775 -242.797 477.126 -273.327 417.013C-299.466 361.143 -297.194 313.442 -266.942 282.629C-233.326 248.42 -170.735 239.347 -95.2147 257.688C-23.2002 272.366 35.0295 306.823 65.4765 334.187C81.0855 348.584 90.3929 361.572 93.9517 374.853ZM83.5706 412.771C95.8715 384.918 89.7648 364.664 61.0556 338.167C31.1777 311.295 -26.0561 277.475 -97.0008 262.983C-169.248 245.443 -231.077 254.097 -262.518 286.089C-291.099 315.164 -292.995 360.828 -267.764 414.577C-237.574 473.964 -194.624 520.083 -163.93 548.371C-130.949 577.035 -108.996 588.828 -80.85 573.717C-21.4319 525.8 52.8835 458.451 83.5706 412.771Z" fill="#A7CEFC"/>
<path d="M68.2994 384.049C71.8904 397.451 69.9685 410.395 62.582 421.792C33.5345 467.249 -37.8054 525.585 -83.7091 549.454C-94.5176 554.242 -106.205 554.664 -118.501 550.82C-156.4 538.956 -200.665 485.577 -236.898 407.983C-254.237 363.388 -249.51 325.394 -223.586 300.901C-194.21 273.161 -142.452 266.432 -81.6396 282.435C-4.39781 303.754 50.7595 339.249 66.0186 377.349C66.9594 379.591 67.7081 381.842 68.2994 384.049ZM-236.845 388.789C-235.361 394.326 -233.507 399.979 -231.236 405.735C-195.683 481.877 -152.658 534.255 -116.208 545.604C-105.395 548.986 -95.3348 548.655 -86.2634 544.634C-41.3026 521.233 28.8954 463.89 57.4246 419.217C65.0423 407.414 66.0611 393.637 60.3591 379.425C45.6897 342.801 -8.13988 308.456 -83.65 287.618C-141.324 272.451 -192.038 278.729 -219.322 304.489C-240.206 324.234 -246.231 353.759 -236.845 388.789Z" fill="#A7CEFC"/>
<path d="M43.0473 389.482C46.3803 401.921 44.7847 414.089 38.2852 424.991C15.2396 463.85 -43.2147 509.746 -86.778 523.139L-86.8685 523.163C-127.365 534.229 -176.664 483.446 -204.003 402.437C-214.362 367.583 -208.11 337.997 -186.289 319.033C-161.282 297.28 -119.818 292.363 -72.4892 305.528C-14.8441 322.035 27.4134 350.708 40.5815 382.273C41.5759 384.715 42.413 387.114 43.0473 389.482ZM-88.3569 517.971C-46.1075 504.931 10.6244 460.399 32.9896 422.625C39.8585 411.108 40.508 397.946 34.9089 384.481C22.3199 354.352 -18.6208 326.789 -74.6356 310.748C-119.76 298.196 -159.028 302.611 -182.3 322.867C-202.34 340.321 -208.057 367.915 -198.257 400.683C-172.284 477.499 -125.013 527.965 -88.3569 517.971Z" fill="#A7CEFC"/>
<path d="M18.957 394.001C21.8706 404.875 20.7119 415.593 15.4234 425.396C-2.99164 459.789 -49.9496 493.316 -87.1645 498.686C-123.026 503.306 -161.262 459.923 -174.234 400.094C-179.503 373.724 -172.569 351.395 -154.772 337.165C-134.375 320.863 -102.466 317.258 -67.274 327.353C-26.0356 339.355 5.17077 361.398 16.2154 386.307C17.3888 388.874 18.2689 391.433 18.957 394.001ZM-166.065 407.926C-152.024 460.329 -118.669 497.279 -87.6906 493.279C-52.9522 488.271 -7.2805 455.563 10.0457 423.268C15.7404 412.624 15.9338 400.66 10.6096 388.583C0.167803 365.018 -29.7669 344.096 -69.431 332.533C-102.52 323.035 -132.223 326.178 -150.943 341.128C-166.982 353.941 -173.147 374.429 -168.325 398.769C-167.598 401.843 -166.872 404.916 -166.065 407.926Z" fill="#A7CEFC"/>
<path d="M-4.16349 397.961C-1.81967 406.708 -2.54517 415.418 -6.33321 423.572C-19.4973 451.828 -54.9435 475.216 -85.3555 475.71C-115.483 475.999 -142.534 442.822 -146.944 400.266C-148.757 381.356 -142.167 365.356 -128.375 355.209C-112.76 343.714 -89.7469 341.16 -65.2362 348.182C-37.23 356.289 -16.0459 371.557 -7.15079 390.074C-5.87601 392.657 -4.87309 395.313 -4.16349 397.961ZM-85.0684 470.258C-57.4562 469.826 -23.9329 447.597 -11.8731 421.745C-7.5859 412.554 -7.86865 402.437 -12.6791 392.459C-20.8615 375.514 -41.2976 360.863 -67.3587 353.31C-89.8681 346.869 -110.743 349.065 -124.705 359.301C-136.799 368.175 -142.542 382.443 -140.906 399.422C-136.881 438.727 -111.809 470.499 -85.0684 470.258Z" fill="#A7CEFC"/>
</svg>
